<?xml version="1.0" encoding="UTF-8"?>
<svg id="Capa_1" data-name="Capa 1" xmlns="http://www.w3.org/2000/svg" viewBox="0 0 885.56 276.74">
  <defs>
    <style>
      .cls-1 {
        fill: #676766;
      }
    </style>
  </defs>
  <path class="cls-1" d="M369.01,59.89c-5.15-3-10.97-4.51-17.48-4.51s-12.35,1.5-17.54,4.51c-5.19,3.01-9.29,7.1-12.29,12.29-3.01,5.19-4.51,11.08-4.51,17.67s1.46,12.35,4.39,17.54c2.92,5.19,6.9,9.29,11.92,12.29,5.02,3.01,10.7,4.51,17.05,4.51,6.01,0,11.38-1.38,16.12-4.14,3.85-2.24,7.03-5.15,9.57-8.69v7.52c0,1.4.45,2.53,1.36,3.4.91.86,2.06,1.3,3.46,1.3s2.55-.43,3.46-1.3c.91-.87,1.36-2,1.36-3.4v-29.03c-.08-6.59-1.63-12.48-4.63-17.67-3.01-5.19-7.08-9.28-12.23-12.29ZM364.32,112.21c-3.75,2.22-8.01,3.34-12.79,3.34s-8.94-1.11-12.72-3.34c-3.79-2.22-6.79-5.29-9.02-9.2-2.22-3.91-3.34-8.3-3.34-13.16s1.11-9.35,3.34-13.22c2.22-3.87,5.23-6.94,9.02-9.2,3.79-2.26,8.03-3.4,12.72-3.4s9.04,1.13,12.79,3.4c3.75,2.27,6.71,5.33,8.89,9.2,2.18,3.87,3.27,8.28,3.27,13.22s-1.09,9.25-3.27,13.16c-2.18,3.91-5.15,6.98-8.89,9.2Z"/>
  <path class="cls-1" d="M464.69,27.09c-1.4,0-2.55.43-3.46,1.3-.91.87-1.36,2.04-1.36,3.52v36.32c-2.72-3.87-6.3-6.98-10.75-9.33-4.45-2.35-9.43-3.52-14.95-3.52-6.34,0-12.03,1.5-17.05,4.51-5.02,3.01-9,7.1-11.92,12.29-2.92,5.19-4.39,11.04-4.39,17.54s1.5,12.48,4.51,17.67c3,5.19,7.1,9.29,12.29,12.29,5.19,3.01,11.04,4.51,17.54,4.51s12.21-1.48,17.36-4.45c5.15-2.96,9.22-7.02,12.23-12.17,3-5.15,4.59-10.93,4.76-17.36V31.91c0-1.48-.45-2.66-1.36-3.52-.91-.86-2.06-1.3-3.46-1.3ZM456.84,102.94c-2.18,3.87-5.15,6.94-8.89,9.2-3.75,2.27-8.01,3.4-12.79,3.4s-8.94-1.13-12.72-3.4c-3.79-2.26-6.79-5.33-9.02-9.2-2.22-3.87-3.33-8.28-3.33-13.22s1.11-9.24,3.33-13.16c2.22-3.91,5.23-6.98,9.02-9.2,3.79-2.22,8.03-3.34,12.72-3.34s9.04,1.11,12.79,3.34c3.75,2.22,6.71,5.29,8.89,9.2,2.18,3.91,3.27,8.3,3.27,13.16s-1.09,9.35-3.27,13.22Z"/>
  <path class="cls-1" d="M546.28,113.19c-.04-1.15-.6-2.22-1.67-3.21-.82-.66-1.81-.97-2.96-.93-1.15.04-2.18.43-3.09,1.17-1.81,1.57-4.22,2.86-7.23,3.89-3.01,1.03-5.99,1.54-8.96,1.54-4.94,0-9.31-1.11-13.09-3.33-3.79-2.22-6.77-5.27-8.96-9.14-1.72-3.06-2.76-6.48-3.12-10.25h49.88c1.32,0,2.39-.39,3.21-1.17.82-.78,1.24-1.83,1.24-3.15,0-6.42-1.28-12.15-3.83-17.17-2.55-5.02-6.16-8.96-10.81-11.8-4.65-2.84-10.11-4.26-16.37-4.26s-11.94,1.48-16.8,4.45c-4.86,2.96-8.67,7.02-11.43,12.17-2.76,5.15-4.14,11.1-4.14,17.85s1.46,12.6,4.39,17.79c2.92,5.19,6.96,9.25,12.11,12.17,5.15,2.92,11.06,4.38,17.73,4.38,3.87,0,7.91-.76,12.11-2.29,4.2-1.52,7.66-3.44,10.38-5.74.99-.82,1.46-1.81,1.42-2.96ZM508.17,67.24c3.54-2.22,7.66-3.33,12.35-3.33s8.58,1.07,11.92,3.21c3.33,2.14,5.91,5.11,7.72,8.89,1.31,2.75,2.12,5.75,2.44,9.02h-45.22c.43-3.11,1.28-5.97,2.57-8.59,1.93-3.91,4.67-6.98,8.21-9.2Z"/>
  <path class="cls-1" d="M631.33,151.18c.91-.86,1.36-2.04,1.36-3.52v-58.31c-.17-6.42-1.75-12.21-4.76-17.36-3.01-5.15-7.08-9.2-12.23-12.17-5.15-2.96-10.93-4.45-17.36-4.45s-12.35,1.5-17.54,4.51c-5.19,3.01-9.29,7.1-12.29,12.29-3.01,5.19-4.51,11.08-4.51,17.67s1.46,12.35,4.39,17.54c2.92,5.19,6.9,9.29,11.92,12.29,5.02,3.01,10.71,4.51,17.05,4.51,5.52,0,10.5-1.17,14.95-3.52,4.45-2.35,8.03-5.45,10.75-9.33v36.32c0,1.48.45,2.66,1.36,3.52.91.87,2.06,1.3,3.46,1.3s2.55-.43,3.46-1.3ZM620.03,103c-2.18,3.91-5.15,6.98-8.89,9.2-3.75,2.22-8.01,3.34-12.79,3.34s-8.94-1.11-12.72-3.34c-3.79-2.22-6.79-5.29-9.02-9.2-2.22-3.91-3.33-8.3-3.33-13.16s1.11-9.35,3.33-13.22c2.22-3.87,5.23-6.94,9.02-9.2,3.79-2.26,8.03-3.4,12.72-3.4s9.04,1.13,12.79,3.4c3.75,2.27,6.71,5.33,8.89,9.2,2.18,3.87,3.27,8.28,3.27,13.22s-1.09,9.25-3.27,13.16Z"/>
  <path class="cls-1" d="M706.81,114.52v4.23c0,1.48.43,2.66,1.3,3.52.87.86,2,1.3,3.4,1.3s2.55-.43,3.46-1.3c.91-.87,1.36-2.04,1.36-3.52v-58.06c0-1.4-.45-2.53-1.36-3.4-.91-.87-2.06-1.3-3.46-1.3s-2.53.43-3.4,1.3-1.3,2-1.3,3.4v36.57c0,3.46-.95,6.55-2.84,9.26-1.9,2.72-4.47,4.86-7.72,6.42-3.25,1.57-6.9,2.35-10.93,2.35s-7.97-.82-11.3-2.47c-3.34-1.65-5.97-4.12-7.91-7.41-1.94-3.29-2.9-7.49-2.9-12.6v-32.12c0-1.32-.45-2.43-1.36-3.34-.91-.91-2.06-1.36-3.46-1.36-1.32,0-2.43.45-3.34,1.36s-1.36,2.02-1.36,3.34v32.12c0,6.75,1.34,12.48,4.01,17.17,2.67,4.69,6.32,8.26,10.93,10.69,4.61,2.43,9.84,3.64,15.69,3.64,5.35,0,10.21-1.17,14.58-3.52,3.08-1.66,5.71-3.75,7.91-6.27Z"/>
  <path class="cls-1" d="M751.28,119.68c5.02,3.01,10.71,4.51,17.05,4.51,6.01,0,11.38-1.38,16.12-4.14,3.85-2.24,7.03-5.15,9.57-8.69v7.52c0,1.4.45,2.53,1.36,3.4.91.86,2.06,1.3,3.46,1.3s2.55-.43,3.46-1.3c.91-.87,1.36-2,1.36-3.4v-29.03c-.08-6.59-1.63-12.48-4.63-17.67-3.01-5.19-7.08-9.28-12.23-12.29-5.15-3-10.97-4.51-17.48-4.51s-12.35,1.5-17.54,4.51c-5.19,3.01-9.29,7.1-12.29,12.29-3.01,5.19-4.51,11.08-4.51,17.67s1.46,12.35,4.39,17.54c2.92,5.19,6.9,9.29,11.92,12.29ZM747.57,76.63c2.22-3.87,5.23-6.94,9.02-9.2,3.79-2.26,8.03-3.4,12.72-3.4s9.04,1.13,12.79,3.4c3.75,2.27,6.71,5.33,8.89,9.2,2.18,3.87,3.27,8.28,3.27,13.22s-1.09,9.25-3.27,13.16c-2.18,3.91-5.15,6.98-8.89,9.2-3.75,2.22-8.01,3.34-12.79,3.34s-8.94-1.11-12.72-3.34c-3.79-2.22-6.79-5.29-9.02-9.2-2.22-3.91-3.33-8.3-3.33-13.16s1.11-9.35,3.33-13.22Z"/>
  <path class="cls-1" d="M368.46,191.95c-4.61-2.43-9.84-3.64-15.69-3.64-5.35,0-10.21,1.17-14.58,3.52-3.07,1.65-5.69,3.73-7.91,6.23v-4.19c0-1.48-.43-2.66-1.3-3.52-.86-.86-2-1.3-3.4-1.3-1.48,0-2.66.43-3.52,1.3-.87.87-1.3,2.04-1.3,3.52v58.06c0,1.4.43,2.53,1.3,3.4.86.87,2.04,1.3,3.52,1.3,1.4,0,2.53-.43,3.4-1.3.87-.86,1.3-2,1.3-3.4v-36.57c0-3.46.95-6.55,2.84-9.26,1.89-2.72,4.47-4.86,7.72-6.42,3.25-1.56,6.9-2.35,10.93-2.35s7.97.82,11.3,2.47c3.34,1.65,5.97,4.12,7.91,7.41,1.94,3.3,2.9,7.49,2.9,12.6v32.12c0,1.32.45,2.43,1.36,3.33.91.91,2.06,1.36,3.46,1.36,1.32,0,2.43-.45,3.33-1.36.9-.9,1.36-2.02,1.36-3.33v-32.12c0-6.75-1.34-12.48-4.02-17.17-2.68-4.69-6.32-8.26-10.93-10.69Z"/>
  <path class="cls-1" d="M460.98,189.05c-1.4,0-2.53.43-3.4,1.3s-1.3,2-1.3,3.4v36.56c0,3.46-.95,6.55-2.84,9.27-1.89,2.72-4.47,4.86-7.72,6.42-3.25,1.56-6.9,2.35-10.93,2.35s-7.97-.82-11.3-2.47c-3.34-1.65-5.97-4.12-7.91-7.41-1.94-3.29-2.9-7.49-2.9-12.6v-32.12c0-1.32-.45-2.43-1.36-3.34-.91-.9-2.06-1.36-3.46-1.36-1.32,0-2.43.45-3.34,1.36-.91.91-1.36,2.02-1.36,3.34v32.12c0,6.75,1.34,12.48,4.01,17.17,2.68,4.69,6.32,8.26,10.93,10.68,4.61,2.43,9.84,3.64,15.69,3.64,5.35,0,10.21-1.17,14.58-3.52,3.08-1.66,5.71-3.75,7.91-6.27v4.23c0,1.48.43,2.66,1.3,3.52.86.87,2,1.3,3.4,1.3s2.55-.43,3.46-1.3c.91-.86,1.36-2.04,1.36-3.52v-58.06c0-1.4-.45-2.53-1.36-3.4-.91-.86-2.06-1.3-3.46-1.3Z"/>
  <path class="cls-1" d="M517.81,247.11h-3.34c-3.87,0-7.04-1.34-9.51-4.01-2.47-2.68-3.7-6.12-3.7-10.32v-32.98h13.96c1.24,0,2.26-.39,3.09-1.17.82-.78,1.24-1.75,1.24-2.9,0-1.24-.41-2.24-1.24-3.03-.82-.78-1.85-1.17-3.09-1.17h-13.96v-19.15c0-1.4-.45-2.55-1.36-3.46-.91-.9-2.06-1.36-3.46-1.36s-2.53.45-3.4,1.36c-.87.91-1.3,2.06-1.3,3.46v19.15h-8.03c-1.24,0-2.27.39-3.09,1.17-.83.78-1.24,1.79-1.24,3.03,0,1.15.41,2.12,1.24,2.9.82.78,1.85,1.17,3.09,1.17h8.03v32.98c0,4.61.99,8.71,2.97,12.29,1.97,3.58,4.67,6.4,8.09,8.46,3.42,2.06,7.31,3.09,11.67,3.09h2.59c1.48,0,2.72-.43,3.71-1.3.99-.86,1.48-2,1.48-3.4s-.41-2.55-1.24-3.46c-.82-.91-1.89-1.36-3.21-1.36Z"/>
  <path class="cls-1" d="M576.98,189.91c-2.06-1.07-4.98-1.6-8.77-1.6-4.78,0-9.12,1.15-13.03,3.46-3.19,1.88-5.89,4.35-8.09,7.38v-5.41c0-1.48-.41-2.63-1.24-3.46-.82-.82-1.98-1.24-3.46-1.24s-2.64.41-3.46,1.24c-.82.82-1.23,1.97-1.23,3.46v58.18c0,1.48.41,2.64,1.23,3.46.82.82,1.98,1.24,3.46,1.24s2.63-.41,3.46-1.24c.82-.82,1.24-1.98,1.24-3.46v-36.94c0-3.87,1.05-7.2,3.15-10.01,2.1-2.8,4.94-4.88,8.52-6.24,3.58-1.36,7.68-1.83,12.29-1.42,1.4.08,2.66.17,3.77.25,1.11.08,2.06-.08,2.84-.49.78-.41,1.34-1.24,1.67-2.47.49-2.06-.29-3.62-2.35-4.69Z"/>
  <path class="cls-1" d="M605.7,164.52c-1.36-1.19-2.9-1.79-4.63-1.79s-3.4.6-4.76,1.79c-1.36,1.2-2.04,2.82-2.04,4.88,0,1.9.66,3.5,1.98,4.82,1.32,1.32,2.88,1.98,4.69,1.98s3.5-.66,4.82-1.98c1.32-1.32,1.98-2.92,1.98-4.82,0-2.06-.68-3.68-2.04-4.88Z"/>
  <path class="cls-1" d="M601.07,189.05c-1.48,0-2.66.43-3.52,1.3-.87.87-1.3,2.04-1.3,3.52v57.94c0,1.48.43,2.66,1.3,3.52.87.87,2.04,1.3,3.52,1.3,1.4,0,2.53-.43,3.4-1.3.86-.86,1.3-2.04,1.3-3.52v-57.94c0-1.48-.43-2.66-1.3-3.52-.87-.86-2-1.3-3.4-1.3Z"/>
  <path class="cls-1" d="M672.78,191.39c-4.24-1.98-8.88-2.97-13.9-2.97-6.34,0-11.94,1.5-16.8,4.51-4.86,3.01-8.69,7.1-11.49,12.29-2.8,5.19-4.2,11.08-4.2,17.67s1.46,12.35,4.39,17.54c2.92,5.19,6.92,9.29,11.98,12.29,5.06,3.01,10.85,4.51,17.36,4.51,8.97,0,16.47-2.76,22.48-8.27.9-.82,1.3-1.81,1.17-2.97-.12-1.15-.68-2.18-1.67-3.09-.91-.74-1.89-1.07-2.96-.99-1.07.08-2.1.54-3.09,1.36-2.06,1.81-4.43,3.15-7.1,4.02-2.68.87-5.62,1.3-8.83,1.3-4.78,0-9.02-1.11-12.73-3.34-3.7-2.22-6.59-5.27-8.65-9.14-2.06-3.87-3.09-8.27-3.09-13.22s.97-9.47,2.9-13.34c1.93-3.87,4.65-6.92,8.15-9.14,3.5-2.23,7.55-3.34,12.17-3.34,7.25,0,13.26,2.72,18.04,8.15.82.99,1.79,1.59,2.9,1.79,1.11.21,2.12-.02,3.03-.68,1.15-.82,1.85-1.79,2.1-2.9.25-1.11-.08-2.16-.99-3.15-3.21-3.95-6.94-6.92-11.18-8.89Z"/>
  <path class="cls-1" d="M710.39,189.05c-1.48,0-2.66.43-3.52,1.3-.87.87-1.3,2.04-1.3,3.52v57.94c0,1.48.43,2.66,1.3,3.52.87.87,2.04,1.3,3.52,1.3,1.4,0,2.53-.43,3.4-1.3.86-.86,1.3-2.04,1.3-3.52v-57.94c0-1.48-.43-2.66-1.3-3.52-.87-.86-2-1.3-3.4-1.3Z"/>
  <path class="cls-1" d="M715.02,164.52c-1.36-1.19-2.9-1.79-4.63-1.79s-3.4.6-4.76,1.79c-1.36,1.2-2.04,2.82-2.04,4.88,0,1.9.66,3.5,1.98,4.82,1.32,1.32,2.88,1.98,4.69,1.98s3.5-.66,4.82-1.98c1.32-1.32,1.98-2.92,1.98-4.82,0-2.06-.68-3.68-2.04-4.88Z"/>
  <path class="cls-1" d="M787.66,192.88c-5.15-2.97-11.02-4.45-17.6-4.45s-12.48,1.48-17.67,4.45c-5.19,2.96-9.26,7.04-12.23,12.23-2.96,5.19-4.45,11.12-4.45,17.79s1.48,12.48,4.45,17.67c2.97,5.19,7.04,9.26,12.23,12.23,5.19,2.96,11.08,4.45,17.67,4.45s12.46-1.48,17.6-4.45c5.15-2.97,9.22-7.04,12.23-12.23,3.01-5.19,4.51-11.08,4.51-17.67-.08-6.67-1.61-12.6-4.57-17.79-2.97-5.19-7.02-9.27-12.17-12.23ZM791.79,236.11c-2.14,3.87-5.11,6.92-8.89,9.14-3.79,2.22-8.07,3.34-12.85,3.34s-9.06-1.11-12.85-3.34c-3.79-2.22-6.77-5.27-8.96-9.14-2.18-3.87-3.27-8.27-3.27-13.22s1.09-9.37,3.27-13.28c2.18-3.91,5.17-6.98,8.96-9.2,3.79-2.23,8.07-3.34,12.85-3.34s9.06,1.11,12.85,3.34c3.79,2.22,6.75,5.29,8.89,9.2,2.14,3.91,3.21,8.34,3.21,13.28s-1.07,9.35-3.21,13.22Z"/>
  <path class="cls-1" d="M881.54,202.64c-2.68-4.69-6.32-8.26-10.93-10.69-4.61-2.43-9.84-3.64-15.69-3.64-5.35,0-10.21,1.17-14.58,3.52-3.07,1.65-5.69,3.73-7.91,6.23v-4.2c0-1.48-.43-2.66-1.3-3.52-.87-.86-2-1.3-3.4-1.3-1.48,0-2.66.43-3.52,1.3-.87.87-1.3,2.04-1.3,3.52v58.06c0,1.4.43,2.53,1.3,3.4.87.87,2.04,1.3,3.52,1.3,1.4,0,2.53-.43,3.4-1.3.86-.86,1.3-2,1.3-3.4v-36.57c0-3.46.95-6.55,2.84-9.26,1.89-2.72,4.47-4.86,7.72-6.42,3.25-1.56,6.9-2.35,10.93-2.35s7.97.82,11.3,2.47c3.34,1.65,5.97,4.12,7.91,7.41,1.94,3.3,2.9,7.49,2.9,12.6v32.12c0,1.32.45,2.43,1.36,3.33.91.91,2.06,1.36,3.46,1.36,1.32,0,2.43-.45,3.33-1.36.9-.9,1.36-2.02,1.36-3.33v-32.12c0-6.75-1.34-12.48-4.02-17.17Z"/>
  <path class="cls-1" d="M200.91,4.48c-5.18-2.98-11.09-4.48-17.72-4.48s-12.56,1.49-17.78,4.48c-5.22,2.98-9.32,7.09-12.31,12.31-2.98,5.22-4.48,11.19-4.48,17.9s1.49,12.56,4.48,17.78c.78,1.37,1.65,2.66,2.59,3.88-20.93,18.6-38,38.5-50.97,59.35l3.74-33.34c.55-6.38-.38-12.29-2.78-17.73-2.41-5.43-6-9.91-10.77-13.41-4.77-3.51-10.34-5.62-16.7-6.33-6.45-.72-12.41.12-17.88,2.52-5.47,2.4-9.99,6.01-13.54,10.81-3.56,4.81-5.7,10.47-6.43,17-.72,6.44.08,12.4,2.4,17.87,2.32,5.47,5.8,9.96,10.45,13.5,4.64,3.54,10.11,5.66,16.39,6.36,5.47.61,10.53,0,15.2-1.83,4.67-1.83,8.56-4.51,11.68-8.05l-3.92,35c-9.1,19.48-14.79,39.66-16.96,60.14l-8.65-27.43c-2.08-6.06-5.33-11.09-9.73-15.08-4.4-3.99-9.5-6.63-15.28-7.9-5.78-1.28-11.73-.95-17.84.98-6.19,1.95-11.3,5.13-15.33,9.55-4.03,4.41-6.7,9.54-8,15.37-1.3,5.83-.97,11.88,1.01,18.15,1.95,6.18,5.09,11.31,9.43,15.36,4.33,4.06,9.34,6.76,15.02,8.11,5.68,1.35,11.53,1.08,17.56-.82,5.25-1.65,9.63-4.26,13.16-7.83,3.52-3.57,6-7.6,7.42-12.09l10.55,33.44c1.71,27.48,9.3,44.88,9.71,45.78.82,1.84,2.63,2.93,4.52,2.93.67,0,1.36-.14,2.01-.43,2.49-1.11,3.62-4.03,2.51-6.53-.03-.07-2.94-6.71-5.46-18.03-1.51-6.78-3.06-16.19-3.56-27.47l23.3-23.99c-.74,4.66-.34,9.37,1.21,14.14,1.55,4.77,4.3,9.07,8.25,12.9,4.54,4.41,9.65,7.28,15.32,8.62,5.68,1.34,11.37,1.17,17.06-.51,5.7-1.68,10.8-4.85,15.32-9.5,4.58-4.71,7.59-9.97,9.05-15.77,1.45-5.8,1.37-11.58-.25-17.33-1.62-5.75-4.76-10.89-9.41-15.41-4.59-4.46-9.76-7.42-15.5-8.88-5.74-1.45-11.47-1.39-17.2.21-5.72,1.59-10.88,4.63-15.46,9.11l-31.72,32.66c.07-1.94.17-3.91.32-5.92,1.67-22.55,7.86-44.8,18.39-66.14.2-.41.42-.81.62-1.22l29.76-20.59c-1.63,4.42-2.15,9.13-1.55,14.1.6,4.98,2.46,9.73,5.59,14.25,3.6,5.2,8.06,9.01,13.37,11.42,5.32,2.41,10.93,3.35,16.84,2.8,5.91-.55,11.54-2.67,16.87-6.36,5.4-3.74,9.38-8.31,11.92-13.72,2.55-5.41,3.58-11.09,3.1-17.05-.48-5.96-2.56-11.61-6.26-16.94-3.64-5.27-8.14-9.17-13.49-11.71-5.35-2.54-10.99-3.58-16.91-3.12-5.92.46-11.57,2.44-16.93,5.95l-31.25,21.62c12.36-19.17,28.39-37.51,47.88-54.74.81.56,1.64,1.1,2.51,1.6,5.22,2.98,11.15,4.48,17.78,4.48s12.53-1.49,17.72-4.48c5.18-2.98,9.28-7.09,12.31-12.31,3.02-5.22,4.54-11.15,4.54-17.78-.08-6.71-1.62-12.68-4.6-17.9-2.98-5.22-7.07-9.32-12.25-12.31ZM59,187.56c-.9,4.37-2.8,8.18-5.7,11.42-2.9,3.24-6.62,5.57-11.16,7.01-4.46,1.41-8.83,1.62-13.1.64-4.27-.98-8.05-2.99-11.33-6.05-3.29-3.05-5.66-6.89-7.12-11.51-1.48-4.7-1.75-9.22-.79-13.57.95-4.35,2.89-8.17,5.82-11.46,2.92-3.29,6.62-5.64,11.08-7.05,4.54-1.43,8.93-1.63,13.18-.6,4.24,1.03,7.98,3.06,11.22,6.08,3.23,3.03,5.59,6.89,7.08,11.59,1.46,4.62,1.73,9.12.83,13.49ZM115.92,196.44c1.16-4.31,3.42-8.21,6.8-11.68,3.43-3.53,7.27-5.93,11.52-7.18,4.25-1.25,8.5-1.39,12.75-.4,4.26.98,8.09,3.14,11.5,6.45,3.36,3.26,5.61,7.02,6.74,11.27,1.14,4.25,1.16,8.53.06,12.85-1.1,4.31-3.36,8.24-6.8,11.77-3.37,3.47-7.22,5.84-11.52,7.09-4.31,1.25-8.59,1.36-12.84.32-4.25-1.04-8.06-3.19-11.42-6.45-3.42-3.32-5.69-7.07-6.83-11.27-1.14-4.19-1.12-8.45.03-12.76ZM142.27,114.42c1.97-4.01,4.95-7.39,8.93-10.15,4.05-2.8,8.28-4.41,12.69-4.82,4.41-.41,8.61.28,12.59,2.07,3.98,1.79,7.33,4.64,10.04,8.56,2.66,3.85,4.14,7.97,4.43,12.36.29,4.39-.52,8.59-2.43,12.61-1.91,4.02-4.89,7.43-8.94,10.23-3.98,2.76-8.21,4.33-12.68,4.73-4.47.4-8.69-.33-12.66-2.17-3.97-1.84-7.29-4.69-9.95-8.54-2.71-3.91-4.22-8.04-4.52-12.38-.3-4.33.53-8.51,2.5-12.51ZM94.41,94.47c-2.6,3.63-5.88,6.34-9.83,8.13-3.96,1.79-8.31,2.42-13.04,1.89-4.65-.52-8.73-2.09-12.24-4.72-3.51-2.62-6.14-6-7.91-10.12-1.77-4.12-2.38-8.59-1.84-13.41.55-4.9,2.14-9.14,4.77-12.73,2.63-3.59,5.95-6.29,9.96-8.12,4-1.82,8.33-2.47,12.98-1.95,4.73.53,8.83,2.12,12.29,4.79,3.46,2.66,6.06,6.03,7.79,10.11,1.73,4.08,2.32,8.56,1.78,13.46-.54,4.81-2.11,9.04-4.7,12.67ZM205.08,47.99c-2.16,3.9-5.14,6.96-8.95,9.2-3.81,2.24-8.12,3.36-12.93,3.36s-9.12-1.12-12.93-3.36c-3.81-2.24-6.82-5.3-9.01-9.2-2.2-3.89-3.29-8.33-3.29-13.3s1.1-9.43,3.29-13.36c2.19-3.94,5.2-7.02,9.01-9.26,3.81-2.24,8.12-3.36,12.93-3.36s9.12,1.12,12.93,3.36c3.81,2.24,6.79,5.33,8.95,9.26,2.15,3.94,3.23,8.39,3.23,13.36s-1.08,9.41-3.23,13.3Z"/>
  <path class="cls-1" d="M754.34,164.71c-1.48,0-2.66.43-3.52,1.3-.87.87-1.3,2.04-1.3,3.52,0,1.4.43,2.53,1.3,3.4.86.86,2.04,1.3,3.52,1.3h31.43c1.48,0,2.66-.43,3.52-1.3.86-.87,1.3-2,1.3-3.4,0-1.48-.43-2.66-1.3-3.52-.87-.87-2.04-1.3-3.52-1.3h-31.43Z"/>
</svg>