<?xml version="1.0" encoding="UTF-8"?>
<svg id="Capa_1" data-name="Capa 1" xmlns="http://www.w3.org/2000/svg" viewBox="0 0 594.64 116.19">
  <defs>
    <style>
      .cls-1 {
        fill: #676766;
      }
    </style>
  </defs>
  <path class="cls-1" d="M83.08,103.96v2.39h-39.22v-2.39h7.84l-8.77-27.38c-2.79,2.39-6.25,3.19-8.64,3.19-5.58,0-9.97-4.65-13.56-9.44l-9.7,33.63h7.98v2.39H0v-2.39h7.98l10.5-36.69c-2.92-4.12-5.45-7.71-7.84-7.71-2.13-.13-3.32,1.2-3.32,2.92,0,1.33,2.13,2.13,2.13,3.85,0,1.99-1.33,3.32-3.46,3.32-2.79,0-3.99-2.26-3.99-4.92,0-4.39,3.19-8.38,8.77-8.38,3.59,0,6.78,1.73,9.7,3.99L37.89,0h2.92l34.16,103.96h8.11ZM39.22,74.84c1.2,0,2.13-.4,2.79-.93l-11.83-36.82-7.18,25.39c5.85,5.32,10.9,12.36,16.22,12.36Z"/>
  <path class="cls-1" d="M89.07,106.35v-2.39h7.31V2.39h-7.31V0h52.11c21,1.86,34.83,14.36,34.83,35.76s-15.02,35.63-36.16,35.63h-14.89v32.57h9.97v2.39h-45.86ZM148.36,35.76c0-16.08-8.11-33.37-23.4-33.37v65.27c14.89-.53,23.4-15.42,23.4-31.91Z"/>
  <path class="cls-1" d="M183.32,106.35v-2.39h7.31V2.39h-7.31V0h52.11c21,1.86,34.83,14.36,34.83,35.76s-15.02,35.63-36.16,35.63h-14.89v32.57h9.97v2.39h-45.86ZM242.61,35.76c0-16.08-8.11-33.37-23.4-33.37v65.27c14.89-.53,23.4-15.42,23.4-31.91Z"/>
  <path class="cls-1" d="M352.82,35.09h-1.33c0-16.88-11.96-32.7-33.9-32.7h-3.99v56.1c7.44-.53,16.35-14.49,16.35-29.91v-2.66h1.6v59.69h-1.33c0-12.76-9.17-24.19-16.62-24.59v42.94h9.84v2.39h-45.86v-2.39h7.44V2.39h-7.31V0h75.11v35.09Z"/>
  <path class="cls-1" d="M361.2,64.47l-.13-17.95c0-28.45,14.62-44.67,32.97-44.67s32.97,16.22,32.97,44.8v17.95c0,23.79-14.76,39.88-32.97,39.88s-32.83-16.08-32.83-40.01ZM394.03,4.52c-4.92,0-9.97,1.46-14.36,4.39v88.67c4.52,2.79,9.44,4.25,14.36,4.25s9.84-1.46,14.36-4.25V8.91c-4.39-2.92-9.44-4.39-14.36-4.39Z"/>
  <path class="cls-1" d="M473.8,103.96h10.1v2.39h-46v-2.39h7.31V2.39h-7.31V0h49.05c17.68,1.86,29.38,14.76,29.38,33.77,0,17.68-10.77,30.31-28.85,34.96,30.97,10.37,25.66,43.74,32.04,43.74,2.39,0,2.92-2.39,4.39-5.58.27-.4,1.33-.27,1.2.53-1.06,5.18-3.32,8.77-8.77,8.77-16.35,0-11.7-34.3-42.54-47.46v35.23ZM494.14,32.97c0-14.49-7.05-30.31-20.34-30.58v59.95c12.89-.93,20.34-14.23,20.34-29.38Z"/>
  <path class="cls-1" d="M528.83,64.47l-.13-17.95c0-28.45,14.62-44.67,32.97-44.67s32.97,16.22,32.97,44.8v17.95c0,23.79-14.76,39.88-32.97,39.88s-32.83-16.08-32.83-40.01ZM561.67,4.52c-4.92,0-9.97,1.46-14.36,4.39v88.67c4.52,2.79,9.44,4.25,14.36,4.25s9.84-1.46,14.36-4.25V8.91c-4.39-2.92-9.44-4.39-14.36-4.39Z"/>
</svg>