<?xml version="1.0" encoding="UTF-8"?>
<svg id="Capa_1" data-name="Capa 1" xmlns="http://www.w3.org/2000/svg" viewBox="0 0 400.41 300.61">
  <defs>
    <style>
      .cls-1 {
        fill: #666;
      }

      .cls-2 {
        fill: none;
        stroke: #666;
        stroke-miterlimit: 10;
        stroke-width: 2px;
      }
    </style>
  </defs>
  <path class="cls-1" d="M246.65,161.4c-1.22-.27-2.39-.84-3.68-.77-2.39.13-13.14,2.47-15.61,3.28-1.23-20.51-13.07-40.99-26.03-56.55-1.78-2.14-7.06-9.28-9.56-8.88-15.45,18.37-32.04,39.61-33.2,64.59-1.16-.27-3,.2-4.49-.1-4.96-1-11.34-3.7-15.64-.74,3.86-29.29,18.23-58.51,40.71-77.92,2.27-1.96,11.09-9.07,13.45-9.24,2.5-.18,8.53,4.91,10.83,6.72,23.53,18.54,40.13,49.85,43.22,79.59Z"/>
  <path class="cls-2" d="M181.23,237.67h-14.26v-70.82c0-1.54,2.84-7.08,3.84-8.73,10.98-17.96,38.08-16.3,46.36,2.99.69,1.61,2.64,6.93,2.64,8.26v68.3h-15.1c.17-16.99,3.67-39.7-6.67-53.26l-.88-23.01h-8.39v22.21c0,1.95-4.56,6.17-5.65,8.6-3.41,7.55-2.15,35.65-1.9,45.46Z"/>
  <path class="cls-1" d="M158.58,163.08c1.85.43,4.12,2.3,3.27,4.52-.38.99-6.23,2.26-8.2,6.08-1.55,3-.05,3.8-.06,6.55-.05,15.92-.39,31.93-.07,47.84.07,3.39,2.31,19.7.03,21.33-1.92,1.37-4.7-5.1-5.89-6.25-4.98-4.82-11.11-6.38-17.93-5.4-5.58.8-11.33,8.13-8.09,13.59,2.85,4.8,21.52,9.41,26.08,14.37,3.03,3.29,7.86,12.95,7.36,17.41-.41,3.58-3.91,9.59-6.78,11.82-3.75,2.93-17.2,5.81-22.01,5.66-4.55-.14-9.64-4.19-14.72-3.81-5.65-1.89-1.98-11.82-3.31-16.38,4.43-.64,3.63,2.21,5.01,3.75,3.57,3.99,12.78,10.9,18.19,11.05,5.39.14,12.02-3.82,12.72-9.57.88-7.2-2.21-7.07-6.49-9.91-2.32-1.54-8.64-6.78-10.16-7.45-2.84-1.26-11.44-1.42-13.81-4.64-.3-.41-2.87-8.99-2.9-9.69-.05-1.2.8-7.65,1.15-8.79.13-.42,4.11-7.23,4.41-7.54,4.42-4.47,22.64-5.17,22.95-6.33.35-11.69.34-23.45.75-35.14.2-5.62,1.87-13.91,1.62-19.29-.17-3.6-7.17-7.36-5.61-12.36.42-1.33,1.38-1.59,2.34-2.25,4.31-2.96,10.68-.26,15.64.74,1.49.3,3.33-.17,4.49.1Z"/>
  <path class="cls-1" d="M181.23,237.67c-.25-9.81-1.51-37.9,1.9-45.46,1.1-2.43,5.65-6.65,5.65-8.6v-22.21h8.39s.88,23.01.88,23.01c10.34,13.56,6.83,36.27,6.67,53.26-.04,4.19.49,8.54-.84,12.57-6.98-.01-13.99-.01-20.97,0-2.31-3.97-1.56-8.21-1.68-12.57Z"/>
  <path class="cls-1" d="M135.67,74.82c-1.25,1.06-7.88,4.73-9.79,5.73-7.82,4.09-10.94,5.79-20.18,3.37-32.71-8.57-35.15-47.84-4.47-61.52,9.54-4.26,24.94-.99,33.07,5.3,2.26,1.75,9.68,14.61,10.04,17.62,1.01,8.27-2.02,23.91-8.67,29.51ZM100.47,26.66c-4.75.97-10.4,7.55-11.33,12.16-.45,2.21.24,18.39,1.04,19.54.59.85,2.8.82,3.86,2.01,1.71,1.91,4.79,9.45,7.5,12.62,4.32,5.06,7.94,6.13,14.59,5.35,10.88-1.27,21.29-10.17,19.62-21.9-1.13-7.92-4.59-10.58-8.07-16.28-1.75-2.86-2.74-6.14-4.34-9.07-6.56-.38-16.8-5.67-22.86-4.43Z"/>
  <path class="cls-1" d="M156.07,61.67c-.6-3.13,3.01-4.07,3.81-6.65,1.63-5.21-.89-9.31-1.22-13.96-.54-7.47-.51-15.65-1.15-23.14-.34-3.99-.71-8.44-3.92-11.17-1.55-1.31-4.5-1.25-4.23-3.72l30.64-2.56c9.06,1.35,22.29,8.44,25.15,17.63,1.18,3.81,2.1,15.69,1.97,19.75s-8.54,15.64-12.04,17.98c-10.18,6.8-27.26,3.67-39.01,5.86ZM169.98,43.53c3.01,5.29-2.97,12.63,6.48,12.79,10.01.17,15.26-3.84,18.6-13.09,3.8-10.51,3.96-18.73-1.66-28.51-2.4-4.18-8.9-9.81-13.64-10.71-1.67-.32-10.32.62-11.77,1.22-4.38,1.81-1.3,7.4-1,9.9.41,3.44-1.22,7.91-.9,9.94.1.59,1.92.48,2.36,2.81.94,4.98-.38,12.29,1.53,15.65Z"/>
  <path class="cls-1" d="M67.99,85.98c7.64-1.4,16.03-1.48,21.85,4.57,11.22,11.68-8.74,30.53-15.57,39.84-1.78.74-1.22-3.16-1.9-4.79-2.23-5.38-21.16-17.42-26.99-21.66-1.17-.85-1.41-2.25-2.33-2.9-1.04-.74-9.39-5.58-10.09-5.7-2.9-.48-4.2,1.76-6.91,1.53-1.5-1.41,5.74-7.58,6.71-8.79,6.44-8.1,9.3-16.76,20.93-18.48,4.63-.69,13.66,2.33,14.34,7.55.21,1.59-.38,8.51-.04,8.85ZM61.02,81.19c-2.77-3.45-9.09-6.12-13.57-5.25-2.2.43-8.21,7.7-8.03,9.57,2.81,4.23,13.37,14.75,18.53,10.13,3.25-2.91,6.09-10.69,3.07-14.45ZM83.37,97.42c-2.85-2.79-5.23-4.91-9.49-6.02-5.5-1.44-8.65.64-11.77,5.05-4.21,5.95.2,7.08,3.81,10.44,3.32,3.1,3.18,2.54,6.19,4.71,5.19,3.76,4.94,7.7,11.8.77,6.27-6.34,5.18-9.35-.54-14.95Z"/>
  <path class="cls-1" d="M292.22,39.33c-5.35,3.2-10.81,10.91-14,16.59-3.95,7.02-7.26,13.5-1.81,20.86,2.06,2.79,9.76,9.85,13.02,10.52,3.92.81,9.29-5.12,8.45-9.13-.09-.41-5.27-2.91-3.41-4.76.95-.95,16.12,9.35,16.61,10.2,2.26,3.91-3.88,4.8-5.76,6.08-2.28,1.56-4.49,5.27-4.99,8.01-11.65-5.22-27.34-9.83-32.02-22.89-11.58-32.26,27.05-60.68,53.41-34.09,1.09,1.1,8.58,12.33,8.65,13.11.16,1.68-6.73,11.14-7.8,11.17-3.73-4.26-.07-9.38-1.72-14.19-.48-1.41-10.31-11.88-11.65-12.66-4.73-2.72-12.46-1.53-16.97,1.17Z"/>
  <path class="cls-1" d="M246.65,161.4c.72,2.21,3.94,1.54,4.26,3.78.47,3.22-5.65,7.75-5.98,11.69l2.55,67.5h-15.1c-.48-22.06,1.67-43.81.17-65.79-.07-1.02.77-2.25.68-3.34-.4-4.44-14.38-8.54-5.87-11.33,2.47-.81,13.22-3.16,15.61-3.28,1.29-.07,2.46.5,3.68.77Z"/>
  <path class="cls-1" d="M47.85,298.01c-1.05,1.25-23.7.91-27.3.87-2-.02-3.78-.89-5.8-.91s-15.61,2.98-14.72-1.21c1.13-1.77,4.66-2.87,5.44-4.63.23-.53,1.99-10.64,1.98-11.33-.03-1.96-1.56-4.04-1.63-6.69-.14-5.85,1.47-13.88,1.61-19.24.06-2.38-.39-10.26-.76-12.55-.75-4.65-5.9-3.85-4.98-8.85,3.34-.28,6.29.94,9.66.9,2.23-.02,12.08-1.85,12.99-.9,1.66,1.72-2.92,3.81-3.82,4.98-1.68,2.17-3.73,16.39-3.8,19.8-.03,1.6,1.79.77,1.84,2.42.2,6.55-.43,7.8.7,15.16.7,4.54-2.55,11.07.49,14.6s15.62,3.67,19.94,2.37c4.02-1.21,2.49-9.81,8.14-8.21v13.41Z"/>
  <path class="cls-1" d="M264.28,21.44c-.2-.15-.7-3.23-1.68-4.62-3.7-5.19-5.93-4.76-10.84-6.76-2.74-1.12-7.09-5.85-8.91-.39l-4.62,18.87c3.23,5.45,10.05.62,14.3-1.23.93,3.14-1.47,5.2-2.11,7.52-.58,2.08-.31,4.36-1.17,6.38-2.32,5.48-3-.74-4.24-2.39-.86-1.14-6.68-5.67-8.03-5.66-3.03.04-1.66,4.19-2.24,6.11-1.22,4.03-3.52,9.31-3.97,13.69-.32,3.04.9,6.52,4.11,7.5.95.29,8.72,1.18,9.52,1.06,3.18-.47,7.52-7.78,9.39-7.39,1.07.23,1.28,1.64,1.11,2.74-.22,1.43-3.09,9.79-4.03,10.28l-37.75-10.1c-.82-3.16,2.78-1.97,4.99-3.39,3.49-2.24,5.73-15.26,7.15-19.67,1.28-3.97,2.1-7.99,3.4-11.69,1.91-5.47,5.18-7.24,3.73-14.67-.41-2.14-3.91-4.68-4.1-5.98-.64-4.36,8.85,1.24,10.83,1.77,4.21,1.13,9.16,1.29,13.44,2.5,3.5,2.36,12.78,2.91,14.48,6.51,1.14,2.43-.48,10.74-2.74,9.01Z"/>
  <path class="cls-1" d="M330.53,146.32c-2.5,2.7-9.49-12.08-10.9-13.4,8.22,1.71,9.61-3.96,13.56-8.71,1.81-2.18,6.83-6.41,6.43-9.12-.34-2.3-6.13-10.46-8.59-10.6-1.2-.07-14.09,2.53-15.37,3.07-4.28,1.83-2.75,8.86-6.44,7.69-1.27-.4-8.48-13.66-7.19-15.02,3.26-.38,6.01,3.08,8.88,3.34,10.11.93,35.79-3.56,46.51-6.25,2.18-.55,9.09-3.91,9.6-3.81,4.17.85-1.07,4.49-1.57,5.12-7.42,9.26-31.78,33.81-34.52,42.61-.52,1.68-.43,3.36-.38,5.07ZM351.35,101.24c-2.79.05-12.3,1.37-12.26,5.1.02,2.1,2.8,6.14,5.12,5.53.58-.15,9.09-6.93,9.41-7.44,1.29-2.07.06-3.23-2.28-3.19Z"/>
  <path class="cls-1" d="M182.9,250.24c6.98-.01,13.99-.01,20.97,0,17.32.03,34.69-.02,52.01,0v5.03h-124.99v-5.03c17.32-.01,34.68.03,52.01,0Z"/>
  <path class="cls-1" d="M187.77,293.13c1.69,2.92-2.9,5.46-5.37,5.71-2.85.28-5.04-1.82-7.42-1.65-1.45.1-2.73,1.4-4.3,1.63-6.35.95-9.61-2.48-9.28-8.65.53-9.92,13.55-8.95,14.73-18.64,1.28-10.52-7.02-1.82-12.51-2.85.2-8,9.95-9.83,16.18-6.52,5.26,2.79,4.1,15.02,3.99,20.39-.08,3.77-2.33,4.88.75,8.4.86.98,3.14,2.02,3.24,2.19ZM176.19,280.41c-5.63-.29-10.43,10.94-4.44,12.46,6.16,1.57,4.27-9,4.44-12.46Z"/>
  <path class="cls-1" d="M81.24,293.13c1.68,2.93-2.89,5.47-5.37,5.71-2.72.27-4.57-1.56-6.63-1.56-2.49,0-4.5,2.06-8.32,1.54-5.94-.81-6.07-4.45-5.52-9.61,1-9.34,13.02-8.14,14.19-17.68,1.28-10.52-7.02-1.82-12.51-2.85.59-8.08,9.85-9.88,16.18-6.52s3.67,20.57,3.23,26.87c.58,2.2,4.46,3.61,4.75,4.11ZM69.66,280.41c-5.63-.29-10.43,10.94-4.44,12.46,6.16,1.57,4.27-9,4.44-12.46Z"/>
  <path class="cls-1" d="M393.19,263.08c4.94,4.44-.94,24.53,3.65,28.63,1.56,1.4,4.65.57,3.2,4.07-2.21,5.34-9.57,1.51-12.12,1.41-2.06-.08-3.56,1.54-5.79,1.71-8.12.64-10.62-5.86-7.55-12.64,2.85-6.28,13.91-6.62,13.92-16.34.01-8.2-7.96.06-12.66-1.26-.24-8.24,12.04-10.37,17.35-5.59ZM382.79,283.16c-2.63,3.1-2.49,10.38,2.49,9.71,5.06-.69,3.71-12.72,1.43-12.1-.34.09-3.68,2.11-3.92,2.39Z"/>
  <path class="cls-1" d="M310.29,261.25c1.36.82.47,9.58.12,9.95-1.99,2.03-4.62-4.38-5.83-5.49-6.02-5.49-14.49.57-7.04,7.03,3.77,3.26,9.27,2.99,12.41,7.72,5.95,8.97-1.24,17.44-10.87,17.64-1.89.04-3.71-.86-5.08-.81-1.98.07-4.45,2.5-7.08,1.57,1.2-2.53-.82-10.85,1.26-11.72,2.8-1.18,3.2,4.67,5.19,5.9,4.03,2.5,11.73,1.98,12.01-3.89.3-6.48-9.13-6.07-12.56-8.34-.39-.26-4.5-5.1-4.63-5.42-3.39-7.97,3.51-14.29,10.99-14.99,1.37-.13,10.63.58,11.1.87Z"/>
  <path class="cls-1" d="M333.05,251.92c.13,7.02-2.14,11.44,7.09,10.04,3.16,5.89-6.64,3.38-7.12,5.59-1.23,5.66.53,13.06-.66,18.94.22,1.11,1.43,2.89,2.31,3.62,1.25,1.04,4.01.87,3.41,2.43-1.53,4-12.29,9.15-13.34,1.64-.83-5.97,1.97-23.61-.21-27.05-.94-1.48-4.66.25-5.78-.49-.91-.61-1.09-3.55-.81-3.84.35-.35,4.52.73,6.38-.76s.64-4.35,1.95-6.43c.69-1.09,6.14-4.39,6.77-3.71Z"/>
  <path class="cls-1" d="M243.3,291.72c.34,1.17,4.75,3.13,3.36,6.28l-15.47.85c-2.5-3.99,2.63-3.71,3.71-5.7.7-1.29.88-4.07.93-5.62.09-2.72.16-11.09-.27-13.23-.75-3.72-5.46-5.57-4.82-7.72.16-.54,9.31-5.19,9.85-5.32,1.78-.41,3.16.73,4.76.65,1.71-.08,3.41-1.59,4.97-1.44,6.13.62,6.17,10.54-.54,9.71-1.26-.15-6.47-6.46-6.47-1.11,0,4.71-.94,19.37,0,22.63Z"/>
  <path class="cls-1" d="M224,290.47c-.26,4.1-4.27,5.87-7.71,6.95-26.72,8.42-30.36-36.12-4.32-37.07,3.18-.12,9.58,1.96,8.57,6.05-1.39,5.6-9.57-.9-12.11-1.08-9.3-.64-9.47,21.62-.69,25.88,6.65,3.22,9.7-.14,16.26-.74Z"/>
  <path class="cls-1" d="M276.85,260.3c-.41,8.7-2.13,21.23-.79,29.7.49,3.1,4.42,5.45,4.14,6.74-.45,2.07-13.38,1.08-16.16,1.97-5.93-3.97,1.08-3.1,3.12-5.78,2.83-3.72.22-15.4,1.19-20.38-.68-1.91-5.22-1.03-4.06-4.67,2.38.54,11.83-8.4,12.55-7.58Z"/>
  <path class="cls-1" d="M362.41,261.14c-.15,7.15-2.75,24.46.19,30.4,1.12,2.26,4.07,3.09,3.17,6.47-3.94-1.25-13.32,1.65-16.22.72-5.38-1.71,3.22-5.43,3.7-6.1.98-1.34,1.3-18.25.67-20.07-.6-1.72-4.57-1.29-4.09-3.45.16-.73,11.77-8.81,12.57-7.97Z"/>
  <path class="cls-1" d="M361.37,244.17c-1.31,1.3-6.47,1.28-7.22.08-.45-.71-.29-5.02.24-5.8,2.29-3.31,11.77.94,6.98,5.72Z"/>
  <path class="cls-1" d="M269.84,237.79c6.48-2.15,9.37,4.78,4.48,6.98-7.22,3.25-7.15-6.1-4.48-6.98Z"/>
</svg>