<?xml version="1.0" encoding="UTF-8"?>
<svg id="Capa_1" data-name="Capa 1" xmlns="http://www.w3.org/2000/svg" viewBox="0 0 479.2 169.4">
  <defs>
    <style>
      .cls-1 {
        fill: #676766;
      }
    </style>
  </defs>
  <path class="cls-1" d="M40.69,131.14c-21.75,0-40.69-15.32-40.69-46.46s18.95-46.29,40.69-46.29c11.37,0,18.45,2.31,24.38,6.1l-8.41,19.27c-2.8-2.14-7.07-3.3-11.7-3.3-10.21,0-16.8,8.9-16.8,23.89s7.24,24.05,16.8,24.05c4.62,0,8.89-1.15,11.7-3.29l8.41,19.94c-5.93,3.95-13.02,6.09-24.38,6.09"/>
  <rect class="cls-1" x="168.35" width="27.18" height="129.16"/>
  <path class="cls-1" d="M354,61.45c-2.64-.99-6.42-1.65-10.05-1.65s-6.76.49-9.23,1.48v67.88h-27.19V44.81c9.89-3.78,22.91-6.42,38.55-6.42,5.27,0,9.72.5,12.85.99l-4.94,22.08Z"/>
  <path class="cls-1" d="M384.63,28.17c-8.23,0-14.99-6.26-14.99-14.01s6.76-14.17,14.99-14.17,15.16,6.42,15.16,14.17-6.92,14.01-15.16,14.01M371.13,40.36h27.18v88.8h-27.18V40.36Z"/>
  <path class="cls-1" d="M441.47,131.14c-11.87,0-23.56-3.13-30.15-6.42l8.57-20.43c4.28,2.64,14.82,5.6,20.76,5.6,6.26,0,10.21-2.96,10.21-7.41,0-5.1-4.94-7.24-11.37-9.55-10.54-3.79-25.87-9.23-25.87-27.36,0-16.63,12.69-27.18,34.44-27.18,12.19,0,21.74,2.64,28.83,6.42l-8.07,18.29c-3.63-2.14-11.53-4.94-17.13-4.94-6.43,0-10.22,2.97-10.22,7.25,0,5.43,4.94,7.57,11.53,9.88,10.88,3.79,26.2,8.73,26.2,27.35,0,17.46-12.52,28.5-37.73,28.5"/>
  <rect class="cls-1" x="7.2" y="149.81" width="3.35" height="19.26"/>
  <polygon class="cls-1" points="16.55 149.81 19.69 149.81 29.98 163.12 29.98 149.81 33.34 149.81 33.34 169.06 30.51 169.06 19.91 155.36 19.91 169.06 16.55 169.06 16.55 149.81"/>
  <polygon class="cls-1" points="39.11 149.81 42.25 149.81 52.54 163.12 52.54 149.81 55.9 149.81 55.9 169.06 53.07 169.06 42.47 155.36 42.47 169.06 39.11 169.06 39.11 149.81"/>
  <path class="cls-1" d="M70.87,169.4c-1.49,0-2.84-.26-4.07-.78-1.23-.53-2.28-1.24-3.17-2.14-.88-.9-1.57-1.95-2.07-3.15-.49-1.2-.74-2.48-.74-3.85v-.04c0-1.36.25-2.64.74-3.84.5-1.2,1.2-2.25,2.09-3.16.9-.91,1.97-1.63,3.19-2.16,1.23-.54,2.59-.8,4.08-.8s2.84.26,4.06.79c1.23.52,2.29,1.24,3.17,2.13.88.9,1.57,1.95,2.06,3.15.5,1.2.74,2.48.74,3.84v.06c0,1.35-.24,2.63-.74,3.84s-1.2,2.26-2.09,3.16c-.9.91-1.97,1.63-3.2,2.16-1.23.53-2.58.8-4.07.8M70.92,166.28c.95,0,1.82-.17,2.62-.53.79-.36,1.48-.84,2.04-1.46.56-.61,1-1.34,1.33-2.16.32-.83.48-1.71.48-2.65v-.04c0-.94-.15-1.83-.48-2.66-.32-.83-.76-1.55-1.34-2.17-.58-.61-1.26-1.11-2.07-1.47-.81-.37-1.68-.55-2.63-.55s-1.82.19-2.62.54c-.79.36-1.48.84-2.04,1.46-.57.62-1.01,1.33-1.33,2.16-.32.83-.48,1.71-.48,2.65v.06c0,.93.16,1.83.48,2.65.32.83.76,1.56,1.35,2.18.57.61,1.26,1.1,2.06,1.47.81.37,1.68.54,2.63.54"/>
  <polygon class="cls-1" points="84.24 149.81 87.98 149.81 93.78 164.61 99.57 149.81 103.22 149.81 95.22 169.2 92.24 169.2 84.24 149.81"/>
  <path class="cls-1" d="M114.17,149.67h3.15l8.47,19.39h-3.58l-1.95-4.65h-9.11l-1.98,4.65h-3.46l8.47-19.39ZM119.02,161.42l-3.34-7.7-3.3,7.7h6.63Z"/>
  <path class="cls-1" d="M138.88,169.4c-1.41,0-2.72-.25-3.9-.77-1.2-.51-2.23-1.21-3.1-2.11-.87-.89-1.57-1.93-2.06-3.15-.5-1.21-.75-2.51-.75-3.89v-.04c0-1.38.24-2.67.73-3.87.49-1.2,1.18-2.26,2.07-3.16.88-.9,1.93-1.62,3.14-2.15,1.21-.53,2.55-.79,4.02-.79.88,0,1.69.07,2.41.23.72.14,1.39.35,1.99.62.61.26,1.16.58,1.68.94.52.38.99.77,1.46,1.21l-2.17,2.5c-.78-.71-1.59-1.29-2.45-1.74-.86-.43-1.84-.66-2.94-.66-.91,0-1.77.19-2.55.54-.78.36-1.45.84-2.02,1.46-.57.62-1,1.33-1.32,2.16-.31.83-.47,1.7-.47,2.65v.06c0,.93.16,1.83.47,2.65.31.84.75,1.57,1.32,2.19.57.63,1.24,1.11,2.02,1.47.78.36,1.63.53,2.55.53,1.18,0,2.19-.22,3.02-.67.85-.45,1.68-1.06,2.51-1.83l2.17,2.2c-.5.54-1.01,1.01-1.55,1.43-.54.41-1.13.77-1.75,1.07-.62.3-1.3.53-2.05.68-.74.16-1.56.24-2.46.24"/>
  <rect class="cls-1" x="151.24" y="149.81" width="3.35" height="19.26"/>
  <path class="cls-1" d="M169.78,169.4c-1.48,0-2.85-.26-4.07-.78-1.23-.53-2.28-1.24-3.17-2.14-.88-.9-1.57-1.95-2.07-3.15-.49-1.2-.74-2.48-.74-3.85v-.04c0-1.36.25-2.65.74-3.84.5-1.2,1.2-2.25,2.1-3.16.9-.9,1.97-1.63,3.19-2.16,1.23-.54,2.58-.8,4.07-.8s2.84.26,4.07.79c1.23.52,2.28,1.24,3.16,2.13.88.9,1.57,1.95,2.06,3.15.5,1.2.75,2.48.75,3.84v.06c0,1.35-.25,2.63-.75,3.84-.49,1.2-1.18,2.26-2.09,3.16-.89.91-1.97,1.63-3.19,2.16-1.23.53-2.6.8-4.08.8M169.83,166.28c.95,0,1.83-.17,2.62-.53.79-.36,1.47-.84,2.04-1.46.57-.61,1.01-1.34,1.33-2.16.31-.82.48-1.71.48-2.65v-.04c0-.94-.17-1.83-.48-2.66-.31-.83-.76-1.55-1.34-2.17-.57-.62-1.26-1.11-2.07-1.47-.8-.37-1.67-.55-2.63-.55s-1.82.19-2.62.55c-.79.35-1.48.84-2.04,1.45-.57.62-1.01,1.33-1.33,2.16-.32.83-.48,1.7-.48,2.65v.06c0,.93.16,1.83.48,2.65.31.83.76,1.56,1.34,2.17.57.62,1.26,1.11,2.07,1.47.8.36,1.68.54,2.63.54M171.54,143.7l3.02,1.35-3.36,3.16h-2.58l2.92-4.51Z"/>
  <polygon class="cls-1" points="184.81 149.81 187.93 149.81 198.23 163.12 198.23 149.81 201.59 149.81 201.59 169.06 198.76 169.06 188.16 155.36 188.16 169.06 184.81 169.06 184.81 149.81"/>
  <path class="cls-1" d="M225.63,169.4c-1.49,0-2.84-.26-4.07-.78-1.23-.53-2.29-1.24-3.17-2.14-.88-.9-1.56-1.95-2.06-3.15-.49-1.2-.74-2.48-.74-3.85v-.04c0-1.36.24-2.64.74-3.84.5-1.2,1.19-2.25,2.09-3.16.9-.91,1.96-1.63,3.19-2.16,1.23-.54,2.58-.8,4.07-.8s2.84.26,4.07.79c1.23.52,2.28,1.24,3.16,2.13.89.9,1.57,1.95,2.07,3.15.49,1.2.74,2.48.74,3.84v.06c0,1.35-.24,2.63-.74,3.84-.5,1.2-1.2,2.26-2.09,3.16-.9.91-1.96,1.63-3.19,2.16-1.23.53-2.58.8-4.07.8M225.69,166.28c.95,0,1.82-.17,2.61-.53.8-.36,1.48-.84,2.05-1.46.56-.61,1.01-1.34,1.32-2.16.32-.83.48-1.71.48-2.65v-.04c0-.94-.15-1.83-.48-2.66-.32-.83-.77-1.55-1.35-2.17-.57-.61-1.26-1.11-2.06-1.47-.81-.37-1.68-.55-2.63-.55s-1.82.19-2.61.54c-.8.36-1.48.84-2.05,1.46-.56.62-1.01,1.33-1.33,2.16-.31.83-.48,1.71-.48,2.65v.06c0,.93.16,1.83.48,2.65.33.83.78,1.56,1.35,2.18.57.61,1.27,1.1,2.07,1.47.81.37,1.68.54,2.63.54"/>
  <path class="cls-1" d="M240.66,149.81h8.58c1.2,0,2.29.17,3.22.51.94.34,1.71.81,2.34,1.41.51.53.91,1.14,1.18,1.85.27.69.41,1.47.41,2.3v.06c0,.79-.11,1.49-.34,2.13-.23.63-.55,1.19-.95,1.68-.4.48-.88.9-1.43,1.24-.57.34-1.18.6-1.87.78l5.2,7.29h-3.99l-4.75-6.71h-4.25v6.71h-3.36v-19.26ZM248.98,159.35c1.21,0,2.17-.29,2.9-.87.72-.59,1.07-1.38,1.07-2.37v-.05c0-1.05-.35-1.85-1.05-2.39-.69-.55-1.68-.82-2.95-.82h-4.94v6.49h4.97Z"/>
  <polygon class="cls-1" points="266.1 152.94 259.99 152.94 259.99 149.8 275.62 149.8 275.62 152.94 269.51 152.94 269.51 169.06 266.1 169.06 266.1 152.94"/>
  <path class="cls-1" d="M289.21,169.4c-1.49,0-2.84-.26-4.07-.78-1.23-.53-2.29-1.24-3.16-2.14-.88-.9-1.57-1.95-2.06-3.15-.49-1.2-.74-2.48-.74-3.85v-.04c0-1.36.26-2.64.74-3.84.5-1.2,1.2-2.25,2.09-3.16.9-.91,1.97-1.63,3.19-2.16,1.23-.54,2.59-.8,4.07-.8s2.84.26,4.08.79c1.22.52,2.28,1.24,3.16,2.13.88.9,1.57,1.95,2.07,3.15.5,1.2.73,2.48.73,3.84v.06c0,1.35-.23,2.63-.73,3.84-.5,1.2-1.2,2.26-2.09,3.16-.91.91-1.97,1.63-3.2,2.16-1.23.53-2.58.8-4.07.8M289.28,166.28c.94,0,1.83-.17,2.62-.53.79-.36,1.48-.84,2.04-1.46.57-.61,1.01-1.34,1.33-2.16.31-.83.48-1.71.48-2.65v-.04c0-.94-.17-1.83-.48-2.66-.32-.83-.76-1.55-1.34-2.17-.58-.61-1.26-1.11-2.06-1.47-.81-.37-1.69-.55-2.64-.55s-1.82.19-2.61.54c-.8.36-1.48.84-2.04,1.46-.57.62-1.01,1.33-1.33,2.16-.31.83-.48,1.71-.48,2.65v.06c0,.93.17,1.83.48,2.65.32.83.76,1.56,1.34,2.18.57.61,1.26,1.1,2.07,1.47.81.37,1.68.54,2.63.54"/>
  <path class="cls-1" d="M304.24,149.81h7.59c1.12,0,2.14.15,3.05.45.9.3,1.67.74,2.31,1.3.63.57,1.11,1.25,1.45,2.04.35.78.52,1.67.52,2.64v.06c0,1.08-.21,2.03-.61,2.84-.41.82-.95,1.5-1.66,2.05-.7.55-1.52.97-2.45,1.25-.94.28-1.93.42-3.01.42h-3.83v6.19h-3.35v-19.26ZM311.54,159.82c1.29,0,2.31-.33,3.05-.96.75-.65,1.12-1.47,1.12-2.49v-.05c0-1.14-.38-2-1.13-2.58-.75-.58-1.76-.87-3.04-.87h-3.95v6.96h3.95Z"/>
  <path class="cls-1" d="M323.45,149.81h8.58c1.21,0,2.28.17,3.22.51.93.34,1.72.81,2.34,1.41.52.53.91,1.14,1.18,1.85.28.69.42,1.47.42,2.3v.06c0,.79-.12,1.49-.34,2.13-.23.63-.55,1.19-.95,1.68-.4.48-.88.9-1.45,1.24-.56.34-1.18.6-1.86.78l5.2,7.29h-3.99l-4.74-6.71h-4.26v6.71h-3.35v-19.26ZM331.77,159.35c1.22,0,2.18-.29,2.9-.87.72-.59,1.07-1.38,1.07-2.37v-.05c0-1.05-.35-1.85-1.05-2.39-.7-.55-1.68-.82-2.95-.82h-4.95v6.49h4.97Z"/>
  <path class="cls-1" d="M353.34,169.4c-1.48,0-2.84-.26-4.06-.78-1.23-.53-2.29-1.24-3.17-2.14-.88-.9-1.56-1.95-2.06-3.15-.49-1.2-.74-2.48-.74-3.85v-.04c0-1.36.25-2.64.74-3.84.5-1.2,1.2-2.25,2.09-3.16.9-.91,1.96-1.63,3.19-2.16,1.23-.54,2.58-.8,4.07-.8s2.85.26,4.08.79c1.22.52,2.28,1.24,3.15,2.13.88.9,1.58,1.95,2.07,3.15.5,1.2.74,2.48.74,3.84v.06c0,1.35-.25,2.63-.74,3.84-.49,1.2-1.2,2.26-2.09,3.16-.9.91-1.97,1.63-3.19,2.16-1.24.53-2.59.8-4.08.8M353.4,166.28c.95,0,1.83-.17,2.62-.53.79-.36,1.48-.84,2.04-1.46.56-.61,1-1.34,1.32-2.16.32-.83.48-1.71.48-2.65v-.04c0-.94-.16-1.83-.48-2.66-.32-.83-.77-1.55-1.34-2.17-.58-.61-1.26-1.11-2.07-1.47-.8-.37-1.68-.55-2.64-.55s-1.82.19-2.61.54c-.79.36-1.47.84-2.04,1.46-.57.62-1,1.33-1.33,2.16-.32.83-.48,1.71-.48,2.65v.06c0,.93.16,1.83.48,2.65.32.83.76,1.56,1.35,2.18.57.61,1.25,1.1,2.06,1.47.8.37,1.69.54,2.63.54"/>
  <polygon class="cls-1" points="373.1 152.94 367 152.94 367 149.8 382.63 149.8 382.63 152.94 376.52 152.94 376.52 169.06 373.1 169.06 373.1 152.94"/>
  <path class="cls-1" d="M387.03,149.81h14.25v3.06l-10.9-.06v5h9.66v3.05l-9.66-.02v5.17h11.04v3.05h-14.39v-19.26ZM395.09,143.7l3.03,1.35-3.36,3.16h-2.58l2.91-4.51Z"/>
  <path class="cls-1" d="M413.06,169.35c-1.49,0-2.91-.26-4.27-.76-1.35-.5-2.61-1.28-3.76-2.33l2.03-2.42c.93.82,1.88,1.43,2.83,1.86.96.42,2.04.65,3.25.65,1.05,0,1.87-.22,2.49-.66.61-.44.92-1.03.92-1.76v-.06c0-.34-.06-.65-.18-.92-.12-.26-.34-.52-.67-.76-.32-.24-.76-.46-1.32-.66-.56-.2-1.29-.4-2.19-.61-1.03-.23-1.94-.5-2.74-.82-.8-.3-1.47-.66-2.01-1.09-.54-.44-.96-.96-1.24-1.58-.29-.63-.43-1.38-.43-2.26v-.06c0-.83.17-1.58.49-2.27.32-.69.77-1.28,1.35-1.76.57-.48,1.26-.87,2.07-1.13.8-.28,1.68-.42,2.63-.42,1.42,0,2.69.2,3.81.61,1.13.42,2.19,1.01,3.18,1.8l-1.82,2.56c-.88-.65-1.75-1.14-2.61-1.48-.87-.33-1.73-.5-2.62-.5-1,0-1.76.21-2.32.66-.54.43-.82.98-.82,1.62v.05c0,.37.06.69.19.98.13.28.37.54.7.78.34.23.81.44,1.41.65.6.2,1.35.41,2.27.63,1.01.26,1.91.54,2.69.85.78.32,1.43.7,1.94,1.15.52.45.91.97,1.18,1.57.26.6.4,1.29.4,2.08v.05c0,.91-.17,1.71-.51,2.42-.34.71-.8,1.33-1.4,1.82-.61.5-1.32.87-2.17,1.13-.84.26-1.76.39-2.78.39"/>
  <rect class="cls-1" x="424.92" y="149.81" width="3.36" height="19.26"/>
  <path class="cls-1" d="M443.23,169.4c-1.4,0-2.71-.25-3.9-.77-1.2-.51-2.23-1.21-3.1-2.11-.88-.89-1.56-1.93-2.06-3.15-.5-1.21-.75-2.51-.75-3.89v-.04c0-1.38.24-2.67.73-3.87.5-1.2,1.18-2.26,2.07-3.16.88-.9,1.94-1.62,3.14-2.15,1.21-.53,2.55-.79,4.01-.79.88,0,1.68.07,2.41.23.72.14,1.39.35,1.99.62.6.26,1.16.58,1.67.94.52.38,1.01.77,1.46,1.21l-2.17,2.5c-.77-.71-1.58-1.29-2.45-1.74-.86-.43-1.85-.66-2.95-.66-.91,0-1.76.19-2.54.54-.78.36-1.45.84-2.02,1.46-.57.62-1,1.33-1.32,2.16-.31.83-.47,1.7-.47,2.65v.06c0,.93.16,1.83.47,2.65.32.84.75,1.57,1.32,2.19.57.63,1.24,1.11,2.02,1.47.78.36,1.63.53,2.54.53,1.18,0,2.19-.22,3.03-.67.85-.45,1.68-1.06,2.5-1.83l2.17,2.2c-.5.54-1.01,1.01-1.55,1.43-.54.41-1.12.77-1.75,1.07-.62.3-1.3.53-2.04.68-.74.16-1.57.24-2.47.24"/>
  <path class="cls-1" d="M462.22,149.67h3.13l8.47,19.39h-3.57l-1.95-4.65h-9.11l-1.98,4.65h-3.46l8.47-19.39ZM467.07,161.42l-3.33-7.7-3.3,7.7h6.63Z"/>
  <path class="cls-1" d="M250.47,19.72c3.82-2.45,5.08-7.35,2.78-10.94-2.3-3.59-7.27-4.51-11.09-2.06-3.84,2.45-5.07,7.36-2.78,10.94,2.29,3.59,7.26,4.51,11.1,2.06"/>
  <path class="cls-1" d="M284.89,37.65c5.73-.08,10.32-5.11,10.23-11.23-.08-6.13-4.81-11.02-10.54-10.94-5.74.08-10.32,5.11-10.23,11.24.08,6.12,4.8,11.01,10.54,10.94"/>
  <path class="cls-1" d="M230.3,32.57c3.01-1.92,3.98-5.76,2.17-8.58-1.79-2.82-5.69-3.54-8.7-1.61-3,1.92-3.98,5.76-2.17,8.57,1.8,2.82,5.69,3.54,8.7,1.62"/>
  <path class="cls-1" d="M240.27,57.49c-9.55,0-16.97,6.59-17.13,21.26l31.3-3.96c0-11.2-5.44-17.3-14.17-17.3"/>
  <path class="cls-1" d="M248.46,38.56c-.75,0-1.47.07-2.21.11,22.42,2.24,34.38,18.75,34.38,41.4,0,2.8,0,5.44-.33,8.24l-55.36,7.25c2.14,9.72,10.55,14.5,21.58,14.5,8.9,0,18.45-2.14,25.04-5.44l4.78,12.67c-8.14,7.6-19.08,12.57-31.28,13.35,1.12.08,2.24.16,3.39.16,13.05,0,24.87-4.79,33.67-12.57.07-.06.14-.13.21-.19.61-.54,1.22-1.1,1.8-1.68.12-.11.22-.22.33-.34.82-.82,1.6-1.68,2.34-2.55.37-.42.72-.83,1.07-1.26.23-.29.44-.59.67-.88.43-.57.85-1.14,1.25-1.72.17-.23.32-.47.48-.71.47-.71.93-1.45,1.36-2.2.08-.12.15-.24.22-.36,3.68-6.45,5.8-13.82,5.8-21.65,0-25.46-22.03-46.11-49.2-46.11"/>
  <path class="cls-1" d="M117.97,131.12c12.2-.43,23.07-6,30.98-14.19l-4.64-12.31c-6.58,3.29-16.14,5.44-25.04,5.44-11.03,0-19.44-4.77-21.58-14.5l55.36-7.25c.33-2.8.33-5.44.33-8.25,0-24.38-13.83-41.68-39.71-41.68s-42.5,19.11-42.5,46.3,15.16,46.46,45.96,46.46c.28,0,.57-.02.84-.02M113.01,57.49c8.73,0,14.17,6.1,14.17,17.3l-31.31,3.96c.17-14.66,7.58-21.26,17.14-21.26"/>
</svg>