<?xml version="1.0" encoding="UTF-8"?>
<svg id="Capa_1" data-name="Capa 1" xmlns="http://www.w3.org/2000/svg" viewBox="0 0 538.35 73.34">
  <defs>
    <style>
      .cls-1 {
        fill: #676766;
      }
    </style>
  </defs>
  <g>
    <path class="cls-1" d="M0,37.94v-.19C0,18.28,14.55,2.16,34.41,2.16c11.4,0,18.58,3.93,25.26,9.63.49.49.99,1.18.99,2.07,0,1.37-1.28,2.56-2.66,2.56-.69,0-1.37-.3-1.77-.69-5.7-5.21-12.29-8.94-21.92-8.94-16.51,0-29,13.47-29,30.77v.2c0,17.4,12.68,30.96,29.1,30.96,9.34,0,15.93-3.34,22.41-9.53.39-.4.98-.79,1.77-.79,1.28,0,2.46,1.18,2.46,2.46,0,.79-.39,1.38-.79,1.77-6.98,6.49-14.55,10.72-26.05,10.72C14.55,73.34,0,57.71,0,37.94Z"/>
    <path class="cls-1" d="M94.77,73.34c-13.17,0-24.57-10.52-24.57-26.15v-.2c0-14.55,10.22-26.15,23.79-26.15s23,11.6,23,25.95c0,1.18-1.18,2.26-2.35,2.26h-39.33c.89,12.48,9.83,19.76,19.66,19.76,7.18,0,12.19-2.95,16.22-6.88.4-.4.88-.69,1.58-.69,1.28,0,2.35.98,2.35,2.26,0,.49-.2,1.08-.79,1.67-4.91,4.92-10.52,8.16-19.56,8.16ZM111.78,44.73c-.69-10.12-6.49-19.47-17.99-19.47-9.93,0-17.6,8.36-18.48,19.47h36.48Z"/>
    <path class="cls-1" d="M131.05,24.09c0-1.38.99-2.46,2.36-2.46s2.46.98,2.46,2.46v7.27c3.34-5.9,8.94-10.52,18.08-10.52,12.68,0,20.06,8.65,20.06,20.64v28.61c0,1.48-.98,2.46-2.36,2.46s-2.46-.98-2.46-2.46v-27.72c0-10.32-5.8-17.11-15.92-17.11s-17.4,7.47-17.4,17.89v26.93c0,1.48-.99,2.46-2.36,2.46s-2.46-.98-2.46-2.46V24.09Z"/>
    <path class="cls-1" d="M193.97,59.28V26.45h-5.41c-1.18,0-2.26-1.08-2.26-2.26s1.08-2.16,2.26-2.16h5.41v-13.96c0-1.38.98-2.46,2.36-2.46s2.46,1.08,2.46,2.46v13.96h15.73c1.18,0,2.26,1.08,2.26,2.26s-1.08,2.16-2.26,2.16h-15.73v32.34c0,7.18,4.23,9.73,10.03,9.73,3.44,0,5.02-.99,5.7-.99,1.08,0,2.16.99,2.16,2.17,0,.98-.59,1.67-1.57,2.06-1.97.69-4.23,1.28-7.08,1.28-7.77,0-14.06-4.23-14.06-13.76Z"/>
    <path class="cls-1" d="M230.64,24.09c0-1.38.98-2.46,2.36-2.46s2.46.98,2.46,2.46v12.19c4.33-9.73,13.08-15.04,20.15-15.04,1.48,0,2.56,1.18,2.56,2.65,0,1.37-.98,2.56-2.56,2.66-10.62.98-20.15,8.95-20.15,25.06v18.48c0,1.37-.98,2.46-2.36,2.46s-2.46-.98-2.46-2.46V24.09Z"/>
    <path class="cls-1" d="M263.37,57.61v-.2c0-10.42,8.95-16.32,21.92-16.32,6.98,0,11.8.88,16.62,2.16v-2.16c0-10.13-6.2-15.34-16.52-15.34-5.51,0-10.13,1.38-14.25,3.35-.39.19-.79.29-1.08.29-1.18,0-2.26-1.08-2.26-2.26s.88-1.96,1.38-2.16c5.11-2.26,10.12-3.73,16.52-3.73,6.78,0,12.19,1.86,15.82,5.51,3.34,3.34,5.11,7.96,5.11,14.15v29.2c0,1.48-.98,2.46-2.36,2.46s-2.35-.98-2.35-2.46v-6.29c-3.44,4.82-9.63,9.54-19.17,9.54s-19.37-5.31-19.37-15.73ZM302.01,53.38v-5.7c-4.22-1.08-9.83-2.26-17-2.26-10.62,0-16.52,4.72-16.52,11.7v.2c0,7.27,6.88,11.5,14.55,11.5,10.22,0,18.97-6.29,18.97-15.44Z"/>
    <path class="cls-1" d="M324.62,2.46c0-1.38.98-2.46,2.36-2.46s2.46,1.08,2.46,2.46v67.63c0,1.48-.98,2.46-2.36,2.46s-2.46-.98-2.46-2.46V2.46Z"/>
  </g>
  <g>
    <path class="cls-1" d="M349.4,5.9c0-1.38,1.18-2.56,2.55-2.56h43.94c1.28,0,2.36,1.08,2.36,2.36s-1.08,2.36-2.36,2.36h-41.39v28.22h36.97c1.28,0,2.36,1.08,2.36,2.36s-1.08,2.36-2.36,2.36h-36.97v29c0,1.38-1.18,2.55-2.56,2.55s-2.55-1.18-2.55-2.55V5.9Z"/>
    <path class="cls-1" d="M401.8,68.82l29.4-63.7c.69-1.48,1.67-2.46,3.44-2.46h.2c1.77,0,2.75.98,3.44,2.46l29.29,63.5c.29.59.4,1.08.4,1.57,0,1.27-1.08,2.36-2.46,2.36-1.18,0-2.06-.89-2.56-1.97l-8.06-17.69h-40.6l-8.06,17.79c-.49,1.18-1.28,1.87-2.46,1.87-1.28,0-2.36-.98-2.36-2.16,0-.39.1-.99.39-1.57ZM452.72,48.27l-18.09-39.82-18.19,39.82h36.27Z"/>
    <path class="cls-1" d="M483.79,5.9c0-1.38,1.18-2.56,2.55-2.56h25.85c7.77,0,14.06,2.26,17.89,6.1,2.85,2.85,4.42,6.48,4.42,10.81v.19c0,9.34-6.09,14.06-11.7,16.32,8.26,2.16,15.53,6.89,15.53,16.42v.2c0,11.5-9.83,18.78-24.67,18.78h-27.33c-1.38,0-2.55-1.18-2.55-2.56V5.9ZM511.61,35.1c10.32,0,17.7-5.02,17.7-14.15v-.2c0-7.57-6.19-12.69-17.21-12.69h-23.19v27.03h22.71ZM513.87,67.44c11.8,0,19.27-5.41,19.27-14.06v-.2c0-8.45-7.37-13.37-20.94-13.37h-23.29v27.63h24.96Z"/>
  </g>
</svg>