<?xml version="1.0" encoding="UTF-8"?>
<svg id="Capa_1" data-name="Capa 1" xmlns="http://www.w3.org/2000/svg" viewBox="0 0 396.45 346">
  <defs>
    <style>
      .cls-1 {
        fill: #676766;
      }
    </style>
  </defs>
  <g>
    <g>
      <path class="cls-1" d="M208.03.34c2.75,1.65,5.06,2.5,8.17,2.97,5.03.76,8.91.6,13.04,4.44,8.84,8.23,7.43,27.74,7.34,39.25-.13,17.19-.28,34.94-1.12,52.06-.35,7.16-1.62,14.19-1.93,21.36-.41,9.6-.13,19.33-2.47,28.7-.96,3.83-3.35,10.9-5.77,13.81-3.42,4.11-12.74,6.52-17.66,7.85-.27.07-.56.04-.72.36h-1.61c-.27-.48-.69-.4-1.01-.93-1.16-1.94-.48-7.4-.44-9.74.21-12.23.62-24.47.81-36.7.46-30.49-.26-61.11.48-91.58.16-6.46.86-13.5.49-19.95-.15-2.7-1.83-9.37.07-11.38.21-.22.56-.25.73-.52h1.61ZM213.7,11.83c-.11,2.49-.09,5-.17,7.49-.8,24.19-.81,48.27-.66,72.52.15,22.69-.25,45.26-.96,67.92-.02.51-.41.92.1,1.31,1.49,1.16,4.53.81,6.02-.26,3.8-2.73,5.48-13.94,6.25-18.75,1.8-11.17,1.98-22.03,2.63-33.29.77-13.11,2.04-26.22,1.77-39.34-.16-7.6.06-15.17.16-22.78.12-8.54,1.07-21.9-2.93-29.42-2.64-4.95-7.17-6.54-12.21-5.4Z"/>
      <path class="cls-1" d="M323.03,160.35v2.65c-.75,2.41-3.47,3.55-5.54,2.44-2.82-1.52-5.42-8.9-6.52-12.12-2.58-7.55-3.69-15.36-5.73-23.06-.89-3.37-2.02-6.68-2.94-10.04-.28.19-.2.5-.25.78-.81,4.08-.66,7.93-.79,12.04-.28,8.82-.4,17.68-.82,26.5-.15,3.11.22,7.31-2.86,8.88-1.41.72-2.71.98-3.98-.13-.73-.63-1.29-1.53-1.38-2.55-.28-3.16.24-7.36.34-10.61.43-14.94,1.14-29.95,1.29-44.91.33-31.53-1.88-63.11-.33-94.59.17-3.41-.26-9.6,1.85-12.11,2.38-2.82,9.48-2.57,12.7-1.89,9.41,1.97,12.18,7.67,12.55,17.71.34,9.13.2,18.28.31,27.42.16,13.2.75,26.98.17,40.13-.31,7.2-2.8,19.68-7.99,24.47-1.52,1.4-3.92,2.28-3.47,5.05,3.19,12.03,4.91,25.69,10.03,36.92,1.08,2.36,2.58,4.5,3.37,7ZM302.07,109.26c7.57-.86,9.14-8.59,10.13-15.5,1.81-12.62,1-25.45.84-38.16-.08-6.03-.25-12.16-.34-18.19s.22-12.6-.16-18.57c-.22-3.46-1.48-7.55-4.24-9.5-2.28-1.62-5.14-1.4-6.21,1.58-1.71,13.74-1.05,27.54-.85,41.34.2,13.91.65,27.82.82,41.71.06,5.1-.06,10.2,0,15.3Z"/>
      <path class="cls-1" d="M166.44,118.22l-.02,22.84.34,4.57c-.24,5.71.73,11.82.32,17.48-.33,4.55-4.44,8.13-7.67,3.79-1.46-1.97-1.5-4.57-1.85-6.97-.4-24.38-.1-48.84,0-73.21.07-15.65-.36-31.7.15-47.3.29-9.09,2.97-27.08,9.28-33.43,9.58-9.65,23.14-5.35,26.49,8.26,1.36,5.54,1.49,13.66,1.82,19.54.25,4.57.5,9.2.65,13.75.47,13.65-.45,26.66-.97,40.24-.59,15.28-.74,30.61-1.46,45.87-.35,7.45-1.03,14.8-1.12,22.23-.03,2.54-.32,8.12-1.46,10.24-1.41,2.64-5.57,2.94-6.65-.15-.43-1.24-.27-1.7-.29-2.85-.13-9.57.53-19.18.95-28.77l.74-16.67c-.12-.18-.31-.16-.49-.18-3.25-.39-7.96.04-11.3.18-2.5.11-5.01.12-7.48.55ZM185.92,110.24c.31-.29.15-4.72.17-5.55.31-11.29.62-22.59.98-33.87.31-9.73.93-19.53.32-29.29-.22-3.47-.68-6.95-.97-10.41-.49-5.97.24-15.9-5.01-19.39-8.62-5.73-10.52,3.88-12.01,10.83-2.3,10.77-2.85,20.3-2.99,31.31-.15,11.75,0,23.58.01,35.29,0,7.21-.02,14.42,0,21.62l19.5-.55Z"/>
      <path class="cls-1" d="M82.56,118.22l-.02,22.84.34,4.57c-.24,5.71.73,11.82.32,17.48-.33,4.55-4.44,8.13-7.67,3.79-1.46-1.97-1.5-4.57-1.85-6.97-.4-24.38-.1-48.84,0-73.21.07-15.65-.36-31.7.15-47.3.29-9.09,2.97-27.08,9.28-33.43,9.58-9.65,23.14-5.35,26.49,8.26,1.36,5.54,1.49,13.66,1.82,19.54.25,4.57.5,9.2.65,13.75.47,13.65-.45,26.66-.97,40.24-.59,15.28-.74,30.61-1.46,45.87-.35,7.45-1.03,14.8-1.12,22.23-.03,2.54-.32,8.12-1.46,10.24-1.41,2.64-5.57,2.94-6.65-.15-.43-1.24-.27-1.7-.29-2.85-.13-9.57.53-19.18.95-28.77l.74-16.67c-.12-.18-.31-.16-.49-.18-3.25-.39-7.96.04-11.3.18-2.5.11-5.01.12-7.48.55ZM102.05,110.24c.31-.29.15-4.72.17-5.55.31-11.29.62-22.59.98-33.87.31-9.73.93-19.53.32-29.29-.22-3.47-.68-6.95-.97-10.41-.49-5.97.24-15.9-5.01-19.39-8.62-5.73-10.52,3.88-12.01,10.83-2.3,10.77-2.85,20.3-2.99,31.31-.15,11.75,0,23.58.01,35.29,0,7.21-.02,14.42,0,21.62l19.5-.55Z"/>
      <path class="cls-1" d="M136.72,51.44c-.73-.37-3.39,1.32-3.93,1.8-1.67,1.5-2.54,6.2-2.82,8.27s-.2,3.99-.32,5.99c-.75,12.43-1.19,24.9-1.13,37.36.02,3.92-.79,10.97,1.26,14.35,2.26,3.74,10.19,5.44,13.39,8.72,3.45,3.54,3.23,7.96,3.41,12.22.26,6.04,1.17,15.95-2.11,21.33-3.79,6.21-10.06,7.83-18.04,5.36-8.2-2.55-9.69-7.36-9.2-14.07.18-2.49.59-5.25,4.29-5.65,4.9-.53,3.44,3.48,3.29,5.91-.23,4.02,1.76,8.28,7.35,8.77,4.47.39,5.97-4.54,6.2-7.34.42-5.19.43-14.54-1.22-19.47-2.03-6.07-10.29-6.62-14.18-11.34-4.79-5.82-2.08-12.47-3.17-18.93v-11.73c0-.31.16-.59.17-.9.27-8.27.6-16.61,1.12-24.88.47-7.55,1.69-23.15,15.07-22.31,10.45.66,10.75,8.54,11.39,15.15,1.15,11.75.48,23.28-.65,35.02-.18,1.88-.32,4.01-.65,5.86-.24,1.37-.5,2.88-2.38,3.29-1,.22-3.55.17-4.38-.3-1.38-.78-1.19-2.8-1.14-4.03.08-2.12.5-4.27.64-6.38.68-9.95.65-19.98.16-29.94-.12-2.37-.03-4.5-.5-6.88-.15-.73-1.42-5.01-1.93-5.27Z"/>
      <path class="cls-1" d="M264.29.41c5.36-.58,11.42,2.57,14.36,7.5,3.61,6.05,3.64,16.33,4.06,23.48.72,12.22,1.36,25.07.81,37.3-.13,2.82-.51,5.67-.64,8.49-.8,16.84-1,33.71-1.62,50.55-.34,9.3-.19,27.58-5.64,34.83-3.89,5.17-11.17,7.71-17.06,5.8-10.36-3.37-13.66-13.22-13.59-24.19.19-31.58-.07-63.31.34-94.92.11-8.85-.1-16.28,1.69-25.03,2.08-10.22,6.21-22.62,17.31-23.81ZM263.48,9.77c-2.73.43-4.35,3.84-5.13,6.4-3.05,9.98-3.93,21.03-4.18,31.48-.45,19.01-.21,38.08-.16,57.09.03,12.69-.33,25.55.15,38.2.24,6.25.38,14.77,7.11,16.96,9.13,2.98,10.58-10.47,10.97-17.13,1.49-25.66,1.78-51.55,2.57-77.27.01-.42.16-.8.17-1.22.41-14.28-.08-28.76-1.62-42.97-.39-3.56-1.15-7.46-3.98-9.61-1.52-1.15-4.04-2.22-5.9-1.93Z"/>
    </g>
    <g>
      <path class="cls-1" d="M125.9,25.71h4.38c.68-.02,1.35,0,2.01.05.18.03.35.11.53.23.18.12.28.24.33.36.02.14-.02.28-.12.44-.1.16-.21.28-.35.37-.39.2-.84.3-1.35.3h-7.17v8.02h6.58c.68-.02,1.35,0,2.01.08.2.03.4.12.59.27.2.14.33.3.4.47.02.1-.05.23-.23.38s-.36.27-.56.36c-1.14.39-2.31.49-3.52.3-.44-.03-.88-.06-1.32-.08h-5.63c-.48,0-.97-.03-1.45-.08-.46-.05-.8-.16-1.02-.33s-.32-.49-.3-.96c.15-1.97.24-3.96.26-5.95.02-.96.05-1.92.1-2.89.02-.73.07-1.44.13-2.15.07-.98.11-1.96.13-2.94.07-5.86.1-11.71.1-17.57-.02-.86-.13-1.71-.33-2.56-.13-.67.02-1.19.44-1.53.43-.35,1.06-.4,1.89-.16,1.95.47,3.92.63,5.89.48.92-.03,1.84-.03,2.76,0,.2,0,.4-.02.59-.08.2-.03.38-.05.56-.05h.23c.7,0,1.38.08,2.04.23.18.05.32.16.44.33.12.17.18.33.18.48,0,.12-.09.24-.28.37-.19.13-.37.21-.54.27-.79.12-1.59.17-2.4.15-1.76.02-3.53.02-5.33,0h-2.17v23.39h1.48Z"/>
      <path class="cls-1" d="M143.57,8.14c.02,4.07.01,8.14-.03,12.23-.07,2.55-.16,5.1-.3,7.65-.07,1.27-.12,2.54-.16,3.82-.02.32-.02.64,0,.96,0,.44-.01.88-.03,1.32-.04.71.37,1.07,1.25,1.09.59.03,1.18.07,1.78.1.83.03,1.67.08,2.5.15.15,0,.32,0,.49.02.39-.02.76.02,1.1.11.34.09.54.31.61.65.02.44-.18.73-.61.87-.43.14-.87.23-1.33.27-.86.07-1.72.07-2.6,0-.88-.05-1.76-.11-2.63-.18-1.01-.07-2.02-.13-3.03-.18-.68-.03-1.14-.14-1.38-.33-.24-.19-.34-.55-.3-1.09.04-1.69.1-3.38.16-5.06.15-3.85.27-7.71.36-11.57.02-1.82,0-3.65-.07-5.49-.04-1.4-.08-2.8-.1-4.2.02-2.26.08-4.53.16-6.81.02-.39.04-.78.07-1.16,0-.08.02-.17.07-.27.04-.09.09-.17.15-.24.05-.07.12-.11.18-.13.94-.17,1.88-.23,2.8-.18.18.03.35.15.51.35.16.2.28.41.35.61.09.32.11.67.07,1.04-.02.15-.03.3-.03.46h-.03c0,1.72.01,3.45.03,5.19Z"/>
    </g>
    <g>
      <path class="cls-1" d="M186.74,194.87c-.13,2.99-.31,5.98-.53,8.96-.09.76-.25,1.51-.49,2.25-.18.59-.32,1.18-.43,1.77-.09.62-.13,1.25-.13,1.87-.02.66-.08,1.3-.16,1.92-.26,2.45-1.54,4.48-3.82,6.1-.99.51-2.14.83-3.46.99-.24.05-.49.1-.76.15-1.71.32-3.44.56-5.2.71-.83.1-1.38.05-1.63-.17-.25-.21-.35-.64-.28-1.3.02-.47.04-.95.07-1.42.24-3.63.41-7.26.49-10.89.04-2.26.04-4.52,0-6.78-.02-2.09-.02-4.19,0-6.28.04-1.43.13-2.87.26-4.3.09-1.11.15-2.22.2-3.32,0-.42-.08-.84-.23-1.24-.09-.25-.15-.51-.2-.76-.11-.89.4-1.29,1.51-1.19.46.07.92.16,1.38.28.46.12.92.2,1.38.25.72.07,1.46.12,2.2.15.68.02,1.37.06,2.07.13,5.27.37,7.88,2.58,7.83,6.63v2h.07c-.07,1.16-.12,2.32-.16,3.47ZM179.11,216.04c.9-1.48,1.55-3.05,1.94-4.68.31-1.23.52-2.48.63-3.75.04-.52.1-1.05.16-1.57.09-.62.18-1.26.26-1.9.28-1.79.53-3.59.72-5.39.04-.54.02-1.09-.07-1.65-.04-.4-.07-.81-.07-1.22.02-.81.05-1.62.1-2.43.11-1.43.13-2.85.07-4.25-.09-3.56-2.7-5.13-7.83-4.71-.44,5.28-.58,10.58-.43,15.9.18,5.67-.01,11.35-.56,17.04,2.37.47,4.06,0,5.07-1.39Z"/>
      <path class="cls-1" d="M195.38,207.41h4.38c.68-.02,1.35,0,2.01.05.18.03.35.11.53.23.17.12.28.24.33.36.02.14-.02.28-.12.44-.1.16-.21.28-.35.37-.4.2-.84.3-1.35.3h-7.17v8.02h6.58c.68-.02,1.35,0,2.01.08.2.03.4.12.59.27.2.14.33.3.4.47.02.1-.06.23-.23.38s-.36.27-.56.36c-1.14.39-2.31.49-3.52.3-.44-.03-.88-.06-1.32-.08h-5.63c-.48,0-.97-.03-1.45-.08-.46-.05-.8-.16-1.02-.33s-.32-.49-.3-.96c.15-1.97.24-3.96.26-5.95.02-.96.05-1.92.1-2.89.02-.73.07-1.44.13-2.15.07-.98.11-1.96.13-2.94.07-5.86.1-11.71.1-17.57-.02-.86-.13-1.71-.33-2.56-.13-.67.02-1.19.44-1.53.43-.35,1.06-.4,1.89-.16,1.95.47,3.92.63,5.89.48.92-.03,1.84-.03,2.76,0,.2,0,.4-.02.59-.08.2-.03.38-.05.56-.05h.23c.7,0,1.38.08,2.04.23.18.05.32.16.44.33.12.17.18.33.18.48,0,.12-.09.24-.28.37-.19.13-.37.21-.54.27-.79.12-1.59.17-2.4.15-1.76.02-3.53.02-5.33,0h-2.17v23.39h1.48Z"/>
    </g>
    <path class="cls-1" d="M216.95,189.84c.02,4.07.01,8.14-.03,12.23-.07,2.55-.16,5.1-.3,7.65-.07,1.27-.12,2.54-.16,3.82-.02.32-.02.64,0,.96,0,.44-.01.88-.03,1.32-.04.71.37,1.07,1.25,1.09.59.03,1.19.07,1.78.1.83.03,1.67.08,2.5.15.15,0,.32,0,.49.02.39-.02.76.02,1.1.11.34.09.54.31.61.65.02.44-.18.73-.61.87s-.87.23-1.33.27c-.86.07-1.72.07-2.6,0-.88-.05-1.76-.11-2.63-.18-1.01-.07-2.02-.13-3.03-.18-.68-.03-1.14-.14-1.38-.33-.24-.19-.34-.55-.3-1.09.04-1.69.1-3.38.16-5.06.15-3.85.27-7.71.36-11.57.02-1.82,0-3.65-.07-5.49-.04-1.4-.08-2.8-.1-4.2.02-2.26.08-4.53.16-6.81.02-.39.04-.78.07-1.16,0-.08.02-.17.07-.27.04-.09.09-.17.15-.24.05-.07.12-.11.18-.13.94-.17,1.88-.23,2.8-.18.18.03.35.15.51.35.16.2.28.41.35.61.09.32.11.67.07,1.04-.02.15-.03.3-.03.46h-.03c0,1.72.01,3.45.03,5.19Z"/>
    <g>
      <path class="cls-1" d="M73.75,265.56c0-12.34.02-24.65.08-36.92.05-15.35.23-30.67.54-45.95.05-.77.35-1.58.89-2.43.54-.85,1.1-1.39,1.67-1.62,7.92-2.55,15.77-2.31,23.54.7,4.76,2.01,7.38,6.64,7.85,13.89.21,10.11.23,20.25.08,30.44-.05,2.86-.08,5.75-.08,8.68-.05,7.18-.21,14.35-.47,21.53.21,11.88-2.2,22.3-7.22,31.25-.93,1.39-2.13,2.45-3.57,3.18-1.45.73-2.87,1.18-4.27,1.33-.15.08-.34.12-.54.12-3.94.23-6.36,1.04-7.26,2.43-.91,1.39-1.33,5.02-1.28,10.88v.7c-.21,5.17-.52,10.3-.93,15.39-.26,3.4-.49,6.83-.7,10.3-.1,1.85-.1,3.74,0,5.67.05,1.62.05,3.24,0,4.86.1,3.94-1.92,5.63-6.06,5.09-1.24-.08-2.2-.54-2.87-1.39-.67-.85-.96-2.39-.86-4.63.67-13.96,1.29-27.97,1.86-42.01.21-5.09,0-15.39-.31-15.39,0-5.32-.03-10.69-.08-16.09ZM83.93,184.2c-.1,4.17-.21,8.22-.31,12.15-.31,8.56-.49,16.94-.54,25.11.1,16.74.31,33.53.62,50.35.05,2.78.1,5.6.15,8.45.05.46.16.97.31,1.5.16.54.34,1.02.54,1.45.21.43.34.64.39.64.73-.31,1.48-.62,2.25-.93,2.43-.62,4.43-1.89,5.98-3.82.98-1.54,1.75-3.45,2.29-5.73.54-2.28.89-4.53,1.05-6.77.47-7.18.78-14.39.93-21.64.1-3.47.23-6.98.39-10.53.1-2.62.26-5.21.47-7.75.31-4.78.49-9.53.54-14.24-.05-7.02-.47-14-1.24-20.95-.16-1-.52-2.01-1.09-3.01-.57-1-1.17-1.62-1.79-1.85-2.33-.85-4.82-1.43-7.46-1.74-1.09-.23-2.25-.46-3.5-.7Z"/>
      <path class="cls-1" d="M131.51,215.8c-1.09,16.36-2.15,32.75-3.19,49.19-.36,5.71-.7,11.46-1.01,17.24-.21,4.24-.44,8.49-.7,12.73-.16,2.78-.34,5.56-.54,8.33-.52,5.4-.83,10.8-.93,16.2.05,4.86,1.1,8.72,3.15,11.57,2.05,2.86,4.52,4.67,7.42,5.44,3.68,1,5.9-2.2,6.68-9.61.31-3.09.49-6.25.54-9.49.05-2.08.13-4.13.23-6.13.31-5.4.65-10.8,1.01-16.2.47-7.1.91-14.2,1.32-21.3.57-10.18,1.04-20.37,1.4-30.55.67-19.37,1.29-38.73,1.86-58.1.1-1.7.45-2.81,1.05-3.36.59-.54,1.31-.89,2.14-1.04.16-.08.34-.12.54-.12,4.61-1.7,6.65.93,6.14,7.87-.21,5.4-.36,10.84-.47,16.32-.1,5.09-.26,10.15-.47,15.16-.47,10.26-.98,20.49-1.55,30.67-.26,4.17-.49,8.37-.7,12.61-.47,8.8-.93,17.63-1.4,26.5-.62,11.57-1.24,23.15-1.86,34.72-.36,6.25-1.86,11.36-4.51,15.33-2.64,3.98-6.09,5.69-10.33,5.15h-.23c-4.61-.39-8.96-1.81-13.05-4.28-7.2-5.56-10.33-14.51-9.4-26.85.47-6.02.93-12.04,1.4-18.05.41-5.01.8-10.03,1.17-15.05.31-4.24.59-8.45.85-12.62.31-5.94.7-11.8,1.16-17.59,2.02-22.84,2.87-45.75,2.56-68.75-.05-2.85.8-4.32,2.56-4.4,1.5-.08,3,0,4.51.23h.31c2.43.31,3.44,2.39,3.03,6.25-.21,2.7-.26,5.44-.16,8.22.05,1.23.08,2.47.08,3.7.1,0,.21.04.31.12h.31c-.42,6.64-.83,13.27-1.24,19.91Z"/>
      <path class="cls-1" d="M182.58,309.28h10.33c1.6-.05,3.19,0,4.74.16.41.11.83.34,1.24.71.41.37.67.74.78,1.11.05.42-.04.89-.27,1.39-.23.5-.5.89-.82,1.15-.93.63-1.99.95-3.19.95h-16.94v25.13h15.54c1.6-.05,3.19.03,4.74.24.47.11.93.38,1.4.83.47.45.78.94.93,1.47.05.32-.13.71-.54,1.19-.41.48-.85.85-1.32,1.11-2.69,1.22-5.47,1.53-8.31.95-1.04-.11-2.07-.19-3.11-.24h-13.28c-1.14,0-2.28-.08-3.42-.24-1.09-.16-1.89-.5-2.41-1.03-.52-.53-.75-1.53-.7-3.01.36-6.18.57-12.39.62-18.63.05-3.01.13-6.02.23-9.04.05-2.27.16-4.52.31-6.74.16-3.06.26-6.13.31-9.2.16-18.34.23-36.68.23-55.02-.05-2.7-.31-5.36-.78-8.01-.31-2.11.04-3.71,1.05-4.8,1.01-1.08,2.5-1.26,4.47-.52,4.61,1.48,9.25,1.98,13.91,1.51,2.17-.11,4.35-.11,6.53,0,.47,0,.93-.08,1.4-.24.47-.11.91-.16,1.32-.16h.54c1.66,0,3.26.24,4.82.71.41.16.76.5,1.05,1.03.28.53.43,1.03.43,1.51,0,.37-.22.75-.66,1.15-.44.4-.87.67-1.28.83-1.86.37-3.76.53-5.67.48-4.14.05-8.34.05-12.59,0h-5.13v73.25h3.5Z"/>
      <path class="cls-1" d="M205.45,339.33c.05-3.33.05-6.66,0-9.99,0-3.91-.05-7.82-.16-11.73-.16-7.77-.21-15.51-.16-23.23.16-9.04.36-18.05.62-27.03.16-5.07.31-10.12.47-15.14.05-2.48.08-4.94.08-7.37,0-3.91.08-7.8.23-11.65.05-.42.32-.86.82-1.31.49-.45.97-.75,1.44-.91,6.84-1.48,13.72-1.69,20.67-.63,8.24,1.38,12.14,5.76,11.73,13.16.05,4.44.16,8.85.31,13.24.21,4.86.31,9.7.31,14.51-.15,5.81-.65,11.6-1.48,17.36-1.04,5.81-4.25,10.12-9.63,12.92.72.42,1.48.82,2.25,1.19,1.71.74,3.24,1.66,4.58,2.77,1.71,1.53,2.82,3.41,3.34,5.63.83,4.92,1.27,9.88,1.32,14.9.78,7.77-2.41,13.19-9.56,16.25-4.04,1.53-8.62,2.5-13.75,2.89-5.13.4-9.61-.04-13.44-1.31v-4.52ZM229.07,293.98c.47-.63.78-1.29.93-1.98.21-1.32.41-2.64.62-3.96.78-4.17,1.37-8.38,1.79-12.6.16-2.48.1-5.02-.16-7.61-.1-1.06-.18-2.14-.23-3.25-.1-1.95-.18-3.91-.23-5.87-.26-6.45-.62-12.89-1.09-19.34-.1-.69-.47-1.41-1.09-2.18-.62-.77-1.27-1.26-1.94-1.47-2.54-.42-5.15-.69-7.85-.79-1.04-.05-2.1-.11-3.19-.16-.78,22.62-1.53,45.27-2.25,67.94,6.27-1.53,11.16-4.44,14.68-8.72ZM214.77,309.12c-.05.37-.08.66-.08.87.05,3.49.1,6.95.15,10.38.16,6.13.28,12.26.39,18.39.1,1.27.49,2.01,1.17,2.22.67.21,1.42.21,2.25,0,1.29-.26,2.56-.58,3.81-.95.88-.26,1.79-.5,2.72-.71,4.92-.79,7.35-3.59,7.3-8.4-.05-6.18-.41-12.34-1.09-18.47-.57-3.43-2.56-5.15-5.98-5.15-2.43.11-4.87.32-7.3.63-1.09.16-2.15.29-3.19.4-.05.32-.1.58-.16.79Z"/>
      <path class="cls-1" d="M265.85,212.09c.05,18.59.03,37.23-.08,55.9-.16,11.65-.39,23.3-.7,34.95-.16,5.79-.28,11.61-.39,17.48-.05,1.47-.05,2.93,0,4.4,0,2.01-.03,4.01-.08,6.02-.1,3.24.88,4.9,2.95,4.98,1.4.16,2.8.31,4.2.46,1.97.16,3.94.39,5.9.69.36,0,.75.04,1.17.12.93-.08,1.8.1,2.6.52.8.43,1.28,1.41,1.44,2.95.05,2.01-.43,3.34-1.44,3.99-1.01.65-2.06,1.06-3.15,1.22-2.02.31-4.07.31-6.14,0-2.07-.23-4.14-.5-6.22-.81-2.38-.31-4.77-.58-7.15-.81-1.61-.15-2.69-.65-3.26-1.5-.57-.85-.8-2.51-.7-4.98.1-7.71.23-15.43.39-23.15.36-17.59.65-35.22.85-52.89.05-8.33,0-16.7-.16-25.11-.1-6.4-.18-12.81-.23-19.21.05-10.34.18-20.72.39-31.13.05-1.77.1-3.55.15-5.32,0-.38.05-.79.16-1.21.1-.42.22-.79.35-1.1.13-.31.27-.5.43-.58,2.23-.77,4.43-1.04,6.6-.81.41.16.82.7,1.2,1.62.39.93.66,1.85.82,2.78.21,1.47.26,3.05.15,4.74-.05.69-.08,1.39-.08,2.08h-.08c0,7.87.02,15.78.08,23.73Z"/>
      <path class="cls-1" d="M297.31,294.94l-.02,22.84.34,4.57c-.24,5.71.73,11.82.32,17.48-.33,4.55-4.44,8.13-7.67,3.79-1.46-1.97-1.5-4.57-1.85-6.97-.4-24.38-.1-48.84,0-73.21.07-15.65-.36-31.7.15-47.3.29-9.09,2.97-27.08,9.28-33.43,9.58-9.65,23.14-5.35,26.49,8.26,1.36,5.54,1.49,13.66,1.82,19.54.25,4.57.5,9.2.65,13.75.47,13.65-.45,26.66-.97,40.24-.59,15.28-.74,30.61-1.46,45.87-.35,7.45-1.03,14.8-1.12,22.23-.03,2.54-.32,8.12-1.46,10.24-1.41,2.64-5.57,2.94-6.65-.15-.43-1.24-.27-1.7-.29-2.85-.13-9.57.53-19.18.95-28.77l.74-16.67c-.12-.18-.31-.16-.49-.18-3.25-.39-7.96.04-11.3.18-2.5.11-5.01.12-7.48.55ZM316.79,286.96c.31-.29.15-4.72.17-5.55.31-11.29.62-22.59.98-33.87.31-9.73.93-19.53.32-29.29-.22-3.47-.68-6.95-.97-10.41-.49-5.97.24-15.9-5.01-19.39-8.62-5.73-10.52,3.88-12.01,10.83-2.3,10.77-2.85,20.3-2.99,31.31-.15,11.75,0,23.58.01,35.29,0,7.21-.02,14.42,0,21.62l19.5-.55Z"/>
    </g>
    <path class="cls-1" d="M229.01,208.36v5.09s.11,1.02.11,1.02c-.09,1.27.26,2.64.11,3.9-.12,1.01-1.58,1.81-2.73.84-.52-.44-.53-1.02-.66-1.55-.14-5.44-.04-10.89,0-16.33.02-3.49-.13-7.07.05-10.55.1-2.03,1.06-6.04,3.3-7.46,3.41-2.15,8.23-1.19,9.42,1.84.48,1.23.53,3.05.65,4.36.09,1.02.18,2.05.23,3.07.17,3.04-.16,5.94-.34,8.97-.21,3.41-.26,6.83-.52,10.23-.12,1.66-.37,3.3-.4,4.96-.01.57-.12,1.81-.52,2.28-.5.59-1.98.66-2.36-.03-.15-.28-.1-.38-.1-.64-.05-2.13.19-4.28.34-6.42l.26-3.72s-.11-.04-.17-.04c-1.16-.09-2.83,0-4.02.04-.89.02-1.78.03-2.66.12ZM235.94,206.58c.11-.06.05-1.05.06-1.24.11-2.52.22-5.04.35-7.55.11-2.17.33-4.35.11-6.53-.08-.77-.24-1.55-.34-2.32-.17-1.33.09-3.55-1.78-4.32-3.06-1.28-3.74.87-4.27,2.42-.82,2.4-1.01,4.53-1.06,6.98-.05,2.62,0,5.26,0,7.87,0,1.61,0,3.21,0,4.82l6.93-.12Z"/>
  </g>
  <g>
    <path class="cls-1" d="M386.69,114.53c6.45,1.98,8.59,8.8,9.5,14.86,1.19,7.99-1.86,16.4-3.22,24.24-1.81,10.4-3.07,25.01-1.99,35.45.7,6.74,4.11,15.33,2.04,21.72-.98,3.03-3.14,4.39-5.89,5.68.22,2.46.17,4.93.25,7.4.17,5.24,1.11,16.55-.71,21.13-1.15,2.89-6.65,4.2-9.49,4.43-1.79.14-3.73-.13-5.53,0-3.91.26-7.85,1.03-11.75,1.21-4.52.21-9.28.03-9.49-5.63-.17-4.63,3.04-5.89,7.1-5.66,6.13.35,10,1.83,16.48.42.65-.14,2.55-.53,2.79-1.05.98-7.28,1.06-14.66,1.02-22.01-5.1-1.99-7.55-7.55-7.93-12.75-.72-9.82,1.85-21.89,2.39-31.92.41-7.68.05-15.86-.72-23.52-.97-9.64-5.21-23.26,1.93-31.43.78-.89,2.85-2.24,3.06-3.18.27-1.18-.04-2.97.05-4.27.21-2.96,1.21-8.15.96-10.8-.04-.4-.6-2.51-.78-2.7-.3-.33-4.48-1.64-5.12-1.72-1.91-.24-6.1.04-8.11.25-4.07.41-7.67,2.75-11.86,1.48-6.4-1.93-5.09-10.45,1.51-11.11,4.84-.48,10.77.38,15.85.25,4.27-.11,11.31-1.5,15.02.8,4.2,2.59,2.63,9.81,2.6,13.94-.05,4.83.03,9.67.04,14.5Z"/>
    <path class="cls-1" d="M17.85,119.1c.96.15,1.97.86,2.73,1.47,9.6,7.69,3.16,26.8,1.84,37.11-.84,6.59-.58,13.98-.28,20.62.44,9.85,2.39,19.1,3.13,28.79.44,5.7.53,10.18-4.72,13.52-.31.2-.78.22-1.03.41-.85.67-.41,3.83-.5,5.02-.21,3.1-.85,6.57-.95,9.6-.03.8.28,3.36.78,3.9.3.33,4.48,1.64,5.12,1.72,1.91.24,6.1-.04,8.11-.25,3.98-.41,7.56-2.67,11.67-1.54,6.44,1.78,5.39,10.25-.91,11.1-4.73.64-11.22-.32-16.27-.19-4.4.11-12.35,1.73-15.84-1.42-1.5-1.36-1.76-3.01-2.03-4.93l.25-22.76c-4.4-1.61-7.59-5.54-8.34-10.18-2.21-13.49,2.22-27.21,3.74-40.53.89-7.81,1.08-16.14.27-23.96-.69-6.72-4.1-15.35-2.04-21.72.98-3.03,3.14-4.38,5.89-5.68-.22-2.46-.17-4.93-.25-7.4-.17-5.26-.59-10.8-.25-16.09.16-2.47.54-5.68,2.72-7.12,4.56-3,11.34-2.21,16.61-2.59,4.07-.3,11.92-2.09,15.41-.05,3.25,1.9,3.35,7.33.32,9.54-2.63,1.91-8.48.14-11.65-.12-3.18-.26-6.62-.14-9.77.55-.49.11-2.33.54-2.6.76-.85.73-.79,10.57-1.21,12.23l.04,10.18Z"/>
  </g>
</svg>