<?xml version="1.0" encoding="UTF-8"?>
<svg id="Capa_1" data-name="Capa 1" xmlns="http://www.w3.org/2000/svg" viewBox="0 0 268.21 160.18">
  <defs>
    <style>
      .cls-1 {
        fill: #666;
      }
    </style>
  </defs>
  <path class="cls-1" d="M35.66,150.86q-2.32-3.67.18-7.28c14.7-21.08,29.42-42.15,44.09-63.26.85-1.23,1.71-1.73,3.23-1.7,4.66.11,9.32.04,14.4.04-15.13,21.83-30.1,43.42-45.06,65.02.56.74,1.28.41,1.88.41,9.16.03,18.32-.03,27.48.06,1.45.01,2.18-.55,2.93-1.63,14.35-20.62,28.74-41.21,43.06-61.85,1.01-1.45,2-2.11,3.81-2.05,4.55.14,9.1.04,14.07.04-15.21,21.93-30.19,43.55-45.27,65.3,1.86.34,2.51-1.1,3.39-1.93,20.53-19.24,41.14-38.4,61.41-57.91,4.23-4.07,8.34-6.13,14.19-5.56,4.78.47,9.64.09,14.81.09-1.76,4.73-3.45,9.21-5.09,13.72-1.44,3.97-2.82,7.96-4.23,11.95-4.79,4.29-10.12,7.84-15.44,11.4-1.43.96-2.74,2.19-4.53,2.54-.63-.27-.22-.59-.09-.95,3-7.99,6-15.98,8.95-24,.29-.78,1.04-1.58.44-2.58-.79-.02-1.13.63-1.59,1.07-9.51,8.93-19.03,17.85-28.51,26.8-7.23,6.82-14.4,13.7-21.6,20.55-.78.95-1.94,1.2-3.02,1.59-19.18,6.99-38.89,11.45-59.35,12.15-8.24.28-16.45-.11-24.53-2.03Z"/>
  <path class="cls-1" d="M35.66,150.86c8.07,1.91,16.29,2.31,24.53,2.03,20.46-.7,40.17-5.16,59.35-12.15,1.07-.39,2.24-.64,3.02-1.59,1.12.17,2.13-.24,3.13-.63,10.51-4.17,20.73-8.97,30.54-14.59,3-1.72,6.25-3.11,8.74-5.65,1.79-.35,3.09-1.58,4.53-2.54,5.32-3.56,10.66-7.12,15.44-11.4,5.16-3.56,9.63-7.92,14.05-12.31,10.32-10.22,19.08-21.54,24.19-35.34,4.44-11.99,3.92-23.5-3.6-34.19-4.54-6.45-11.22-10.01-18.38-12.75-13.77-5.27-28.1-5.79-42.55-4.7-18.01,1.36-35.4,5.65-52.33,11.87-.37.14-.72.37-1.32-.03,8.12-3.33,16.25-6.21,24.54-8.63C146.35,3.33,163.49.12,181.06,0c15.35-.1,30.42,1.81,44.08,9.6,10.29,5.87,16.76,14.43,17.96,26.57.86,8.7-1.17,16.82-4.51,24.73-2.67,6.32-6.46,11.98-10.23,17.66-2.69.45-5.54-.6-8.12.63-4.06,1.92-8.03,4.02-12.06,6.01-1.01.5-1.71,1.24-2.35,2.15-3.76,5.29-7.56,10.55-11.34,15.82-1.02,1.42-2.82,2.9-2.77,4.3.06,1.79,2.87,1.8,4.12,3.11-1.11.87-2.19,1.79-3.34,2.6-5.02,3.53-10.07,7.02-15.11,10.52-.26.07-.47.19-.43.51l.03-.05c-.56-.15-.94.23-1.35.48-5.61,3.4-11.35,6.56-17.17,9.58-8.47,3.84-16.84,7.9-25.55,11.22-15.74,6.01-31.84,10.73-48.56,12.99-18.52,2.5-37.01,2.98-55.11-2.8-9.3-2.97-17.57-7.64-23.36-15.81-4.66-6.57-6.52-13.92-5.7-21.96.49,6.78,2.85,12.83,7.22,18.01,7.39,8.76,17.23,13.02,28.26,15.01Z"/>
  <path class="cls-1" d="M195.83,110.55c-1.25-1.31-4.05-1.32-4.12-3.11-.05-1.4,1.76-2.88,2.77-4.3,3.78-5.28,7.58-10.54,11.34-15.82.64-.9,1.34-1.65,2.35-2.15,4.03-1.98,8-4.08,12.06-6.01,2.58-1.23,5.43-.17,8.12-.63,10.08.04,20.15.17,30.23.04,2.87-.04,4.98.66,6.96,2.8,3.38,3.64,3.51,3.52.62,7.53-2.72,3.78-5.47,7.55-8.16,11.35-.67.95-1.33,1.52-2.61,1.5-4.91-.07-9.82-.03-15.25-.03,3.28-4.61,6.36-8.93,9.46-13.28-.91-.65-1.68-.42-2.39-.42-7.66-.02-15.33.03-22.99-.04-1.48-.01-2.45.4-3.31,1.64-2.55,3.7-5.16,7.36-7.88,10.94-1.06,1.4-.74,1.93.67,2.7,9.48,5.19,18.9,10.49,28.39,15.67,1.52.83,1.82,1.3.69,2.84-5.57,7.57-11.02,15.24-16.48,22.89-.74,1.04-1.69,1.72-2.76,2.41-8.12,5.24-16.91,6.76-26.55,6.36-14.14-.58-28.31-.15-42.47-.15-.91,0-1.81,0-2.98,0,2.36-6.53,4.64-12.82,6.91-19.1,5.82-3.02,11.56-6.18,17.17-9.58.41-.25.79-.64,1.35-.48.26.98-.36,1.77-.66,2.6-1.91,5.22-3.83,10.44-5.86,15.62-.6,1.52-.23,1.78,1.27,1.78,12.32-.05,24.64-.03,36.97-.02.96,0,1.7-.11,2.34-1.01,3.84-5.43,7.74-10.83,11.66-16.2.64-.87.61-1.33-.4-1.88-8.83-4.8-17.64-9.64-26.46-14.47Z"/>
  <path class="cls-1" d="M21.13,73.65c-1.64,0-3.35-.05-5.06.02-1.25.04-1.46-.94-1.85-1.71-1.81-3.56-3.56-7.15-5.38-10.7-.32-.63-.43-1.43-1.58-2.02,0,3.97.03,7.73-.02,11.48-.01.95.49,2.44-.51,2.72-1.46.41-3.13.22-4.68.06-.66-.07-.48-.96-.48-1.51,0-8.41.02-16.82-.03-25.23,0-1.36.53-1.69,1.77-1.67,3.83.07,7.67-.04,11.49.1,3.7.13,6.15,2.41,6.66,5.91.69,4.7-.78,7.97-4.54,9.13-2.17.67-2.3,1.34-1.18,3.16,1.97,3.18,3.68,6.51,5.5,9.79.03.05-.04.16-.12.49ZM7.15,53.32q0,5.47,5.52,4.87c2.22-.24,3.45-1.49,3.79-3.62.56-3.48-1.21-5.98-4.34-6.23q-4.96-.4-4.96,4.73c0,.08,0,.17,0,.25Z"/>
  <path class="cls-1" d="M85.59,58.46c4.57,2.27,5.65,4.09,5.09,8.38-.61,4.63-2.63,6.59-7.33,6.77-3.57.14-7.15-.02-10.72.06-1.37.03-1.66-.53-1.65-1.76.04-8.39.05-16.78,0-25.18,0-1.36.51-1.68,1.75-1.66,3.57.07,7.15-.01,10.72.07,3.6.08,5.47,1.52,6.21,4.58.92,3.79-.15,6.5-3.25,8.22-.22.12-.42.26-.82.52ZM76.54,65.2q0,4.98,4.95,4.95c.08,0,.17,0,.25,0,2.98-.04,4.33-1.31,4.63-4.37.26-2.7-1.23-4.83-3.76-5.36-5.13-1.09-6.06-.35-6.07,4.79ZM76.54,52.74q0,4.37,4.32,4.32c3.27-.04,4.92-1.55,4.96-4.56.04-2.66-1.55-4.13-4.75-4.14-5.56-.02-4.4-.51-4.53,4.38Z"/>
  <path class="cls-1" d="M29.45,56.38c0,2.99-.03,5.99,0,8.98.04,3.41,1.73,5.02,5.13,4.94,3.02-.07,4.49-1.69,4.48-5.05-.01-5.99.05-11.98-.13-17.96-.06-2.05.76-2.29,2.47-2.26,1.54.03,2.44.15,2.39,2.1-.17,6.48-.03,12.97-.26,19.45-.14,4.08-2.6,6.48-6.66,7.14-.57.09-1.15.19-1.73.25-7.41.8-11.28-2.41-11.49-9.81-.16-5.73,0-11.48-.06-17.21-.01-1.37.35-1.87,1.81-1.9,4.07-.07,4.07-.15,4.07,3.85,0,2.5,0,4.99,0,7.49h-.03Z"/>
  <path class="cls-1" d="M66.86,50.34c-2.54-1.6-5.07-1.84-7.7-1.74-2.93.11-4.75,1.27-5.5,4.12-1.25,4.75-1.18,9.58.16,14.29.92,3.25,4.28,4.33,7.26,2.69.79-.44,1.01-1,1-1.81-.02-1.25.13-2.52-.04-3.74-.31-2.34.4-3.21,2.92-3.09,2.01.09,2.84.49,2.63,2.63-.19,1.98-.16,4,0,5.99.13,1.66-.65,2.41-2.04,2.93-3.53,1.3-7.18,1.5-10.83.9-3.83-.63-6.24-3.07-7.11-6.82-1.11-4.75-1.28-9.56-.08-14.34,1.18-4.73,4.25-7.18,9.15-7.24,1.91-.03,3.84-.03,5.74.17,3.93.43,3.92.49,4.46,5.06Z"/>
  <path class="cls-1" d="M104.15,56.11c1.69-3.21,3.32-5.91,4.55-8.78.97-2.28,2.42-2.61,4.72-1.95-2.19,4-4.26,7.96-6.49,11.83-1.03,1.79-1.51,3.6-1.43,5.67.12,2.99-.03,5.99.06,8.98.04,1.43-.45,1.82-1.85,1.84-3.73.04-4.01.08-3.67-3.65.64-7.05-.65-13.48-4.94-19.21-.39-.53-.73-1.13-.94-1.75-.43-1.3-2.37-2.47-1.28-3.79,1.11-1.34,5.61.19,6.52,1.91,1.51,2.84,3.02,5.67,4.75,8.92Z"/>
  <path class="cls-1" d="M104.43,17.33c-.15.16-.23.32-.34.34-.2.04-.42,0-.63,0,.08-.11.14-.3.24-.32.21-.05.44-.02.73-.02Z"/>
  <path class="cls-1" d="M177.38,123.67c-.02.27-.02.57-.43.51-.04-.32.17-.44.43-.51Z"/>
</svg>