<?xml version="1.0" encoding="UTF-8"?>
<svg id="Layer_1" data-name="Layer 1" xmlns="http://www.w3.org/2000/svg" viewBox="0 0 352.54 73.35">
  <defs>
    <style>
      .cls-1 {
        fill: #666;
      }
    </style>
  </defs>
  <path class="cls-1" d="M23.89,67.59c1.78-.3,10.56-.32,9.77,2.74-2.02,3.35-10.08,3.33-12.59,1.06-2.19-1.98.93-3.48,2.82-3.8Z"/>
  <path class="cls-1" d="M143.25,41.88c5.8-5.35,13.56-10.22,21.83-8.03,6.39,1.69,7.56,7.94,6.96,13.71-.04.41-.29,1.02.34.92,4.97-9.73,16.7-16.74,27.73-15.86,11.43.91,13.27,10.57,5.89,18.2-4.93,5.1-12.29,8.34-19.25,9.49-.81.44.7,1.5,1.04,1.69,5.13,2.97,18.43-1.41,23.7-3.76,1.18-.53,5.49-2.49,6.16-3.16.92-.92,2.83-9.79,2.45-11.02-.11-.35-.44-.74-.84-.59l-3.87,1.85-2.6-2.48c2.76-2.05,10.37-10.45,13.41-10.65,5.15-.35,5.64,5.99,5.23,9.68,5.23-4.63,18.75-11.78,25.26-7.2,7.12,5.01-.01,17.27.06,23.69.05,4.76,6.35,2.88,7.49.96.29-.48.48-4.59.76-5.83,1.73-7.65,9.49-15.37,16.54-18.41s22.61-5.1,23.65,5.85c.93,9.81-15.18,18.58-23.66,19.35-.71.38.22,1.09.59,1.37,3.92,2.99,14.95.02,19.43-1.55,2.59-.9,5.12-2.07,7.58-3.3.51-.52.67-4.13.95-5.26,2.25-9.03,11.35-16.98,20.39-18.82,30.4-6.19,27.15,32.88,3.9,39.21-9.34,2.55-19.94.63-23.9-9.13-5.51,3.39-11.2,6.43-17.5,8.12-8.79,2.36-22,3.91-26.78-5.8-4.54,3.54-10.31,7.33-16.31,7.41-14.8.19-2.5-19.86-6.01-27.01-3.36-1.07-6.52,1.92-8.54,4.28-5.58,6.53-7.03,14.79-5.06,23.08-6.95.44-14.54-2.27-13.99-10.48-9.9,6.44-21.53,11.15-33.61,10.1-8.77-.76-12.98-7.7-13.19-15.93-3.4,7.12-9.35,12.86-16.99,15.24-8.1,2.53-18.77,2.71-22.45-6.49-2.14-5.35-.24-12.04,0-17.67l-2.4,4.39c-2.05,3.43-6.66,7-10.78,4.69-3.35-1.88-2.55-10.52-5.28-10.51-7.59,5.56-8.34,17.22-7.18,25.87-8.31.64-14.64-3.4-13.6-12.42-6.09,5.16-13.44,9.14-21.2,11.22-9.09,2.44-22.73,3.93-27.16-6.57-5.26-12.49,6.5-26.41,17.96-30.17,6.92-2.27,20.17-3.43,21.36,6.41s-14.94,18.83-23.6,19.69c-.61.49-.27.38,0,.79,2.4,3.6,13.72.99,17.39-.09,5.78-1.7,11.16-4.53,16.31-7.58.43-1.79,2.01-8.32,1.09-9.63-1.03-1.47-4.19,1.22-5.08,1.96l-2.52-3.48c3.51-1.59,9.2-9.28,12.71-10.01,5.57-1.15,7.66,5.18,7.1,9.61,3.6-3.65,6.13-9.02,11.89-9.66,9.05-1.01,4.61,6.67,7.19,10.59,1.73,2.63,5.29-.78,6.47-2.38.16-6.01,3.09-15.27.82-20.81-1.53-3.75-3.53-3.75-7.2-3.03-.52.1-.69.08-.51-.51,1.84-5.81,8.45-10.65,14.56-10.6,17.17.13,6.39,26.93,4.86,36.4ZM325.18,62.7c.29.28.95.72,1.32.81,9.52,2.19,16.81-15.54,10.98-22.21-9.55-3.27-18.1,15.85-12.3,21.41ZM55.46,55.85c4.49-.62,13.78-7.2,12.81-12.21-.21-1.06-.73-1.26-1.72-1.39-5.85-.77-11.07,8.46-11.08,13.6ZM184.04,55.85c4.49-.62,13.78-7.2,12.81-12.21-.21-1.06-.73-1.26-1.72-1.39-5.85-.77-11.07,8.46-11.08,13.6ZM278.82,55.85c4.49-.62,13.78-7.2,12.81-12.21-.21-1.06-.73-1.26-1.72-1.39-5.85-.77-11.07,8.46-11.08,13.6ZM152.08,44.69c-4.61.84-11.24,10.68-11.02,15.18.15,3.18,2.2,3.79,5.08,3.33,3.31-.53,7.6-5.97,8.97-8.88,1.77-3.78,3.68-10.85-3.03-9.63Z"/>
  <path class="cls-1" d="M4.48.04c1.44-.2,2.35.32,3.6.88,5.22,2.32,10.73,7.14,15.96,9.29,2.12.87,2.78.81,4.88-.08,4.99-2.11,10.34-6.75,15.4-9.07,4.35-1.99,7.48-.74,8.39,4.1-7.14,18.57-14.65,37.17-22.69,55.35-2.31,2-5.09,2.1-7.34-.04L.5,7.33C-1.05,4.29,1.19.49,4.48.04ZM25.46,22.18c-8.71.95-7.84,14.48,1.04,14.28,9.54-.22,8.88-15.36-1.04-14.28Z"/>
</svg>