<?xml version="1.0" encoding="UTF-8"?>
<svg id="Layer_1" data-name="Layer 1" xmlns="http://www.w3.org/2000/svg" viewBox="0 0 836.39 771.92">
  <defs>
    <style>
      .cls-1 {
        fill: #666;
      }
    </style>
  </defs>
  <g>
    <path class="cls-1" d="M584.69,743.52c-4.22-14.74-8.44-29.48-12.74-44.49-2.45.18-4.4.32-6.61.49-.77-2.43-1.45-4.55-2.46-7.72,14.51-3.97,28.5-8.21,42.73-11.31,2.7-.59,8.08,2.63,9.28,5.37,3.08,7.08,7.44,14.76.54,22.73,12.55,4.1,11.85,15.28,13.26,24.52.45,2.97-4.12,8.62-7.57,9.93-11.56,4.37-23.62,7.45-35.58,10.7-1.32.36-4.59-1.34-4.58-2.03.06-2.78,1.05-5.54,1.7-8.31.67.04,1.34.08,2,.12M591.03,721.39c2.08,7.17,3.97,13.64,5.96,20.49,6.14-1.84,11.56-3.52,17.02-5.09,3.73-1.07,5.18-2.98,4-7.08-5.25-18.25-3.33-15.06-18.79-10.91-2.41.65-4.76,1.5-8.19,2.59M588.59,712.33c4.4-1.18,7.93-2.09,11.43-3.08,10.38-2.94,10.28-3.23,7.33-13.77-1.53-5.44-4.33-6.33-9.1-4.75-4.71,1.56-9.48,2.89-14.77,4.49,1.76,5.89,3.31,11.06,5.12,17.11"/>
    <path class="cls-1" d="M456.61,771.92h-16.6c0-7.02-.19-13.62.05-20.2.22-5.98-1.96-8.95-8.32-8.9-15.84.12-12.4-1.56-12.94,12.53-.2,5.21-.03,10.44-.03,16h-17.75v-8c1.85-.4,3.78-.81,5.82-1.25.21-1.03.52-1.91.54-2.79.27-12.85.72-25.71.55-38.56-.03-2.61-2.47-5.2-3.79-7.79-.73.26-1.47.52-2.2.77v-7.03c13.25,0,26.06-.38,38.83.16,6.29.27,9.56,4.56,9.73,11.17.37,14.96.47,14.95-6.23,20.19,11.66,5.17,5.93,15.6,7.68,24.49,4.83.69,7.39,3.32,4.67,9.23M419.95,714.91v19.17c3.13,0,5.64-.04,8.15,0,11.1.19,10.72.18,11.27-10.74.33-6.54-2.19-8.79-8.28-8.47-3.61.19-7.23.03-11.15.03"/>
    <path class="cls-1" d="M560.48,692.99c1.34,6.65,2.5,12.41,3.82,18.96-3.58.72-6.58,1.33-10.21,2.06-.89-3.26-1.71-6.26-2.76-10.1-5.88,1.13-11.76,1.83-17.3,3.59-1.69.54-3.72,4.19-3.42,6.08,1.83,11.79,4.01,23.54,6.79,35.13.5,2.07,4.42,4.75,6.67,4.68,5.41-.18,10.77-1.84,16.86-3.04-1.19-6.35-2.31-12.3-3.54-18.87-4.06.54-7.61,1.01-11.98,1.59-.56-2.73-1.08-5.24-1.74-8.46,7.74-1.47,14.85-2.82,22.97-4.36,2.37,12.42,4.63,24.2,7.03,36.78-12,2.32-23.35,4.88-34.82,6.6-6.45.97-11.18-2.94-12.46-9.24-2.82-13.95-5.52-27.92-8.09-41.92-1.24-6.75,1.57-11.43,8.22-12.9,10.96-2.43,22.04-4.3,33.97-6.58"/>
    <path class="cls-1" d="M203.55,665.31c-2.25-1.26-3.83-2.14-5.93-3.31.82-2.27,1.65-4.53,2.82-7.76,5.78,2.19,11.22,4.25,17.37,6.58-1.95,5.44-3.63,10.35-5.47,15.2-3.91,10.31-7.68,20.69-11.98,30.84-2.2,5.19-1.28,7.85,4.09,9.96,12.62,4.96,12.63,5.2,17.62-7.49,5.21-13.24,10.23-26.55,15.67-40.68,5.7,2.16,11.12,4.22,16.79,6.37-1.04,4.82-1.1,9.87-8.56,5.98-4.59,11.83-9.05,23.33-13.52,34.83-1,2.57-1.9,5.18-3.08,7.66-2.98,6.25-8.14,8.74-14.75,6.53-7.18-2.4-14.25-5.19-21.19-8.21-6.53-2.84-8.37-7.85-5.77-14.76,5.16-13.74,10.45-27.43,15.9-41.73"/>
    <path class="cls-1" d="M495.56,702.58c6.3-.68,11.9-1.28,18.1-1.95.33,3,.6,5.4.91,8.29-6.67.06-5.99,3.96-5.44,8.47,1.45,11.86,2.59,23.77,3.59,35.69.82,9.84-2.88,14.09-12.61,15.11-6.17.64-12.35,1.32-18.53,1.81-8.5.68-12.55-2.55-13.48-10.94-1.6-14.37-3.02-28.77-4.55-43.56-2.36-.24-4.49-.46-7-.71-.27-2.38-.53-4.6-.87-7.66,5.51-.73,10.63-1.76,15.77-1.82,1.18-.01,3.24,3.2,3.46,5.1,1.71,14.38,3.29,28.79,4.43,43.23.48,6.04,2.62,6.99,8.73,6.97,13.02-2.1,13.13-1.86,11.87-15-1.36-14.14-2.87-28.27-4.38-43.02"/>
    <path class="cls-1" d="M293.23,755.65c-5.46-1.52-10.24-2.85-15.07-4.19,0-4.32-.25-7.75.14-12.06.71-7.84-1.7-10.91-8.8-11.86-1.99-.97-4.36-1.15-6.9-1.84-2.35,4.2-5.01,8-6.67,12.19-2.22,5.6-5.61,6.42-10.71,4.25-2.46-1.05-5.15-1.56-8.03-2.41.95-3.85-.59-8.33,5.76-7.77,1.38.12,3.44-2.51,4.48-4.29,7.78-13.26,15.54-26.54,22.97-39.99,2.35-4.25,4.5-5.86,9.66-4.17,11.33,3.72,11.41,3.37,11.11,15.02-.35,13.78-.68,27.56-.91,41.34-.03,1.95.05,5.3.98,5.66,6.28,2.4,2.68,5.94,1.99,10.13M278.9,721.2c.59-9.22,1.12-17.6,1.65-25.98-.55-.1-1.1-.19-1.65-.29-3.84,7.44-7.68,14.87-11.81,22.87,4.37,1.26,7.78,2.24,11.81,3.4"/>
    <path class="cls-1" d="M351.41,718.52c-3.85-.78-6.91-1.41-10.16-2.07v-8.55c-4.73-.99-9.56-2.5-14.46-2.78-1.95-.11-5.2,2.06-5.91,3.93-4.27,11.2-3.12,12.87,8.85,15.25,3.37.67,6.77,1.27,10.08,2.2,7.19,2.01,9.69,5.89,8.52,13.29-.79,4.97-1.8,9.92-2.94,14.83-1.66,7.12-6.34,10.5-13.69,9.26-10.38-1.75-20.66-4.02-31.75-6.22,1.16-6.04,2.26-11.74,3.52-18.26,3.67.7,6.89,1.31,10.41,1.99-.26,3.27-.47,5.94-.72,9.19,5.27,1.09,10.33,2.61,15.46,2.95,1.93.13,4.66-2.07,5.9-3.94,1.29-1.96,1.19-4.43,1.79-7.25,1.23-5.78-.69-7.56-5.65-8.33-4.54-.71-9.07-1.48-13.54-2.51-7.69-1.76-10.35-5.72-9.1-13.47.76-4.76,1.74-9.48,2.76-14.19,1.43-6.58,5.11-9.29,11.76-8.59,2.5.26,4.97.86,7.45,1.34,7.86,1.51,15.72,3.03,24.58,4.74-1.05,5.79-2.04,11.23-3.13,17.2"/>
    <path class="cls-1" d="M38.18,211.36c1.43,2.23,2.63,4.66,4.36,6.63,1.27,1.44,3.12,2.52,4.91,3.33,13.36,6.06,26.78,12.01,40.13,17.98-.14,5.8-3.02,7.34-7.97,7.25-12.57-.21-25.14-.07-37.72-.07-.15.92-.3,1.83-.46,2.75,11.5,5.22,23,10.43,35.28,16-1.61,3.78-3.09,7.23-5.66,13.25-2.48-3.73-3.83-6.1-5.52-8.19-1.06-1.31-2.48-2.54-3.99-3.24-8.98-4.13-17.98-8.21-27.09-12.04-3.15-1.33-6.6-4.94-10.05.21-.39.58-3.94-.96-5.98-1.51,2.81-12.71,3.1-13.15,15.08-13.48,9.99-.27,19.99-.06,29.99-.06l.38-2.61c-10.68-4.81-21.35-9.63-32.62-14.7,1.63-3.85,3.02-7.14,4.41-10.43.84-.36,1.68-.72,2.52-1.08"/>
    <path class="cls-1" d="M654.92,688.23c.59-7.87,1-14.24,1.55-20.61.94-10.76.98-10.75,12.8-14.2.96,2.29,1.97,4.68,2.97,7.06-.78-.11-1.56-.22-2.34-.33-1.4,4.1-2.89,8.18-4.16,12.32-.46,1.51-.73,3.08-1.09,4.63-3.05,12.83.45,24.57,8.04,35.66,5.47-2.2,7.14,1.4,8.04,6.96-6.8,3.05-13.8,6.18-21.12,9.46-1.27-2.65-2.25-4.67-3.49-7.27,5.66-2.41,3.58-6.03,2.27-10.4-4.61-15.44-19.12-20.2-30.12-28.67-1.4-1.08-4.68.27-7.93.58-.88-1.79-2.05-4.15-3.19-6.45,9.91-7.21,11.12-7.26,20.13-1.03,5.44,3.76,10.85,7.56,17.63,12.29"/>
    <path class="cls-1" d="M809.98,287.26c-1.45,7.02-8.06,6.94-12.98,9.55-4.17,2.22-7.62,5.79-12.19,9.4-1.73-5.05-3.02-8.84-4.5-13.16,5.29-1.74,10.02-3.34,14.78-4.86,10.07-3.22,10.48-4.05,6.62-14.1-.4-1.04-.94-2.03-1.64-3.5-8,2.46-15.81,4.88-24.41,7.53-1.41-4.09-2.7-7.83-4.83-14.04,4.3,1.03,6.82,1.76,9.38,2.2,1.65.28,3.51.58,5.04.1,10.5-3.27,20.99-6.63,31.36-10.28,1.66-.58,2.69-2.84,4.15-4.16,1.81-1.64,3.77-3.11,6.62-5.43,3.31,10.43,6.44,19.45,8.9,28.66.51,1.93-.79,5.53-2.43,6.64-6.84,4.61-14.23,8.03-23.87,5.46M807.12,268.24c2.51,4.68,3.96,11.03,6.74,11.68,3.88.91,10.27-1.25,12.71-4.36,1.84-2.34-.83-8.23-1.6-13.22-6.39,2.11-11.46,3.79-17.85,5.9"/>
    <path class="cls-1" d="M347.97,39.59c1.11,7.97,2.23,16.08,3.44,24.81-4.13.83-7.84,1.58-14.05,2.84,1.39-3.91,2.41-6.46,3.18-9.08.48-1.63,1.03-3.44.79-5.06-1.53-10.69-3.09-21.37-5.1-31.97-.39-2.04-3.02-3.56-4.25-5.55-1.17-1.89-1.86-4.08-3.21-7.17,10.49-1.54,19.71-3.14,29-4.06,2.05-.2,4.88,1.49,6.42,3.16,3.95,4.3,4.4,18.9,2.17,22.46,2.31,4.48,4.52,7.98,5.97,11.77,1.63,4.25-.53,10.19,6.12,12.16.88.26.93,3.32,1.61,6.12-4.43.72-8.52,1.38-13.15,2.13-.8-5.03-1.52-9.29-2.14-13.56-1.82-12.5-3.64-13.55-16.81-9.02M346.42,32.17c5.3-2.03,11.47-2.55,13.14-5.56,1.67-3.01.23-10.03-2.43-12.49-2.34-2.16-8.26-.45-13.47-.45.94,6.33,1.7,11.4,2.76,18.5"/>
    <path class="cls-1" d="M162.44,118.88c4.98,6.75,9.87,13.36,15.26,20.67-3.36,2.57-6.53,5.01-10.12,7.75-1.85-2.85-6.38-4.17-2.45-8.53.46-.51-.23-2.57-.93-3.51-7.11-9.61-14.31-19.16-21.59-28.64-.7-.92-2.12-1.38-3.29-1.82-2.48-.93-5.02-1.71-9.39-3.16,9.49-7.08,16.65-12.82,24.29-17.82,2.03-1.33,6.51-1.57,8.24-.22,6.29,4.89,12.04,10.57,12.34,18.26,8.76,6.9,17,13.4,25.92,20.42-3.45,2.6-6.63,5-10.4,7.84-3.41-4.41-6.5-8.33-9.5-12.31-6.4-8.48-6.62-8.53-14.98-2.03-1.07.83-2,1.82-3.4,3.1M146.58,98.2c4.15,5.34,7.44,9.56,11.5,14.78,3.58-3.92,9.12-7.39,8.81-10.25-.42-3.93-4.64-9.21-8.39-10.46-2.82-.94-7.45,3.53-11.93,5.94"/>
    <path class="cls-1" d="M538.96,13.02c12.3,3.79,23.18,7.13,34.64,10.66-1.75,5.83-3.31,11.02-5.06,16.88-2.78-.84-5.05-1.52-7.61-2.29.83-3.46,1.51-6.29,2.3-9.59-4.38-1.32-8.47-2.55-13.32-4.01-1.65,5.27-3.13,10-4.88,15.59,4.91,1.71,9.55,3.33,15.01,5.23-3.67,12.67-11.77.95-17.78,4.53-1.35,4.13-3.09,9.46-5.08,15.54,4.89,1.6,9.32,3.06,14.14,4.64,1.35-3.32,2.44-6,3.77-9.29,2.16.42,4.29.85,7.45,1.47-1.8,6.03-3.46,11.6-5.35,17.95-11.59-3.54-22.64-6.92-34.78-10.63,11.73-17.2,18-35.31,16.57-56.68"/>
    <path class="cls-1" d="M144.31,142.41c1.97-1.79,3.46-3.14,5.67-5.15,4.19,4.44,8.15,8.66,12.53,13.31-8.85,8.27-17.18,16.05-26.42,24.69-9.48-18.46-21.68-33.69-41.03-42.57,9.2-8.58,17.57-16.39,26.48-24.71,4.07,4.26,7.94,8.3,12.25,12.8-2.21,2.04-3.95,3.66-5.87,5.43-2.52-2.39-4.64-4.41-7.12-6.76-3.32,3.11-6.45,6.04-10.12,9.47,3.77,4.12,7.24,7.91,11.1,12.13,4.07-3.58,7.62-6.71,11.78-10.38,1.73,1.84,3.34,3.55,5.75,6.11-4.21,3.48-8.05,6.66-12.13,10.04,4.57,4.85,8.46,8.98,12.8,13.58,3.7-3.5,7.11-6.72,10.66-10.08-2.14-2.67-3.98-4.97-6.34-7.92"/>
    <path class="cls-1" d="M0,309.2c1.22-5.05,2.17-8.98,3.31-13.66,14.48,3.54,28.57,6.58,42.39,10.56,6.25,1.8,7.96-.27,9.41-5.78,1.55-5.89-.11-8.29-5.94-9.59-13.86-3.08-27.59-6.7-42-10.26,1.14-4.55,2.12-8.45,3.21-12.75,3.41.67,7.62-1.17,7.17,4.88-.05.71,2.67,1.99,4.26,2.41,11.11,2.89,22.3,5.46,33.38,8.46,8.7,2.36,10.63,6.03,8.52,14.72q-4.84,19.94-24.88,15.03c-6.69-1.64-13.35-3.47-20.11-4.77-3.92-.75-8.45-4.72-11.92,1.42-.38.68-3.74-.32-6.82-.66"/>
    <path class="cls-1" d="M443.23,29.68c0,6.9-.66,13.8-.98,20.69-.29,6.22-3.4,9.77-10.23,9.14-4.81-.44-9.65-.54-14.48-.63-5.81-.1-8.56-3.46-8.47-8.74.25-14.03.79-28.06,1.46-42.07.27-5.5,3.66-8.2,9.17-8.07,5.06.12,10.12.31,15.18.43,6.04.14,8.69,3.56,8.77,9.24M435.22,12.94c-.33-7.19-6.31-4.26-10-5.05-3.46-.74-6.5.03-6.66,4.61-.38,11.24-.93,22.48-1.18,33.73-.15,6.81,5.31,4.9,9.02,5.21,3.54.29,7.71,1.17,7.76-4.77.05-5.51.47-11.01.72-16.52"/>
    <path class="cls-1" d="M719.11,185.94c-2.86-3.01-5.19-5.47-7.93-8.37,1.5-2.23,3-4.47,4.5-6.69q6.25-9.26-2.86-17.29c-2.24,1.49-4.68,3.08-7.08,4.72q-9.07,6.23-16.61-4.44c2.79-.84,5.19-1.52,7.56-2.28,2.07-.67,4.33-1.07,6.13-2.2,11.47-7.18,23.04-14.24,34.17-21.94,5.12-3.55,7.12-.18,10.21,2.53,3.25,2.85,3.32,5.18.82,8.71-6.89,9.74-13.6,19.62-19.93,29.73-2.29,3.65-7.44,6.56-4.53,12.51.35.72-2.69,3.09-4.44,5.01M738.56,138.51c-.39-.47-.79-.93-1.18-1.4-5.62,3.88-11.24,7.75-16.92,11.67,2.06,2.51,3.58,4.36,5.55,6.76,4.54-6.16,8.55-11.6,12.56-17.03"/>
    <path class="cls-1" d="M334.57,67.35c-10.99,4.25-11.12,4.31-15.48-5.34-2.29-5.05-4.21-10.36-11.17-6.29-1.86,1.08-3.14,3.47-4.18,5.52-.54,1.07.02,2.7.08,4.08q.49,10.47-11.85,12.86c.58-3.16,1.08-5.71,1.52-8.26.38-2.17,1.09-4.37,1.01-6.53-.46-13.55-.91-27.1-1.77-40.63-.29-4.49,1.53-6.11,5.52-6.77,3.76-.62,7.13-2.43,9.54,2.98,5.05,11.31,10.78,22.33,16.44,33.36,1.86,3.62,2.29,8.56,8.02,9.26.94.11,1.46,3.53,2.31,5.76M311.45,46.49c-3.15-7.18-5.99-13.65-8.83-20.12-.51.15-1.01.3-1.52.45.64,7.06,1.27,14.12,1.97,21.82,3.1-.79,5.39-1.38,8.38-2.14"/>
    <path class="cls-1" d="M484.93,62.47c1.13-5.43,2.14-10.29,3.32-15.99,2.74.54,5.04,1,7.63,1.51-.34,2.83-.61,5.05-.95,7.82,1.61.48,3.25,1.07,4.94,1.45,9.47,2.11,14.62-2.73,12.73-12.43-.31-1.57-2.86-3.35-4.71-3.87-17.12-4.81-17.14-4.73-13.46-22.1,2.69-12.7,4.31-13.79,16.65-11.06,5.36,1.19,10.69,2.5,16.74,3.92-1.02,4.87-1.99,9.47-3.1,14.73-2.77-.5-5.1-.91-7.67-1.37.31-2.79.55-4.98.82-7.41-1.77-.5-3.28-.99-4.82-1.35-8.99-2.09-13.98,2.52-12.22,11.77.29,1.55,2.92,3.3,4.78,3.81,17.83,4.92,17.85,4.85,13.91,23.19-2.65,12.32-5.41,14.13-17.54,11.38-5.55-1.26-11.08-2.6-17.06-4.02"/>
    <path class="cls-1" d="M205.32,120.27c-3.01-5.13-5.53-9.43-8.41-14.34,2.42-1.4,4.46-2.58,6.71-3.88,1.68,2.39,2.97,4.23,4.44,6.32,1.57-.71,3.02-1.27,4.38-2,8.91-4.8,9.68-11,1.83-17.74-1.17-1-4.31-.81-5.96,0-16.58,8.14-16.55,8.21-25.79-8.08-5.89-10.38-5.36-12.26,5.23-18.32,4.77-2.73,9.55-5.43,15.11-8.59,2.64,4.34,5.17,8.49,7.97,13.09-2.38,1.47-4.26,2.62-6.51,4.01-1.54-1.98-2.89-3.72-4.59-5.91-1.44.67-3.07,1.28-4.55,2.15-7.83,4.63-8.46,11.33-1.24,16.86,1.24.95,4.34.47,6.07-.38q16.87-8.31,25.97,8.01c6.18,11.09,5.48,13.7-5.57,20.19-4.72,2.77-9.51,5.43-15.09,8.6"/>
    <path class="cls-1" d="M582.67,27.66q11.89,2.53,9.95,12.81c-2.31,12.17-4.65,24.34-6.95,36.52-.06.32.3.73.83,1.93,6.85-10.84,13.4-21.27,20-31.66q5.89-9.28,16.21-3.96c-1.52,2.41.18,7.1-5.82,6.07-1.25-.22-3.39,2.59-4.56,4.36-8.29,12.64-16.44,25.38-24.52,37.9-1.28-.14-2-.08-2.62-.3q-9.99-3.5-8.1-13.94c2.07-11.53,4.29-23.03,6.03-34.61.4-2.65-1.22-5.54-1.37-8.34-.12-2.23.59-4.5.93-6.78"/>
    <path class="cls-1" d="M59.55,175.41c2.98-3.7,5.1-6.35,7.64-9.5,14.04,7.4,27.88,14.7,41.73,22,.31-.39.62-.77.92-1.16-8.13-9.49-16.26-18.99-24.39-28.48q-6.82-7.95,1.41-15.82c2.61,1.79,6.52,2.51,3.93,7.55-.49.96,1.53,3.52,2.78,5.02,9.6,11.44,19.29,22.79,28.9,34.11-3.58,10.35-6.73,11.81-15.51,7.25-10.19-5.3-20.29-10.76-30.56-15.9-3.16-1.58-6.18-5.19-10.57-1.69-.64.51-3.61-1.9-6.28-3.4"/>
    <path class="cls-1" d="M772.3,229.95c1.43,2.2,2.52,3.9,4.2,6.49-5.29,3.03-10.32,5.91-16.12,9.24-4.1-7.16-8.21-13.73-11.68-20.62-2.13-4.23-.76-7.98,3.6-10.47,11.97-6.82,23.86-13.77,35.84-20.57,4.93-2.8,9.15-2.38,12.2,3.05,3.36,6,6.91,11.89,10.95,18.82-5.16,2.93-10.01,5.69-15.3,8.7-1.39-2.26-2.56-4.15-3.99-6.48,2.63-1.9,4.97-3.59,7.58-5.48-.25-.84-.37-1.73-.77-2.46q-5.41-10.19-15.54-4.27c-5.75,3.35-11.57,6.6-17.31,9.97-10.89,6.38-11.02,7.49-2.18,18.18,2.54-1.22,5.17-2.48,8.51-4.08"/>
    <path class="cls-1" d="M287.67,80.68c-7.4,2.98-12.25,4.93-17.47,7.03-1.63-2.92-5.33-5.19-.44-8.46.52-.35.15-2.58-.32-3.74-4.78-11.9-9.67-23.76-14.77-36.22-2.32.81-4.35,1.51-6.75,2.34.68,2.62,1.23,4.76,1.92,7.44-2.02.94-3.99,1.85-6.59,3.05-1.99-4.85-3.77-9.21-5.94-14.51,12.18-4.94,23.93-9.7,36.36-14.74,2.14,5.14,3.94,9.48,5.95,14.31-2.53,1.07-4.52,1.91-6.79,2.86-1.35-2.38-2.44-4.31-3.74-6.6-2.29.86-4.33,1.62-6.79,2.54,5.1,12.55,9.96,24.63,14.96,36.65.44,1.07,1.67,1.89,2.67,2.63,2.02,1.51,4.14,2.9,7.75,5.39"/>
    <path class="cls-1" d="M694.33,85.02c5.43,4.17,9.74,7.48,16.18,12.42-4.18,1.43-6.64,2.14-8.99,3.14-1.14.48-2.3,1.31-3.05,2.29-7.79,10.22-15.51,20.5-23.7,31.38,3.09,2.27,5.93,4.35,9.03,6.63,2.74-3.16,5.1-5.89,7.79-9,2.09,1.64,3.99,3.14,6.37,5-4.02,5.32-7.71,10.19-11.88,15.71-8.96-6.72-17.51-13.12-26.43-19.81,1.92-2.88,1.97-7.22,7.26-4.92.65.28,2.52-1.51,3.41-2.66,6.73-8.73,13.47-17.47,19.9-26.42,1.13-1.57.6-4.25,1.19-6.31.67-2.32,1.75-4.52,2.91-7.44"/>
    <path class="cls-1" d="M657.21,61.26c6.44,4.08,11.01,6.97,17.81,11.28-3.88,1.83-6.19,2.82-8.39,4.01-1.1.59-2.06,1.5-2.97,2.37-.48.46-.75,1.15-1.11,1.73-6.41,10.31-12.83,20.62-19.68,31.64,3.17,2.08,6.11,4,9.5,6.23,2.35-3.39,4.4-6.33,6.8-9.79,2.26,1.3,4.33,2.49,7.01,4.02-3.53,5.74-6.82,11.1-10.46,17.02-9.88-6.17-19.12-11.95-30.5-19.06,4.12-1.82,6.65-2.71,8.93-4.02,1.46-.84,2.87-2.1,3.77-3.51,5.93-9.27,11.8-18.59,17.47-28.03.84-1.4.5-3.51.72-5.29.29-2.33.6-4.66,1.11-8.6"/>
    <path class="cls-1" d="M401.04,582.93c10.26,0,19.17-.16,28.07.07,4.24.11,6.71,2.6,6.71,7.11,0,8.49-.03,16.99.04,25.48.04,4.86-2.44,7.25-7.13,7.32-7.57.11-15.15.15-22.72,0-1.33-.03-2.64-1.14-3.96-1.75.68-1.22,1.36-2.44,2.05-3.66.71-1.26,2.02-2.49,2.06-3.76.2-7.34.5-14.72-.1-22.02-.22-2.67-2.83-5.14-5-8.79M414.45,617.29q13.76,1.26,13.77-11.62c0-2.06,0-4.12,0-6.18q0-11.94-12.28-11c-.39.03-.76.41-1.5.83v27.98Z"/>
    <path class="cls-1" d="M453.94,622.62h-11.55c-.09-1.23-.77-3.06-.19-3.65,8.58-8.77,2.01-19.4,3.62-28.98.09-.56-1.68-1.29-2.27-2.15-.69-1-1.67-2.49-1.35-3.31.33-.85,2.06-1.62,3.19-1.64,7.34-.13,14.72-.43,22.02.19,2.41.21,6.25,2.68,6.58,4.61.77,4.53-.18,9.35-1.38,13.65,1.04,3.43,2.08,6.86,3.1,10.3.55,1.87.92,3.8,1.6,5.62.54,1.47,1.41,2.83,2.14,4.24-1.62.49-3.2,1.19-4.86,1.42-1.77.25-3.6.06-6.21.06-.17-3.05-.43-5.69-.45-8.33-.07-9.42-.32-9.71-9.65-9.56-1.13.02-2.25.16-4.32.31v17.21ZM454.16,587.32v13.1c4.53-.9,8.8-1.06,12.25-2.83,1.09-.56.95-7.27-.31-7.93-3.28-1.71-7.49-1.62-11.94-2.34"/>
    <path class="cls-1" d="M550.81,622.68h-10.38c-.11-1.2-.61-2.51-.21-2.91,8.75-8.64,7.6-20.9,11.34-31.34,1.66-4.64,3.76-5.74,8.28-5.81,4.6-.08,6.45,1.63,7.5,5.87,2,8.02,4.46,15.93,6.78,23.87.45,1.52.98,3.06,1.75,4.44.96,1.71,2.2,3.27,3.31,4.89-1.91.45-3.97,1.56-5.68,1.17-2.04-.47-3.88-2.11-5.61-3.5-.57-.46-.57-1.71-.71-2.61-.66-4.37-2.37-6.6-7.59-6.65-5.66-.05-6.31,3.14-7.13,7.1-.37,1.79-1.06,3.51-1.67,5.46M555.81,604.44h7.98c-1.29-4.97-2.39-9.19-3.48-13.41-.52,0-1.05,0-1.57-.01-.89,4.1-1.79,8.21-2.93,13.42"/>
    <path class="cls-1" d="M365.99,602.68c0-3.44-.02-6.88,0-10.31.06-7.7,1.65-9.4,9.12-9.56,4.58-.1,9.17-.02,13.75.01,4.97.04,7.71,2.36,7.69,7.54-.03,8.25,0,16.5-.01,24.75-.01,5.37-2.69,8.04-8.1,7.88-.46-.01-.92,0-1.38,0-23.46.09-21.05,1.54-21.07-20.32M388.94,603.09c0-2.98-.24-5.98.05-8.93.64-6.47-3.66-6.14-7.95-6.18-4.16-.05-7.92-.08-7.62,5.88.28,5.48.34,11.01-.02,16.48-.37,5.61,1.62,7.58,7.38,7.64,6.09.07,9.12-1.47,8.21-8.03-.31-2.25-.05-4.57-.05-6.86"/>
    <path class="cls-1" d="M612.61,582.87c.17,2.61.7,4.5.27,6.13-.43,1.63-1.61,3.95-2.86,4.24-1.34.31-3.98-.97-4.63-2.27-2.89-5.79-7.61-2.4-11.36-2.18-.99.06-2.41,4.36-2.34,6.68.04,1.39,2.37,3.26,4.06,3.89,1.81.68,4.08.17,6.14.18,10.73.06,11.79,1.14,11.71,11.95-.07,9.97-1.66,11.55-11.68,11.6-5.69.03-11.38,0-17.51,0v-11.03c3.27-.5,5.48-1.41,7.64,2.99.99,2.01,7.25,2.31,10.84,1.73,1.38-.22,3.04-5.26,2.61-7.75-.28-1.58-4.17-2.58-6.5-3.72-.56-.27-1.36-.04-2.05-.04-11.84-.04-16.78-7.17-12.31-18.29.69-1.71,3.19-3.12,5.15-3.76,2.1-.68,4.54-.33,6.84-.34,5.22-.03,10.43-.01,15.98-.01"/>
    <path class="cls-1" d="M401.9,59.57c-5.9.41-11.06.77-17.5,1.23,5.12-20.14,4.2-39.27-4.09-58.42,5.34-.45,9.62-.99,13.91-1.06,1.22-.02,3.24,1.14,3.5,2.13.41,1.53-.19,3.44-.71,5.08-.68,2.19-2.48,4.3-2.42,6.41.22,8.01.74,16.04,1.66,24,.57,4.94-1.98,11.03,4.71,14.28.97.47.6,3.69.94,6.36"/>
    <path class="cls-1" d="M622.04,108.55c-6.28-3.16-10.95-5.52-16.6-8.36,14.99-14.42,23.92-31.43,26.83-52.44,5.53,2.79,10.32,5.21,15.85,8-14.76,14.7-24.51,31.2-26.08,52.81"/>
    <path class="cls-1" d="M352.73,616.96c.31-4.6,1.2-8.45,7.44-5.89v11.74c-7.48,0-14.82.54-21.99-.32-2.28-.27-5.66-4.17-5.85-6.63-.7-8.67-.69-17.47.06-26.13.21-2.42,3.68-6.2,6-6.49,6.95-.87,14.08-.31,21.57-.31v11.05c-5.6,3.03-7.66.22-7.81-5.66-2.58-.12-4.83-.16-7.07-.34-4.19-.33-5.78,1.61-5.58,5.7.2,4.12.04,8.27.04,12.4,0,12.13.26,12.35,13.19,10.87"/>
    <path class="cls-1" d="M214.31,47.55c5.92-2.73,10.46-4.83,16.2-7.48,1.77,20.76,9.19,38.59,24.22,53.68-5.89,2.66-10.59,4.79-16.34,7.39-2.2-20.62-9.45-38.34-24.07-53.58"/>
    <path class="cls-1" d="M103.84,215.65c-3.77,5.76-6.62,10.12-10.11,15.46-12.87-16.61-28.97-27.12-49.46-32.14,3.42-5.19,6.29-9.54,10.61-16.08,1.79,3.73,2.78,6.04,4,8.22.72,1.27,1.61,2.65,2.78,3.43,9.41,6.2,18.85,12.35,28.42,18.3,1.43.89,3.59.56,5.39.92,2.5.5,4.98,1.11,8.36,1.88"/>
    <path class="cls-1" d="M528.81,617.12c.31-2.5.59-4.71.93-7.33,2.2-.15,4.16-.28,6.77-.45v13.58c-9.06,0-18.35.08-27.62-.2-.58-.02-1.77-3-1.48-4.34.69-3.2,2.74-6.19,3.07-9.38.54-5.22.27-10.54.08-15.81-.06-1.64-.87-3.29-1.55-4.84-.64-1.44-1.58-2.74-2.39-4.1,1.41-.46,2.79-1.14,4.23-1.32,1.81-.23,3.68-.21,5.5-.03,1.96.2,3.89.71,5.83,1.08-.85,1.58-1.88,3.09-2.5,4.76-.54,1.45-.85,3.07-.88,4.62-.11,5.27-.06,10.55-.05,15.83q.02,8.92,10.08,7.93"/>
    <path class="cls-1" d="M484.27,582.88c4.72,0,8.56-.05,12.41.02,3.66.07,4.15,1.66,2.4,4.72-1.23,2.14-2.58,4.55-2.73,6.91-.39,5.92-.29,11.89-.03,17.83.08,1.77,1.32,3.5,2.02,5.24.53,1.31,1.45,2.65,1.37,3.93-.03.55-2.13,1.33-3.32,1.39-3.63.18-7.27.07-11.71.07,5.23-13.49,6.27-26.46-.4-40.1"/>
    <path class="cls-1" d="M790.52,321.89c-1.89-2.78-3.9-4.44-3.86-6.06.03-1.32,2.65-3.76,3.84-3.6,1.69.22,4.23,2.27,4.37,3.73.14,1.48-2.21,3.19-4.35,5.93"/>
    <path class="cls-1" d="M775.09,255.03c-3.04,1.7-4.83,3.47-6.58,3.43-1.26-.03-2.45-2.49-3.67-3.86,1.6-1.33,3.07-3.37,4.86-3.72,1.15-.22,2.79,2.05,5.39,4.16"/>
    <path class="cls-1" d="M296.73,602.56c0-3.44-.02-6.88,0-10.31.06-7.7,1.65-9.4,9.12-9.56,4.58-.1,9.17-.02,13.75.01,4.97.04,7.71,2.36,7.69,7.54-.03,8.25,0,16.5-.02,24.75-.01,5.37-2.69,8.04-8.1,7.88-.46-.01-.92,0-1.37,0-23.46.09-21.05,1.54-21.07-20.31M319.68,602.96c0-2.98-.24-5.98.05-8.93.64-6.47-3.66-6.13-7.95-6.18-4.16-.04-7.92-.08-7.62,5.88.28,5.48.34,11.01-.02,16.48-.37,5.61,1.62,7.58,7.38,7.64,6.09.07,9.12-1.47,8.21-8.03-.31-2.25-.05-4.57-.05-6.86"/>
    <path class="cls-1" d="M285.08,617.04c.31-4.6,1.2-8.45,7.44-5.89v11.74c-7.48,0-14.82.55-21.99-.32-2.28-.27-5.66-4.17-5.85-6.63-.7-8.67-.69-17.47.06-26.13.21-2.42,3.68-6.2,6-6.49,6.95-.87,14.08-.31,21.57-.31v11.05c-5.6,3.03-7.66.22-7.81-5.66-2.58-.12-4.83-.16-7.07-.34-4.19-.33-5.78,1.61-5.58,5.71.2,4.12.04,8.26.04,12.4,0,12.13.26,12.35,13.19,10.87"/>
  </g>
  <path class="cls-1" d="M330.5,287.52c-.36-.78.25-.88.28-1.24,2.18-1.91,5.32-7.03,6.87-5.53,1.29,1.92-4.56,3.31,1.21,9.28.88.92,1.83,1.71,2.61,2.61-6.47,7.73-7.3-2.64-10.97-5.12"/>
  <path class="cls-1" d="M326.95,286.21c-5.49,4.36-4.08,12.48.94,16.79,2.58,2.21,5.66-.54,3.04-4.31-3.71-5.32-1.67-6.42-3.05-11.7-.23-.89.03-.85-.92-.78M329.76,287.14c-.08-.03-.15-.05-.23-.07,1.51,3.77,7.12,12.59,11.83,6.86.3-.36.61-.7.92-1.06-1.31-4.64-7.57-3.16-4.12-10.07.87-1.75.71-2.32-1.13-3.4-1.18-.05-7.18,6.4-7.24,7.52l.05-.02c-.05.09-.08.17-.08.24M346.81,272.88c-1.82.65-4.25,1.99-4.68,3.97,3.3,2.96,7.26,6.64,8.58-1.06.47-2.74-1.4-3.68-3.9-2.9M354.54,296.26c-.59.17-3.03.62-3.35.87-.22.17-.09.98.02,1.25.26.01.66-.04.92-.14.06.75,1.11,2.82-.61,2.81-2.16-.02-2.46-4.69-1.58-6.13.98-1.61,2.2-1.05,2.75.46.03.09.05.18.09.25,0,.16.05.34.13.44,1.59-.23.92-.74.74-2.02-.06-.41-.17-2.05-.35-2.26-.56,0-1.18.56-.88,1.01-.44-.34-1.38-.47-1.76-.38-4.22.57-4.15,9.97.05,10.26.79.05,2.65-.69,2.99-1.58.05.24.16.54.21.73.33.09,1.01-.13,1.3-.28,0-.62-1.19-3.59-.53-3.93.8-.4.79.09.41-1.08-.05-.15-.05-.27-.16-.37-.14.02-.27.05-.4.09M357.36,292.77c-.02.6.32,2.2.37,2.84.04.6.27,4.02.48,4.29l-.02.05c-.14-.05-1.04.09-1.28.16-.03.17.11,1.13.22,1.3.8-.13,1.47-.22,2.29-.3.83-.1,1.61-.36,2.45-.41.14,0,.21.02.33-.03.03-.25.02-1.3-.3-1.26-.3.09-.98.09-1.28.21.11-.34-.32-3.42-.38-3.96-.05-.41-.19-3.35-.24-3.42l.07-.02.05-.02c.32-.12.73-.08,1.06-.16-.01-.37-.1-.81-.21-1.16-.31.06-.63.16-.95.21-.45.08-3.5.4-3.62.53-.16.17,0,.9.08,1.14.27,0,.91-.26,1.1-.08-.05.02-.1.04-.15.07-.02-.04-.05-.08-.08-.08,0,.03,0,.07-.01.11M328.49,307.69c-.14-.07-.28-.13-.44-.19-10.56-4.11-3.82-22.37,1.22-28.85,3.88-4.99,7.55-7.39,11.77-10.51,2.4-1.62,4.7-3.15,5.66-3.54.16-.07.31-.11.45-.15,3.28,4.78,15.65-10.22,16.09,1.49.19,5.06-2.2,19.92,3.37,24.32-1.08.19-2.12.42-3.24.5-.15.01-.29,0-.45.02-.16.24-.06,1.33.11,1.59.27-.03.81-1.11,1.09.21.37,1.71.38,3.88.57,5.65.14,1.28-.2,1.18-1.24,1.49-.02.21.05,1.23.11,1.31,1.24-.07,2.72-.32,4.01-.46,1.67-.18,3.56-.44,5.21-.75.03-.11-.41-4.05-.48-4.19-.01-.03-.02-.1-.02-.13-.34-.09-.89.03-1.24.1-.21.74.33,1.45-.22,2.4-.44.78-1.96.91-2.79,1.02-.93.12-.62-1.57-.67-2.27-.08-1.02-.71-4.31-.31-5.07.24-.45.89-.31,1.34-.36v-.15c1.18.38,2.6.41,4.32.02-.01.41.1.74.61.61.85-.2.69.85.78,1.52.11.85.67,4.32.3,4.9-.23.36-.83.31-1.21.38-.03.33.04.73.07,1.05,0,.03-.05.04-.04.15.63-.04,1.49-.3,2.23-.36.62-.05,1.51-.06,2.43-.14.48.82.99,1.64,1.52,2.45-2.81-.18-7.55.19-9.18.17.08.14.26.26.51.36-.46,2.76,1.37,8.58,1.63,11.54,3.61.09,10.8.63,14.7-.5-.63,1.63.46,3.57,2.89,7.47l.15.23c-.62.21-1.24.4-1.85.57l-.27.08c-.3.01-.59.03-.87.03-4.12.15-8.05.08-12.86-.33-.77-.06-2.42-.33-3.87-.27,1.76-2.22,2.41-4.78.26-7.06-1.61-1.69-4.04-2.16-6.33-1.75-1.96.29-4.72,1.38-7.46,2.99,1.06-2.78,1.13-7.62-.94-9.58-1.46-1.38-3.38-1.71-5.32-1.38-1.47.31-3.07,1.04-4.65,2.07.41-1.79.5-3.89.19-4.83-1.01-3.07-3.6-4.26-6.7-3.83-2.89.94-7.75,5.24-10.93,9.96"/>
  <path class="cls-1" d="M294.78,322.35c-.54-.27-1.03-.48-1.43-.58-1.99-.51-7.75.1-11.16.36-16.57,6.53-18.79,25.51-18.79,42.55,0,9.95,3.24,12.15,5.85,20.52,2.67,8.58-.44,21.41,1.98,30.98,3.36,4.22,5.38,8.58,11.36,9.71,18.34,3.44,20.39-12.64,17.64-26.24-2-9.88-9.28-19.45-6.08-29.45,4.07-12.72,18.98-30.82,6.29-43.5-.88-.88-3.82-2.76-5.66-4.35M309.27,370.87c-.4.74-.07,1.48.55,2.03,1.43,1.28,4.43,1.52,3.79-1.75l-.07-.25c-.07-.4-.28-.75-.63-.96-.51-.45-1.22-.62-1.93-.41-.93.41-1.47.88-1.71,1.35M313.14,380.04c-.12.09-.23.19-.32.29-3.05-.44-3,1.89-1.97,3.31.51.71,1.27,1.19,2.01.99.5-.13.99-.59,1.39-1.5.12-.27.19-.53.21-.78.44-.8-.09-2.06-1.31-2.31M309.73,359.15c-.08,1.19,1.45,1.94,2.88,1.97.13.07.28.14.44.19.14-.07.26-.16.35-.26,1.21-.23,2.08-1.1,1.35-2.82-.5-1.19-1.35-1.8-2.58-1.59-.16.02-.32.07-.49.12-1.37.9-1.93,1.71-1.96,2.39M322.01,396.59c.44-.52.92-1.01,1.29-1.38.16-.16.3-.3.41-.42l-.11-.23c-.72-1.56-1.27-4.46-1.55-5.44-.57-1.98-2.21-10.53-2.12-15.26-.07.09-.16.19-.25.31l-.04-.2c-.09-.4-.27-.66-.27-.68v-.08c-.53.61-1.06,1.21-1.58,1.69-.16,5.45.27,10.87,2.38,16.2.94,2.38,1.53,4.1,1.84,5.49M326.63,369.48c.68,2.33.9,6.97,1.14,8.49.16,1.01,1.16,5.14,1.63,7.8.05.27.09.53.13.77,1.68-2.18,3.44-4.31,5.29-6.41l-.09-.05c-1.2-.6-2.36-3.46-2.68-4.25-.5-1.26-2.33-7.85-1.97-11.01-1.15.81-2.27,1.65-3.35,2.54.07.64.02,1.4-.09,2.12M342.7,308.29c-3.29.45-6.23-3.62-6.23-6.28-3.83,3.37-7.62,9.47-8.22,11.56-1.74,6.06,2.18,5.54,5.6,4.96.93-2.56,5.47-7.8,8.85-10.25M343.66,306.46c.56-1.12,1.13-2.29.19-4.44-1.26-2.86-3.4-2.77-5.71-1.29.21.45.17,1.13.29,1.71.89,4.38,3.72,3.64,5.23,4.02M338.19,360.02c.19.42.2.98.03,1.44.31,1.49.1,3.63.18,4.71.08,1.07,1.28,6.11,1.84,8.51,1.72-1.43,3.49-2.64,5.29-3.64-2.06-2.67-4.93-10.05-4.07-12.49-1.1.46-2.2.95-3.28,1.48M346.99,307.99c-4.44,3.23-8.47,10.12-8.69,13.72-.44,7.03,4,5.07,7.29,4.27,1.29-3.25,6.79-8.17,8.73-9.12-.18-.8.34-2.16.77-3.66-3.07,1.17-9.25-1.13-8.1-5.22M348.61,307c.21.44.08,1.2.19,1.78.82,4.31,4.79,2.17,6.74,2.49.23-1.65-.02-3.26-1.7-4.33-1.59-1.02-3.41-.85-5.23.07M364.63,170.01c-5.73,1.93,2.77,6.35.89,1.02-.16-.45-.51-.77-.89-1.02M364.24,314.55c.09.57-.23,1.04-.39,1.72-1.32,5.58,1.95,4.09,3.54,4.9,2-1.54,3.3-3.28,1.87-5.19-1.06-1.42-2.88-1.78-5.02-1.42M376.54,302.82c-1.95.06-4.01-.03-5.24-.34.61,2.76,1.18,5.53,1.53,8.34.3-.07.61-.13.92-.19-1.13-2.04.5-6.05,2.79-7.81M377.1,297.91l.02.1h.04s-.06-.1-.06-.1ZM375.9,374.5c-.08,1.37-.12,2.7-.14,3.95.86-.54,3.42-.82,5.45-.92-1.79-1.13-3.55-2.14-5.31-3.02M381.96,199.86c-.64-.13-1.29-.24-1.94-.33-1.29.39-3.02-.03-4.57-.28-2.11-.01-4.18,0-6.24.04.71.49,1.4,1.18,2,1.58,3.62,2.43,7.08,5.12,10.58,7.72-.41-2.17-.6-6.92.16-8.72M367.17,324.12c-2.75,1.97-5.81,3.13-6.74,2.59-.46-1.03,1.98-2.33,4.49-3.88-3.2-.63-3.69-5.63-2.54-7.81-7,2.27-15.65,10.51-12.16,14.78,3.91,4.79,22.02.21,26.92-2.13.66-.32,3.24-1.85,5.49-3.16-5.92.94-13.3,1.57-15.46-.39M379.91,302.53c-.53.09-1.15.16-1.83.21-4.66,3.15-2.37,4.91-4,7.84,3.41-.47,7.39.03,9.62-3.11-1.28-1.46-2.59-3.16-3.8-4.94M384.06,398.76c-1.77.17-4.2.07-5.6-.25,1.25,2.91,2.99,4.14,5.37.61.08-.12.16-.24.24-.36M377.99,397.25c.43-.19.99-.16,1.54-.08,1.02-.14,3.9-.46,5.51,0,.43-.74.84-1.5,1.23-2.28-2.45.5-6.72.73-8.85.42.17.68.36,1.33.57,1.95M386.31,381.03c-.76-.56-1.52-1.1-2.28-1.63-3.08.21-7.33.14-8.28-.53-.01.9-.01,1.75,0,2.54.2-.05.44-.04.81-.1,1.17-.18,6.05-.31,9.76-.29M383.33,181.07c.58-2.27,1.72-4.56,3.49-6.75l.09-.1c-2.1-.25-5.05-1.25-6.67-2.13.16,2.89.1,6.17-.46,8.2,1.09.19,2.49.5,3.56.77M388.23,352.7c-.6-1.05-1.43-1.87-2.64-1.9-1.41.33-2.63,1.1-3.68,2.2,1.56-.31,3.66-.14,5.06-.18.41-.12.86-.18,1.25-.12M383.36,393.44c.86-.11,2.56-.5,3.68-.23.43-.97.83-1.98,1.2-3-2.17.26-9.13.41-11.82-.1.19,1.29.43,2.69.73,4.04,1.7-.6,5.13-.67,6.21-.71M387.43,312.68c.23-.33.54-.65.93-.99-1.18-.69-2.62-1.98-4.11-3.62-1.49,1.6-8.12,4.23-11.38,3.15.08.68.15,1.37.2,2.05,2.05.05,11.23-.66,14.35-.59M389.21,387.15c-1.56.23-10.13.29-13.21-.32.07.65.15,1.41.26,2.23,2.23-.71,7.69-.79,9.01-.73.87-.09,2.51-.4,3.61-.09.11-.36.22-.72.32-1.09M383.96,356.52c.84-.73,3.65-.78,5.45-.66-.14-.51-.31-1.13-.54-1.75-1.53.72-6.46.9-7.75-.18-.26.34-.51.71-.75,1.1,1.21.46,2.42.96,3.59,1.49M375.92,385.99c2.96-.56,11.26-.53,12.97-.53.27-.06.54-.06.77,0,.09-.37.18-.74.26-1.11-.58-.3-1.11-.79-1.61-1.31-3.73.18-10.47-.01-12.55-.68.02.96.05,1.81.08,2.54.01.26.04.64.08,1.1M379.4,301.77c-.53-.81-1.04-1.63-1.52-2.45-.92.08-1.81.1-2.43.14-.74.05-1.6.32-2.23.36-.01-.11.04-.12.04-.15-.03-.33-.1-.72-.07-1.05.38-.07.98-.02,1.21-.38.37-.58-.19-4.04-.3-4.9-.09-.67.07-1.72-.78-1.52-.51.13-.63-.2-.61-.61-1.72.39-3.14.36-4.32-.02v.15c-.45.05-1.09-.09-1.34.36-.41.75.23,4.05.31,5.07.05.7-.26,2.4.67,2.27.83-.11,2.35-.24,2.79-1.02.55-.95.01-1.66.22-2.4.35-.07.91-.19,1.24-.1,0,.03.01.1.02.13.07.13.51,4.08.48,4.19-1.64.32-3.54.57-5.21.75-1.29.14-2.77.38-4.01.45-.05-.08-.13-1.1-.11-1.31,1.04-.32,1.38-.21,1.24-1.49-.19-1.77-.2-3.94-.57-5.65-.28-1.32-.82-.25-1.09-.21-.17-.26-.27-1.35-.11-1.59.16-.02.3-.01.45-.02,1.12-.08,2.17-.31,3.24-.5-5.56-4.4-3.18-19.26-3.37-24.32-.44-11.71-12.81,3.29-16.09-1.49-.14.04-.29.08-.45.15-.96.39-3.26,1.91-5.66,3.54-4.23,3.12-7.89,5.53-11.77,10.51-5.04,6.48-11.79,24.74-1.22,28.85.16.06.3.12.44.19,3.18-4.72,8.04-9.02,10.93-9.96,3.1-.44,5.69.76,6.7,3.83.31.95.22,3.05-.19,4.83,1.59-1.03,3.18-1.76,4.65-2.07,1.94-.32,3.86,0,5.32,1.38,2.07,1.97,2.01,6.8.94,9.58,2.74-1.61,5.5-2.7,7.46-2.99,2.29-.41,4.72.06,6.33,1.75,2.16,2.28,1.51,4.84-.26,7.06,1.45-.05,3.1.21,3.87.27,4.81.41,8.74.48,12.86.33.28,0,.57-.02.87-.03l.27-.07c.61-.17,1.23-.36,1.85-.58l-.15-.23c-2.43-3.9-3.52-5.84-2.89-7.47-3.91,1.13-11.1.59-14.7.5-.26-2.96-2.09-8.78-1.63-11.53-.26-.1-.43-.23-.51-.36,1.64.02,6.37-.35,9.18-.17M390.43,360.39c-.18-.98-.38-1.95-.6-2.9-1.02.18-2.35.25-3.5.17.98.51,1.87,1.04,2.64,1.58.19.13.38.25.56.38.18.12.51.4.9.77M379.04,357.13c-.63-.23-1.26-.44-1.88-.65-.42-.14-.85-.27-1.28-.39-10.21-2.94-21.01-2.27-30.97,1.15.84.95,4.37,8.78,5.34,11.67,7.66-2.7,15.8-2.07,23.74.88.74.28,1.47.57,2.2.88,4.62,1.97,9.15,4.7,13.44,7.99.43.33.81.7,1.13,1.07.66-4.73.77-9.57.35-14.21-.03-.35-.06-.71-.1-1.06-.43-.36-1.41-1.28-2.37-2.14-.79-.7-1.58-1.36-2.08-1.65-2.38-1.39-4.82-2.54-7.32-3.47l-.2-.07ZM383.39,200.18c.57,1.95.13,5.55.44,7,1.25-.55,4.87-3.13,7.72-4.38-2.72-.99-5.4-1.95-8.16-2.62M394.94,204.02c1.18,1.42-.17,7,.11,8.1,1.32-.79,6.53-3.96,10.28-5.52-3.7-.42-7.1-1.44-10.39-2.58M406.12,183.31c-1.81,1.41-2.32-.17-3.44,3.15-.39,1.14-.69,2.56-.23,3.71,2.52-.37,5.44-4.51,3.67-6.86M410.77,355.83c-.33-.18-.62-.36-.87-.56-2.75-.06-8.13-1.81-8.66-1.92-1.06-.23-4.54-.84-8.1-1.54,1.04,1.59-.33,2.91,2.99,3.03,4.93.18,9.78.6,14.65.99M396.86,461.01c0-.15.06-.32.13-.56l.05-.19c.87-3.41,11.88-10.91,15.11-12.12l.27-.07c-.9-2.92-.51-6.26.91-8.99-4.86-2.25-10.59-6.04-14.52-10.33-3.67,2.38-7,5.2-9.95,8.65-6.73,7.9-9.23,15.35.06,20.36.72.39,1.51.77,2.38,1.13,1.83.75,3.68,1.46,5.56,2.13M400.21,462.18c2.52.86,5.06,1.69,7.61,2.54.02-.15.06-.31.13-.48.98-2.49,6.91-6.9,10-8.9.1-.06.2-.13.29-.19-.46-.34-.91-.7-1.35-1.08-.78-.67-1.54-1.39-2.27-2.18-.9.94-3.07,1.55-3.97,2.09-1.41.83-6.68,5.26-9.74,7.67-.25.19-.48.37-.7.54M402.66,262.02c-.06-.91-.11-1.82-.16-2.7-.04-.73-.08-1.44-.1-2.1-.03-.21-.06-.41-.09-.62l-.05-.31c-.11-.65-.25-1.28-.42-1.87-.53-1.83-1.37-3.4-2.67-4.49-1.44-1.21-2.76-1.48-3.94-1.24-.74.14-1.43.49-2.05.91-1.62,1.11-2.85,2.8-3.64,3.17.61,3.66.81,9.42-1.69,7.62-1.44-1.02.75-7.83-2.13-10.42-3.61-3.24-6-.61-7.75.49.16.37.32.77.45,1.18.37,1.11,2.74,12.66-1.2,9.6-.35-.62-.17-.95-.17-1.64,0-3.69-.4-8.13-2.59-10.49-.91-.98-2.13-1.6-3.77-1.66-.86-.03-1.83.1-2.94.41-1.36.39-4.15,2.75-5.6,3.91-.17.27-.38.42-.63.49l-.27.16c-.15-.05-.25.02-.38-.09-.35-.01-.73-.09-1.1-.14-5.11-.72-8.69-.3-11.08,4.91-.05.12-.1.23-.15.34-.57,1.31-.86,2.28-.91,2.99-.27,3.55,5.17.42,7.67-1.08,17.42-10.44,9.83,15.73,11.44,24.06.89,4.65,5.8,3.36,8.62,3.44-.15-1.19-.03-2.12.46-2.63,1.41-.49,1.5.62,1.74,1.66.35,1.48.73,2.9,1.16,4.29l.04.12c.38,1.22.8,2.41,1.27,3.58l.06.15.06.16.05.11c.48,1.17,1.01,2.32,1.61,3.47l.04.07c.65,1.24,1.37,2.47,2.17,3.71.75,1.17,5.01,5.94,6.93,8.32.46-.29.97-.6,1.53-.93.89-.53,4.33-3.22,6.45-4.86-.36-.39-.67-.83-.86-1.15-5.39-9.07-1.13-15.3,6.9-20.01,2.17-1.27,9.56-4.98,14.47-8.24-1.97-1.22-3.65-4.5-2.21-7.1-3.5.94-7.27,2.77-8.4,3.56-.92.64-3.16,3.69-4.52,4.2-1.63.86-3.79.54-1.97-2.17h.03c0-.16.01-.33,0-.51-.1-2.76.3-6.73.31-10.67M398.35,322.19c.25.24.52.54.81.9,7.78,9.65,14.49,8.07,20.51,2.73-1.39-1.43-2.43-5.38-3.22-6.72-.84-1.4-4.43-4.02-5.7-5.64-.4.32-.79.43-1.15.39-.71.38-1.74.65-2.61.78-1.02.53-2.34.93-2.98,1.38-1.37.97-3.77,4.62-5.65,6.17M421.42,273.28c1.43-1.1,2.4-2.09,2.53-2.82.56-3.1-1.67-3.73-4.6-3.3-.11.26-.24.53-.33.79-1.48,4.43.9,4.79,2.4,5.34M409.68,311.43l.17.13c1.47-3.4,1.54-7.27,2.6-10.8,1.64-5.42,7.85-17.06,13.73-22.71-.02-.38,0-.85.09-1.44,1.34-8.94,1.98-12.19-7.79-14.94-1.09-.31-5.35-1.06-9.13-1.77-2.06-.31-3.75-.59-4.63-.88.44,3.65.79,8.49.44,11.81,3.56-3.07,10.91-5.51,13.31-5.85,1.93-.24,4.05-.11,5.65,1.05,7.48,5.41-4.69,11.08-8.3,13.11-6.78,3.82-19.68,8.78-17.5,18.21.28,1.21,1.57,3.81,2.39,5.53,1.52.59,8.81,7.45,8.98,8.52v.03ZM419.97,469.22c2.38-2.62,8.59-6.78,11.62-8.56-.12-.02-.25-.05-.37-.07-2.16-.42-4.26-.99-6.29-1.77-.1.04-.2.11-.31.18-.11.08-.25.17-.41.3-1.91,1.43-6.87,5.7-9.71,7.62l-.1.07c.59.22,1.19.44,1.78.66.91.35,1.83.7,2.74,1.07.26.1.62.27,1.06.5M432.66,204.99c-4.44,0-9.16.61-13.76,1.11-.06.18-.13.37-.2.62-.06.25-.21.69-.4,1.25-.07,2.06-1.24,4.99-1.52,6.05.3-.12.64-.33.96-.4,4.24-.95,10.41-5.77,14.92-8.63M414.53,164.59c-4.26.28-8.29.45-11.01-.37-8.59-2.56-22.36-24.71-30.02-10.97-1.62,2.9-.51,5.96-.48,7.37,3.21,2.19,5.74,4.3,6.4,5.88.13.32.27.89.39,1.63,2.71.55,8.24,2.59,11.05,4.17,3.5-1.14,8.16-2.04,10.05-2.19,2.09-.35,4.32.01,6.38.22,5.68.57,18.87,1.19,22.78,6.67,1.32-2.61,6.06-6.91,3.07-10.29-2.65-3-9.15-2.76-15.7-2.33-.97.06-1.95.14-2.92.2M413.85,216.05c.07-.54.49-1.97,1.02-3.59.28-1.91,1.05-4.45,1.79-6.11-2.56.26-5.06.45-7.44.47-.3.77-1.44,1.03-2.24,1.39-2.4,1.1-9.43,5.53-11.83,6.36-.16.06-.3.1-.42.12-2.95.54-1.91-7.39-1.13-10.16-2.26,1.23-8.35,4.16-10.6,4.96,2.16,1.58,4.33,3.11,6.57,4.5,1.84,1.15,3.77,1.75,5.74,2.05,5.74.88,11.93-.73,17.87,1.34.75.26,1.5.58,2.24.97,6.75,3.56,15.52.51,20.97-5.13-2.72,1.45-6.25,2.74-7.05,1.74-.08-.5.98-3.91,1.87-6.28-.6.35-1.12.64-1.43.84-2.18,1.38-14.33,8.87-15.96,6.7v-.17ZM436.63,176.12c1.02-.94,1.84-2.44,2.4-3.7-.71-.26-1.96-.48-2.99-.86-.36.96-.92,2.25-1.58,3.51.63.33,1.26.83,1.79,1.12.13-.04.26-.06.38-.06M415.51,247.25c3.29-1.69,7.05-2.53,10.61-2.26,4.91.37,9.2-.06,13.19-1.19-.02-.33.07-.75-.16-1.41-.73-2.08-4.83-7.58-6.54-10.31-4.19,1.09-8.61,1.62-13.04,1.67-2.22,2.38-8.67,7.33-9.98,8.32.78,1.08,3.42,3.16,5.91,5.17M433.41,207.33c.27,1.48-.67,4.26-.9,5.12.65-.13,2.25-1.16,3.78-1.89.79-.76,2.48-1.26,3.38-1.77.43-.8.79-1.62,1.07-2.46l.11-.29c-.79-.28-1.59-.49-2.37-.61-.9-.15-1.82-.25-2.76-.32-.29.71-1.24,1.5-2.31,2.23M426.05,472.99c.36.26.71.53,1.05.79,7.38-.05,14.77-2.37,15-11.45,0-.19-.01-.4-.04-.64-.56-.02-1.13-.04-1.69-.07-.93,1.56-3.44,3.58-4.33,4.33-1.18.99-6.56,5.21-9.99,7.04M418.57,304.65c2.29-.17,14.54-.06,16.4,1.9,3.26-4.59,6.86-9.63,10.74-14.55-2.15.06-4.97-.29-5.97-.33-2.92-.11-16.9.3-20.59-.47-1.18,1.94-2.23,4-3.13,6.21-.97,2.39-1.51,4.97-2.06,7.47,1.58-.35,3.75-.23,4.61-.23M443.22,207.04c-1.54,9.68-18.99,18.35-27.61,14.22-6.93-3.32-10.64-2.85-18.31-2.75-4.99.06-9.03-2.1-12.8-4.87-.66-.49-1.31-.99-1.96-1.51-2.2-1.75-4.34-3.62-6.58-5.27-1.15-.85-9.44-5.47-8.89-7.54-5.01.08-9.91.17-14.95-.12-2.41-.06-4.86-.18-7.39-.39-1.47-.13-7.03-.26-11.14-.91.06.11.12.21.18.3,6.3,10.11,22.87,14.49,34.03,15.33.51.04,1.39,0,2.48-.04,1.7-.09,3.93-.24,6.09-.31,1.09-.03,2.16-.05,3.13-.03.43.56.85,1.1,1.25,1.6.2.25.4.49.6.72,3.08,3.66,6.04,5.99,11.94,8.62,14.13,6.3,29.87,10.37,44,1.98,2.83-1.68,9.64-7.39,13.48-12.98-1.83-2.28-4.6-4.55-7.58-6.06M307.86,164.31c-.59-.65-1.2-1.28-1.83-1.87-3.44-3.25-7.49-5.58-13.1-5.93-1.1-.07-2.55.35-3.99.9l-.28.11.17.15c3.16,2.75,5.85,5.74,5.48,7.24-1.22,1.15-5.5-3.91-7.84-6.44-.48-.51-.87-.93-1.15-1.16-.15-.13-.3-.25-.45-.37-5.16-4.02-15.95-6.46-14.44,3.45,2.29,15.04,18.02,23.41,32.13,21.8,1.96-.22,3.8.76,1.32,2.06-1.01.53-2.36.76-3.92.77,6.76,2.82,12.21,6.19,20.33,7.63,16.51,2.92,34.11,5.34,51.27,4.48,12.24-.61,17.32,3.28,28.25,6.22,14.18,3.82,29.12-3.68,42.47.89.31-.12.6-.03.79.29,2.68,1.02,5.28,2.55,7.81,4.78.54.48.98.98,1.34,1.48.14-.27.28-.54.4-.81.43-2.29.66-4.35.75-5.14-.5-1.57-1.9-2.83-4.58-3.55-1.79-.48-3.22-.98-4.38-1.53-.83-.39-1.52-.79-2.11-1.23-3.46-2.54-3.51-6.09-6.65-12.19-.51-.99-2.33-3.37-3.52-5.42-.37-.63-.68-1.23-.87-1.75l-.18.06c.04.16.06.32.08.48.16,1.27-.07,2.73-.8,4.4-5.58,12.89-17.73,20.77-31.88,17.9-9.57-1.94-16.39-9.99-15.54-18.64-1.46-.14-3.14-.55-4.25-1.13-1.19.51-3.05.72-4.46.58,1.67,1.3,2.73,2.53,2.39,3.4-.98,1.09-2.01.2-2.91-.49-7.24-5.61-17.55-11.03-27.25-13.02-.81-.17-1.62-.31-2.42-.43-1.42-.21-2.82-.33-4.18-.36-.54-.01-1.59.13-2.82.34,1.45,1.12,2.72,2.22,3.77,3.27,2.29,2.29,2.48,6.03-.53,3.19-2.13-2.01-4.39-3.97-6.78-5.78-.75-.56-1.51-1.12-2.29-1.65-5.38-3.71-11.36-6.52-17.85-7.34-.49-.06-1.32-.03-2.29.05,1.35,1.47,2.52,2.98,3.47,4.42,1.66,2.53,1.07,5.8-1.27,2.66-1.77-2.37-3.5-4.69-5.39-6.77M449.76,375.2c-.21.54-.83.53-1.49.82-14.81,6.69-30.83,18.56-42.3,30.03-3.29,3.29-6.98,6.29-8.5,9.75,1.26.37,3.01,1.51,3.92,2.74,8.23-17.21,34.55-34.68,52.69-39.46-1.41-1.26-2.85-2.56-4.31-3.88M441.56,243.07c5.08-1.83,9.73-4.83,14.68-8.82.7-.56,1.51-1.36,2.36-2.24-.87-.53-1.68-1.14-2.42-1.85-1.98-1.92-4.08-6.1-4.8-10.1-3.67,5.09-8.83,8.57-14.69,10.75,1.22,1.28,2.29,2.85,2.74,3.76.45.92,1.33,3.78,1.87,6.8.14.49.22.95.22,1.37l.04.34ZM463.78,470.54c-2.8,4.1-3,15.16-4.79,20.73-8.37,26.1-33.85,27.89-57.88,27.01-11.87-.43-25.58-3.54-37.04-6.37-2.55-.63-7.48-3.18-9.92-2.29,1.48,1.54,17.1,5.4,20.2,6.15,17.82,4.34,36.81,4.26,55.27,2.18,17.09-1.92,25.04-9.99,31.38-25.63,1.71-4.21,5.23-17.51,3.14-21.53-.1-.2-.22-.14-.37-.27M472.5,216.63c1.53-1.35,3.24-2.78,4.93-4.11-7.99-9.26-16.75-17.74-25.61-26.29-1.63-1.57-8.67-8.28-11.16-12-.45.71-1.05,1.55-1.8,2.55-.15.2-.3.38-.46.53.11.14.22.28.34.41,10.69,12.1,21.48,23.73,31.6,36.47.35.45,1.19,1.34,2.17,2.43M439.11,306.97c2.69-1.35,8.09-2.26,9.55-2.55,10.72-2.14,26.3-5.94,37.15-5.41,1.3-.23,6.4-.65,8.85.19-1.29-3.05-2.54-6.1-3.7-9.16-.76-2-2.26-5.49-3.68-9.37-.33.04-.78.02-1.36-.06-7.6-1.09-12.91-1.27-20.43.64-1.64.42-8.54,3.52-11.71,4.73-4.42,5.15-8.39,10.64-12.02,15.48-.84,1.13-1.75,2.42-2.73,3.84.14.44.15,1.01.08,1.68M489.88,244.6c-.27-.05-.56-.12-.88-.15-10.29-.77-11.27,6.21-18.84,8.17-8.74,2.27-12.2-3.43-20.84,4.06-7.83,6.78-13.31,2.21-22.34,2.55-.78.03-2.4.48-4.02.94,1.54.55,2.88,1.18,3.91,1.87,3.2,2.15,4.94,8.8,3.66,12.29,1.98-.35,4.43-.33,5.38-.32,2.78-.5,5.92-.04,8.73,0,1.55.02,7.31,0,11.65.43,2.14,0,4.24.08,5.42.43,6.45-5.41,13.29-9.14,20.38-9.59.54-.09,1.28-.19,1.92-.12.17-1.31.58-2.38,1.33-3.12,1.04-1.04,5.7-4.85,9.64-7.67-1-3.58-2.46-6.89-5.09-9.79M510.65,408.66c-1.83-1.37-9.48-3.87-13.79-5.62-1.05-.49-2.06-.98-2.96-1.46-.7-.43-1.57-.99-2.49-1.5l-.23-.17h-.08c-.68-.37-1.38-.7-2.04-.92l-.21-.19-.08-.26c-.72-.04-1.46-.07-2.23-.1h-.06c.18.08.37.18.57.28h-.05c-.11.14-.24.25-.34.39-.09,3.3,17.7,9.57,21.05,10.4.96.24,1.9.66,2.68.23l.21.2c.84-.2,1.68-.32,2.53-.41-.87-.28-1.72-.59-2.5-.88M426.18,331.55c4.03.77,10.53,3.31,13.36,4.25,18.74,6.24,45.79,15.51,65.55,11.92,1.7-.31,7.98-2.42,11.72-3.03-.38-.5-.77-1.14-1.16-1.91-2.29-4.57-4.62-9.17-6.94-13.81-.43.21-.94.17-1.51.24-19.87,2.21-37.39-9.05-56.81-8.08-2.23.11-16.11,1.54-17.56,1.14l-.05.08c-1.97,3.35-4.22,6.35-6.6,9.2M522.76,457.96h.02v-.02s-.02.02-.02.02ZM521.68,400.23l-.02-.1c-1.54-8.65,1.46-16.8,4.47-24.86-4.32.78-13.33.99-15.42,1.15-19.27,1.45-30.74-2.47-47.61-10.9-10.09-5.05-21.36-8.12-31.12-13.13-4.66-2.39-11.78-6-15.78-8.89-.06-.13-.09-.24-.1-.34-1.4,1.7-2.75,3.45-4.01,5.3-3.91,5.73.57,4.64,1.61,6.36.95.21,1.95.5,2.86.55,10.64.51,13.23.64,21.7,7.23,9.28,7.21,18.09,15.42,27.25,22.96,8.99,7.39,11.88,10.35,24.24,10.65,9.47.23,16.56,3.58,25.43,4.36,1.09.1,4.23-.39,6.51-.33M498.15,270.83h.26c-1.32-4.86-1.85-9.66-2.85-14.12-.79.57-1.45,1.02-1.76,1.26-6.36,4.87-8.95,4.58-6.87,13.36,2.37,9.98,7.87,22.59,12.34,31.9,6.3,13.13,12.32,28.2,19.8,40.61,2.66-.75,5.3-4.14,7.07-6.22.27-.32.63-.81,1.04-1.42-.66-1.54-1.37-3.05-2.12-4.56-4.42,3.29-15.92-4.56-9.03-9.87,2.46-1.9.33-2.89,1.84-4.6-1.82-4.17-3.34-8.6-4.15-13.52-.9-5.57-2.65-9.33-4.77-12.82.14,3.14.18,6.65-.06,7.01-.52.79-9.96.7-10.8.16-.87-.56-.43-8.56-.43-10.21,0-2.42-.83-16.26.48-16.96M466.07,434.34c.8.75,1.22,2.41,1.6,3.28,7.36,17.32,17.36,31.23,29.1,45.78,9.28,11.5,22.53,25.13,37.53,35.76,5.36,3.79,10.94,7.21,16.64,10.01,20.15,9.9,41.84,12.13,60.62-3.56,11.95-9.98,17.34-19.82,12.5-35.14-3.26-10.31-3.94-22.45-10.31-31.38-7.4-10.38-9.26,5.85-4.6,11.51,6.31,7.67-3.76,8.92,1.5,14.66,7.06,7.72-1.3,5.84.27,13.14,2.82,13.11-10.58,22.33-22.61,19.09-8.47-2.28-10.62-7.54-21.01-7.92-10.75-.4-9.13-10.55-19.42-12.07-.53-.08-1.66-.06-3-.03.36,3.6-1.73,6.36-2.21,2.27-.04-.34-.09-.69-.13-1.02l-.03-.21c-.05-.34-.1-.67-.16-1.01-.16-.89-.35-1.77-.56-2.63-.76-3-1.87-5.87-3.35-8.76-.53-1.03-3.27-4.61-4.98-6.91-.38,2.65-1.93,4.1-2.3,1.82-.06-.34-.08-.76-.08-1.28.01-1.05-.02-2.06-.11-3.06-.34-3.93-1.48-7.49-3.82-10.88-.95-1.39-3.31-3.17-4.7-4.31-.59,3.27-3.31,4.91-2.66,1.02.86-5.16.58-9.92-1.89-14.67-.54-1.04-2.4-3.12-3.42-4.79-.1.07-.21.12-.32.16-.55,1.55-1.39,2.39-2.66,1.66-.58-.69-.29-1.03-.09-1.8.86-3.36,1.66-4.93,1.48-8.73-.07-1.29-1.49-6.42-2.35-9.51-.8,2.49-1.92,4.26-3.3,2.4-.14-.59,1.87-5.67,2.13-6.94.24-1.17.25-5.61.47-7.64-.75.24-1.41.55-1.93.95-9.13,7.02-11.46,11-23.88,12.71-6.59.91-12.69,3.88-17.94,8.04M524.03,399.89c1.28.33,2.68,1.53,3,3.49,1.31,7.86-6.94,7.7-13.37,8.5.12.07.24.16.36.27-.03,1.29-.49,5.29-1.31,8.43,1.49.3,1.82,3.54,2.19,4.86.44,1.53,1.5,8.06,1.19,12.77,4.06.15,6.7,10.94,6.73,17.81,2.11.95,5.5,3.91,6.41,5.15,1.16,1.58,3.27,7.69,4,12.76,3.63.64,6.49,5.93,7.82,8.74.68,1.45,2.95,7.72,3.54,12.19,2.2.08,4.21.31,4.92.45,8.74,1.77,9.89,10.91,16.28,11.81,7.15.99,9.62.31,16.05,4.37,8.73,5.52,19.52,6.65,25.37-3.59,3.71-6.49-1.23-10.91,2.51-15.99,2.99-4.07-.76-3.58-2.59-7.3-3.19-6.47,5.22-6.05-.44-13.17-3.27-4.12-4.13-17.66,2.61-18.45,6.75-.79,12.34,16.83,13.25,21.64,2.15,11.45,9.2,24.96,3.88,36.21-11.72,24.81-41.34,33.56-66.07,24.78-17.12-6.08-32.95-17.15-46.46-30-15.96-13.46-29.46-28.98-41.79-47.76-1.69-2.57-8.39-14.27-9.96-20.04-2.27,2.24-4.33,4.71-6.14,7.31-5.85,8.39-11.37,4.02-18.07-.65-5.26-3.66-12.59-2.3-18.75-3.38-.46-.08-.96-.2-1.49-.35-1.33,3.39-2.05,5.12-.57,9.54.22.65.5,1.24.84,1.77,4.65,3.91,12.83,6.15,18.97,6.92,1.34.17,2.91.25,4.62.29.96.02,1.97.03,3,.04,7.23.06,15.73,0,19.61,3.08.71.56,1.66.95,2.74,1.24.91.24,1.91.4,2.9.52.04.86.08,1.74.11,2.63.09,3.12.04,6.41-.16,9.7.09-.09.21-.17.33-.28,5.87-.74,5.01,5.08,3.92,9.02-.75,2.74-3.78,3.7-5.72,3.16-.63,3.24-1.46,6.33-2.5,9.12,4.11.2,1.43,8.6.24,10.8-1.19,2.18-4.84,1.32-6.54.15-9.68,11.77-23.26,12.42-38.91,13.98-3.79.38-7.6.66-11.44.83.43,1.1.57,2.49.11,3.15-.82,1.17-9.16.84-10.89.57-1.73-.27-4.27-2.09-3.59-3.64-2.31-.08-4.61-.21-6.91-.39,0,.2-.03.42-.05.64-.43,5.36-6.51,3.02-10.31,2.65-3.02-.3-6.1-1.57-3.49-5.07-2.09-.37-4.16-.8-6.22-1.28l-.02.37c-.41,4.2-7.45,1.82-9.75,1.1-2.19-.68-3.68-3.23-2.87-5.21-1.03-.37-2.06-.76-3.08-1.17-23.49-9.39,1.99-30.46,14.99-34.68,1.92-.62,13.03-4.09,15.46-2.04,2.07-.09,2.23,5.71,3.07,7.27,2.62-1.77.32-7.08,3.56-7.29,1.1-.07,6,.32,9.09.92l.33-.02c.73-.2,1.54-.22,2.01.21,2.66.47-.62,9.88.87,10.53,1.54-1.31.16-8.38,2.32-8.99.08-.17.24-.33.45-.48,1.88-.34,4.57-.37,6.49-.11,1.29.18,6.78,4.25,8.79,6.29.18-.13.36-.26.44-.44l.08-.16c.23-1.43-2.25-3.74-4.39-5.82-.35-.33-.69-.67-1.01-.99.43-.33.98-.73,1.6-1.15,2.57-1.75,6.34-3.96,7.25-4.1-.17-.13-.34-.25-.5-.37-.4-.28-.8-.55-1.21-.8-.39-.15-.77-.32-1.11-.45-3.71-1.44-7.19-2.95-10.65-4.42-5.16-1.69-13.24-4.14-19.5-6.89-21.53-7.13-8.3-26.99,5.78-35.57-1.81-2.81-2.66-5.72-1.86-8.46.72-2.5,2.96-5.47,5.82-8.5-.48-.06-.98-.21-1.4-.28-2.57-.41-14.7-1.37-17.96-2.85l-.34-.02c-3.1-.38-6.4-11.59-7.07-14.2-.62-2.39-1.41-13.94-.28-17.95-12.24-5.26-23.73-3.92-35.55,7.19-4.81,5.14-8.93,11.58-12.91,18.09l-.09-.16c-1.43,2.47-3.18,5.4-4.61,7.27-.31.73-.66,1.54-1.03,2.46-5.41,13.51-23.69,27.79-38.9,20.91-5.77-2.61-8.79-6.42-10.35-10.91-.8-1.23-1.18-2.3-.82-2.96-2.21-10.5,1.33-23.71-3.5-33.78-5.04-10.52-4.33-17.93-3.34-29.39,1.26-14.49,8.64-32.21,25.47-33.25,11.81-1.49,23.66,10.54,28.3,20.21,4.81,10.02,3.1,20.41,2.29,30.78,8.25-9.35,29.45-19.28,40.69-19.14,3.24-.58,7.18-.16,10.34.44,1.62.31,5.04,1.49,8.83,3.13.25-2.1,4.13-5.58,5.63-5.95.54-.11,1.17-.09,1.66.12,2.49-.19,5.54.75,7.9,1.17,1.56.28,8.83,1.58,13.63,2.74-.9-9.8,14.5-22.1,20.74-28.23.83-.82,1.49-1.67,2.03-2.53.59-1.25,1.34-3.31,2.08-5.48-9.31,12.6-21.4,24.45-33.59,9.88-.56-.67-.98-1.35-1.25-1.97-1.35,1.57-7.1,2.53-10.25,1.81-6.9,6.97-21.14,10.54-30.19,9.87-2.16-.16-10.55-2.89-10.19-6.13-1.59.47-3.48.66-4.4.72-4.38.32-7.4-4.8-7.06-8.61-8.3,3.39-11.5-5.95-8.87-11.94-.13-.05-.26-.1-.39-.16-5.53-2.38-7.16-8.61-6.75-14.83,0-1.73.28-3.5.82-5.29.61-2.49,1.48-4.78,2.47-6.58,3.5-8.25,13.87-17.67,22.25-22.88-1.14-5.62,5.73-10.17,10.14-11.39,1.48-.19,3.86-.28,5.63.38,1.56-2.11,7.08-3.63,8.55-3.65,2.02-.41,6.43.62,8.23,2.63,1.91-1.37,6.36-1.95,7.66-1.77,2.31-.06,4.31,1.66,5.07,3.27,1.91-1.42,5.02-2.65,6.28-3.13.33-.05.67-.13.99-.14,5.76-.28,7.68,5.49,7.43,9.53.91.11,1.91.28,2.68.68,1.09-2.7,2.97-5.04,5.29-6.86-12.92-6.13-3.74-10.92,3.08-15.71-6.3-.35-12.42-1.61-17.65-3.5-3.67-1.32-19.2-9.63-19.5-14.55-.24,0-.45.01-.62.02-.46.03-.93.07-1.41.09-11.28,1.74-23.57-.55-33.61-5.16-2.52-1.16-15.71-10.32-15.59-14.33-6.37-.96-12.64-2.25-17.86-4.37-2.02-.82-12.92-5.31-14.62-7.48-5.31-1.09-11.06-3.36-13.79-4.97-7.34-4.3-19.67-24.75-7.47-27.86.9-.98,2.77-1.03,4.05-1.11,2.64-.53,8.21,1.85,10.6,4.51.85-.81,2.42-1.22,3.45-1.39,2.65-.37,5.32.11,7.82.83,1.4.4,6.97,3.15,9.96,5.9.58-.57,1.47-.79,2.37-.78,2.33-.18,4.72.43,6.95,1.14,2.32.74,11.42,5.01,16.02,8.96,1.04-.63,2.56-.83,3.69-1.16,1.17-.26,4.06.03,5.65,1,.02-5.21,2.32-13.98,6.14-20.09.44-.7.9-1.37,1.37-1.99.69.46,1.38.92,2.06,1.38.96.65,1.91,1.28,2.87,1.85,2.58,1.54,8.51,4.71,13.76,8-.1-.71-.05-1.5.12-2.32.38-4.54,3.29-7.95,7.21-9.47.24-.1.48-.19.71-.25,2.08-.67,4.4-.82,6.76-.36,5.56.41,9.97,5.62,13.69,9.15,12.19,11.55,17.15,4.53,31.01,6.43,1.92.26,8.38,3.54,6.88,5.53.15.6.22,1.26.2,1.99,3.51.85,5.02,1.5,5,2.78.15.13.28.29.46.48,9.12,9.82,19.48,18.62,28.35,28.66,1.13,1.27,5.57,5.88,9.02,9.8.56.64,1.1,1.25,1.59,1.83-.74.55-1.43,1.06-1.97,1.47-.43.32-.77.57-.97.73-.6.49-2.13,1.91-3.87,3.41-.69.59-1.41,1.19-2.11,1.75-.53-.63-1.04-1.26-1.47-1.81-.62-.78-1.1-1.4-1.34-1.71-7.53-9.33-14.7-17.8-22.75-26.6-1.31-1.43-7.72-8.26-9.71-11.9-1.29.24-2.55-.46-3.34-1.31-.25.39-.51.74-.76,1.06.75.52,1.44,1.44,1.98,2.21,3.74,4.02,8.89,11.64,9.85,16.62,1.96.26,4.05,1,5.6,1.65,1.89.79,3.27,2.02,4.21,3.49,1.73,1.78,2.12,3.93,1.67,6.22-.02,2.04-.49,4.05-1.28,5.68-.53,4.18-.27,7.29,2.1,11.13,2.27,3.68,4.68,5.53,7.14,6.99,5.7,1.56,10.98,1.6,16.91,3.87,11.34,4.32,14.4,9.88,16.11,17.2.18.75.34,1.51.49,2.29.77,3.89,1.37,8.23,2.7,13.12,3.48,12.76,13.93,20.7,15.85,33.5,1.78,11.88,8.39,21.31,13.01,31.5.44.96.86,1.93,1.25,2.92,1.26,3.11,2.27,6.33,2.87,9.72,3.6,20.54-10.71,34.21-9.1,53.12.02.25.03.49.03.71"/>
  <path class="cls-1" d="M498.41,270.84h-.26c-1.31.69-.48,14.53-.48,16.95,0,1.65-.44,9.65.43,10.21.84.54,10.27.63,10.8-.16.24-.36.2-3.87.06-7.01,2.12,3.49,3.86,7.25,4.77,12.82.8,4.92,2.32,9.34,4.15,13.52-1.52,1.71.62,2.7-1.84,4.6-6.89,5.3,4.61,13.16,9.03,9.87.75,1.51,1.46,3.02,2.12,4.56-.41.61-.77,1.1-1.04,1.42-1.78,2.08-4.41,5.48-7.07,6.22-7.48-12.41-13.5-27.48-19.8-40.61-4.47-9.32-9.98-21.92-12.34-31.9-2.08-8.78.52-8.49,6.87-13.36.31-.24.97-.69,1.76-1.26,1,4.46,1.53,9.27,2.85,14.13"/>
  <path class="cls-1" d="M496.86,403.03c4.31,1.76,11.96,4.25,13.79,5.62.77.29,1.63.59,2.5.88-.84.09-1.69.21-2.53.41l-.21-.2c-.78.43-1.72.01-2.68-.23-3.35-.83-21.14-7.1-21.05-10.4.1-.14.23-.24.34-.37h.05c-.2-.11-.39-.21-.57-.3h.06c.77.03,1.51.07,2.23.1l.08.26.21.19c.66.23,1.35.55,2.04.92h.08l.23.17c.92.51,1.79,1.06,2.49,1.5.9.48,1.91.97,2.96,1.46"/>
  <path class="cls-1" d="M458.6,232c-.85.89-1.66,1.68-2.36,2.24-4.95,3.99-9.6,7-14.68,8.82l-.04-.34c0-.41-.08-.87-.22-1.37-.54-3.02-1.41-5.89-1.87-6.81-.45-.91-1.53-2.48-2.74-3.76,5.86-2.18,11.02-5.66,14.69-10.75.73,4,2.82,8.18,4.8,10.1.74.71,1.55,1.32,2.42,1.85"/>
  <path class="cls-1" d="M397.46,415.79c1.53-3.46,5.22-6.47,8.5-9.75,11.48-11.47,27.49-23.33,42.3-30.03.65-.29,1.28-.28,1.49-.82,1.46,1.31,2.9,2.62,4.31,3.88-18.13,4.78-44.46,22.25-52.69,39.46-.92-1.24-2.67-2.37-3.92-2.74"/>
  <path class="cls-1" d="M439.32,243.79c-3.98,1.13-8.27,1.56-13.19,1.19-3.57-.27-7.32.57-10.61,2.26-2.49-2.01-5.14-4.09-5.91-5.17,1.31-1,7.76-5.94,9.98-8.32,4.43-.05,8.85-.58,13.04-1.67,1.71,2.72,5.81,8.23,6.54,10.31.23.66.14,1.07.16,1.41"/>
  <path class="cls-1" d="M414.87,212.46c-.53,1.62-.95,3.05-1.02,3.59v.17c1.61,2.17,13.77-5.32,15.95-6.7.32-.2.83-.49,1.43-.84-.9,2.37-1.96,5.78-1.87,6.28.8,1.01,4.32-.28,7.05-1.73-5.44,5.63-14.21,8.69-20.97,5.13-.74-.39-1.49-.71-2.24-.97-5.94-2.07-12.13-.46-17.87-1.34-1.98-.3-3.9-.9-5.74-2.05-2.23-1.39-4.41-2.92-6.57-4.51,2.24-.79,8.33-3.73,10.6-4.96-.78,2.77-1.82,10.7,1.13,10.16.11-.02.25-.06.42-.12,2.4-.83,9.43-5.26,11.83-6.36.8-.37,1.94-.62,2.24-1.39,2.38-.01,4.88-.21,7.44-.47-.74,1.67-1.51,4.2-1.79,6.11"/>
  <path class="cls-1" d="M426.18,278.05c-5.87,5.65-12.08,17.29-13.73,22.71-1.07,3.53-1.14,7.4-2.6,10.8l-.17-.13v-.03c-.16-1.07-7.46-7.93-8.97-8.52-.81-1.72-2.11-4.32-2.39-5.53-2.18-9.44,10.72-14.39,17.5-18.21,3.61-2.03,15.78-7.7,8.3-13.11-1.61-1.16-3.73-1.29-5.65-1.05-2.4.34-9.75,2.78-13.31,5.85.36-3.32,0-8.16-.44-11.81.88.3,2.57.57,4.63.88,3.78.71,8.04,1.46,9.13,1.77,9.77,2.75,9.13,6,7.79,14.94-.09.59-.12,1.06-.09,1.44"/>
  <path class="cls-1" d="M419.34,267.15c2.93-.43,5.17.2,4.61,3.3-.13.74-1.1,1.72-2.53,2.83-1.49-.55-3.88-.91-2.4-5.34.09-.25.22-.53.33-.79"/>
  <path class="cls-1" d="M409.9,355.27c.26.2.55.38.87.56-4.87-.39-9.72-.81-14.65-.99-3.32-.12-1.95-1.43-2.99-3.03,3.56.7,7.04,1.31,8.1,1.54.53.11,5.92,1.86,8.66,1.92"/>
  <path class="cls-1" d="M406.12,183.31c1.77,2.35-1.15,6.49-3.67,6.86-.46-1.15-.16-2.57.23-3.71,1.12-3.32,1.63-1.74,3.44-3.15"/>
  <path class="cls-1" d="M389.83,357.49c.22.94.43,1.91.6,2.9-.39-.37-.73-.65-.91-.77-.18-.13-.37-.25-.56-.38-.77-.54-1.67-1.07-2.64-1.58,1.16.08,2.48,0,3.5-.17"/>
  <path class="cls-1" d="M360.01,292.23c.05.07.19,3.01.24,3.42.06.54.49,3.62.38,3.96.29-.12.98-.13,1.28-.21.31-.04.33,1,.3,1.26-.12.06-.19.03-.33.03-.84.05-1.62.31-2.45.41-.82.08-1.49.18-2.29.3-.12-.17-.26-1.13-.22-1.3.24-.06,1.14-.21,1.28-.16l.02-.05c-.2-.27-.43-3.69-.48-4.29-.05-.64-.39-2.23-.37-2.84,0-.04,0-.08.01-.11.03,0,.05.04.08.08.06-.02.11-.04.15-.06-.19-.18-.83.07-1.1.07-.08-.24-.24-.97-.08-1.14.12-.13,3.17-.45,3.62-.53.32-.06.63-.15.95-.21.11.35.19.79.21,1.16-.33.08-.75.05-1.06.16l-.05.02-.07.02Z"/>
  <path class="cls-1" d="M352.78,295.64c-.04-.07-.06-.16-.09-.25-.55-1.52-1.77-2.07-2.75-.46-.89,1.44-.59,6.11,1.58,6.13,1.72.01.68-2.06.61-2.81-.27.1-.66.16-.92.14-.11-.28-.24-1.09-.02-1.25.32-.25,2.76-.7,3.35-.87.13-.04.26-.07.4-.09.11.1.11.23.16.37.37,1.17.38.68-.41,1.08-.65.34.53,3.31.53,3.93-.3.15-.98.37-1.3.28-.04-.19-.16-.49-.21-.73-.34.89-2.2,1.63-2.99,1.58-4.2-.3-4.28-9.7-.05-10.26.38-.09,1.32.05,1.76.38-.3-.44.32-1,.88-1.01.18.21.29,1.86.35,2.26.17,1.28.85,1.79-.74,2.02-.08-.1-.13-.28-.13-.44"/>
  <path class="cls-1" d="M347.66,273.3c-1.81.61-3.49,1.56-4.68,3.12,4.31,8,8.55-1.14,6.39-2.98-.32-.27-1.31-.21-1.7-.14M346.81,272.88c2.5-.77,4.37.16,3.9,2.9-1.32,7.71-5.28,4.02-8.58,1.06.43-1.98,2.86-3.32,4.68-3.97"/>
  <path class="cls-1" d="M347.66,273.3c.39-.07,1.39-.13,1.7.14,2.17,1.84-2.08,10.98-6.38,2.98,1.19-1.55,2.87-2.51,4.68-3.12"/>
  <path class="cls-1" d="M330.5,287.52c3.67,2.48,4.51,12.85,10.97,5.12-.77-.89-1.73-1.69-2.61-2.61-5.77-5.97.08-7.37-1.21-9.28-1.55-1.51-4.69,3.62-6.87,5.53-.34.3-.67.52-.95.62l-.05.02c.06-1.11,6.06-7.57,7.24-7.52,1.84,1.09,2.01,1.66,1.13,3.4-3.45,6.9,2.81,5.43,4.12,10.07-.32.36-.62.7-.92,1.06-4.71,5.73-10.32-3.09-11.83-6.86.08.02.15.04.23.07.26.09.51.21.75.38"/>
  <path class="cls-1" d="M327.1,287.2c-5.94,4.61-2.04,11.87,2.13,16.02,4.79-1.94-.89-5.47-1.63-9.57-.38-2.12-.31-4.28-.5-6.45M326.95,286.21c.96-.07.69-.11.92.78,1.38,5.28-.66,6.37,3.05,11.7,2.62,3.76-.46,6.52-3.04,4.31-5.02-4.31-6.43-12.43-.94-16.79"/>
  <path class="cls-1" d="M327.1,287.2c.19,2.17.12,4.33.5,6.45.73,4.1,6.42,7.63,1.63,9.57-4.16-4.16-8.06-11.41-2.13-16.02"/>
  <path class="cls-1" d="M388.89,385.46c-1.71,0-10.01-.03-12.97.53-.04-.47-.06-.84-.08-1.1-.04-.72-.07-1.58-.08-2.54,2.08.67,8.83.86,12.55.68.5.53,1.03,1.02,1.61,1.31-.08.37-.17.74-.26,1.11-.23-.06-.5-.06-.77,0"/>
  <path class="cls-1" d="M389.41,355.86c-1.81-.12-4.62-.07-5.45.66-1.17-.53-2.38-1.02-3.59-1.49.24-.39.49-.76.75-1.1,1.3,1.08,6.22.9,7.75.18.23.62.4,1.23.54,1.75"/>
  <path class="cls-1" d="M376,386.83c3.08.61,11.65.55,13.21.32-.1.37-.21.73-.33,1.09-1.1-.31-2.74,0-3.61.09-1.32-.06-6.78.02-9.01.73-.11-.82-.19-1.58-.26-2.23"/>
  <path class="cls-1" d="M388.36,311.69c-.39.34-.7.66-.93.99-3.13-.07-12.3.64-14.35.59-.05-.69-.12-1.37-.2-2.05,3.25,1.08,9.89-1.55,11.38-3.15,1.49,1.64,2.93,2.92,4.11,3.62"/>
  <path class="cls-1" d="M387.04,393.22c-1.12-.27-2.83.12-3.68.23-1.08.04-4.51.11-6.21.71-.3-1.35-.54-2.74-.73-4.04,2.7.51,9.65.36,11.82.1-.37,1.02-.76,2.03-1.19,3"/>
  <path class="cls-1" d="M385.59,350.8c1.21.03,2.04.85,2.64,1.9-.39-.06-.85,0-1.25.12-1.4.03-3.5-.13-5.06.18,1.04-1.1,2.26-1.87,3.68-2.2"/>
  <path class="cls-1" d="M384.03,379.4c.76.52,1.52,1.06,2.28,1.63-3.71-.02-8.58.11-9.76.29-.37.06-.61.04-.81.1,0-.8,0-1.65,0-2.54.96.67,5.2.74,8.28.53"/>
  <path class="cls-1" d="M379.53,397.16c-.55-.07-1.12-.1-1.54.08-.2-.61-.39-1.27-.57-1.95,2.13.31,6.4.08,8.85-.42-.39.78-.8,1.54-1.23,2.28-1.62-.46-4.5-.15-5.51,0"/>
  <path class="cls-1" d="M378.46,398.51c1.4.32,3.84.42,5.6.25-.08.12-.16.24-.24.36-2.38,3.54-4.12,2.3-5.37-.61"/>
  <path class="cls-1" d="M378.08,302.74c.68-.05,1.3-.12,1.83-.21,1.21,1.78,2.52,3.48,3.8,4.94-2.23,3.14-6.22,2.65-9.62,3.11,1.62-2.93-.66-4.69,4-7.84"/>
  <path class="cls-1" d="M380.02,199.53c.65.09,1.3.2,1.94.33-.77,1.8-.57,6.56-.16,8.72-3.5-2.59-6.96-5.29-10.58-7.72-.6-.41-1.29-1.09-2-1.58,2.05-.03,4.13-.05,6.24-.04,1.55.25,3.28.67,4.57.28"/>
  <path class="cls-1" d="M375.76,378.45c.02-1.25.07-2.57.14-3.95,1.75.88,3.52,1.89,5.31,3.02-2.03.11-4.59.38-5.45.92"/>
  <path class="cls-1" d="M371.3,302.48c1.23.31,3.29.4,5.24.34-2.28,1.77-3.92,5.77-2.79,7.81-.31.05-.62.11-.93.19-.35-2.81-.92-5.58-1.53-8.34"/>
  <path class="cls-1" d="M367.39,321.17c-1.59-.81-4.86.68-3.54-4.9.16-.68.48-1.15.39-1.72,2.13-.36,3.96,0,5.02,1.42,1.43,1.92.14,3.65-1.87,5.19"/>
  <path class="cls-1" d="M364.63,170.01c.38.25.73.57.89,1.02,1.88,5.33-6.62.91-.89-1.02"/>
  <path class="cls-1" d="M355.54,311.26c-1.95-.31-5.92,1.82-6.74-2.49-.11-.57.01-1.34-.19-1.78,1.82-.91,3.64-1.09,5.23-.07,1.68,1.08,1.93,2.69,1.7,4.33"/>
  <path class="cls-1" d="M338.14,300.74c2.31-1.49,4.45-1.57,5.71,1.29.94,2.14.37,3.32-.19,4.44-1.51-.37-4.34.37-5.23-4.02-.12-.58-.07-1.26-.29-1.71"/>
  <polygon class="cls-1" points="322.46 395.78 322.56 395.94 322.56 395.94 322.46 395.78"/>
  <path class="cls-1" d="M321.35,393.86l-.07-.15c-.04-.15-.04-.31-.02-.47.09.26.18.51.28.75l-.19-.13Z"/>
  <polygon class="cls-1" points="319.78 385.18 319.74 384.99 319.77 384.93 319.78 385.18"/>
  <path class="cls-1" d="M274.84,359.62c-4.52,1.96-6.86,6.32-.62,7.96,1.02.27,2.36.33,2.59-.89-.2-1.2-3.2-1.19-4.26-2.77.34-1.81,4.05-2.03,3.67-3.99-.41-.43-.84-.46-1.38-.32M276.23,336.65c-9.21,1.65-.43,8.63,1.59,6.81.14-.12.18-.24.27-.38.13-1.76-2.91-1.89-3.88-3.14.78-1.39,3.68-1.09,3.98-2.7-.38-.75-1.14-.87-1.96-.6M276.86,413.64c-4.93,1.25,3.13,9.79,4.22,6.45.2-1.24-3.11-2.46-3.51-4.46.94-.29,2.29.35,2.86-.65-.25-1.49-2.35-1.62-3.56-1.33M291.54,359.52c-3.54,2.16-8.73,4.33-1.54,7.82.84.41,1.82.91,2.34-.11.04-1.67-2.8-2.29-3.7-3.62.99-1.27,4.92-1.9,4.32-3.92-.42-.31-.92-.35-1.42-.17M291.65,415.03c-7.82,1.6.2,9.88,2.7,6.31.6-2.32-3.34-.91-3.71-2.97.72-1.71,2.75-1.04,3.52-2.32.06-1.37-1.48-1.37-2.51-1.02M294.1,341.44c-8.73,2.21-.94,8.65,1.65,7.29.45-.24.53-.29.69-.8-.37-1.94-3.99-.99-4.21-3.04.93-1.51,3.65-1.29,4.17-2.75-.31-.98-1.37-.92-2.29-.69M282.19,322.12c3.41-.25,9.17-.87,11.16-.36.39.1.88.31,1.43.58,1.84,1.59,4.79,3.47,5.66,4.35,12.69,12.68-2.22,30.78-6.29,43.5-3.2,9.99,4.07,19.57,6.08,29.45,2.75,13.6.7,29.68-17.64,26.24-5.98-1.12-8-5.48-11.36-9.71-2.42-9.57.69-22.4-1.98-30.98-2.61-8.37-5.85-10.58-5.85-20.52,0-17.04,2.22-36.03,18.79-42.55"/>
  <path class="cls-1" d="M294.1,341.44c.92-.22,1.98-.29,2.29.69-.52,1.47-3.24,1.25-4.17,2.75.22,2.05,3.85,1.1,4.21,3.04-.16.51-.23.56-.69.8-2.59,1.36-10.38-5.08-1.65-7.29"/>
  <path class="cls-1" d="M291.65,415.03c1.03-.35,2.58-.35,2.51,1.02-.77,1.29-2.81.62-3.52,2.32.36,2.05,4.31.64,3.71,2.97-2.5,3.56-10.52-4.71-2.7-6.31"/>
  <path class="cls-1" d="M291.54,359.52c.51-.18,1.01-.14,1.42.17.59,2.02-3.33,2.65-4.32,3.92.89,1.33,3.74,1.95,3.7,3.62-.52,1.02-1.5.51-2.34.11-7.19-3.49-2-5.66,1.54-7.82"/>
  <path class="cls-1" d="M276.86,413.64c1.21-.29,3.31-.16,3.56,1.33-.57,1-1.92.36-2.86.65.4,2.01,3.71,3.22,3.51,4.46-1.09,3.35-9.15-5.2-4.22-6.45"/>
  <path class="cls-1" d="M276.23,336.65c.81-.28,1.58-.15,1.96.6-.3,1.61-3.2,1.31-3.98,2.7.97,1.25,4.01,1.38,3.88,3.14-.09.14-.13.25-.27.37-2.02,1.82-10.81-5.15-1.59-6.81"/>
  <path class="cls-1" d="M274.84,359.62c.55-.14.98-.11,1.38.32.38,1.96-3.33,2.17-3.67,3.99,1.06,1.58,4.06,1.57,4.26,2.77-.23,1.22-1.57,1.16-2.59.89-6.24-1.64-3.9-6,.62-7.96"/>
  <path class="cls-1" d="M319.86,363.24l-.03-.09v-.07c.04-.18.06-.37.08-.56,0,.24.01.48.01.74l-.06-.02Z"/>
  <path class="cls-1" d="M330.79,286.27c-.04.36-.65.47-.28,1.24l.04.08c.06.12.38.43.19.65-.35.25-.52-.12-.67-.37-.22-.37-.33-.56-.31-.74,0-.08.03-.15.08-.24.06-.11.15-.24.28-.42.04-.05.18-.4.35-.58.09-.06.22.02.27.12.05.1.06.19.05.26"/>
</svg>