<?xml version="1.0" encoding="UTF-8"?>
<svg id="Capa_1" data-name="Capa 1" xmlns="http://www.w3.org/2000/svg" viewBox="0 0 551.21 98.61">
  <defs>
    <style>
      .cls-1 {
        fill: #676766;
      }
    </style>
  </defs>
  <path class="cls-1" d="M40.35,45.96c-11.18-2.54-13.94-4.16-13.94-7.85v-.23c0-2.88,2.65-5.17,8.06-5.17,7.16,0,15.22,2.77,22.6,7.93l11.19-15.77c-8.76-7.04-19.48-10.73-33.21-10.73C15.68,14.13,3.82,24.98,3.82,39.95v.22c0,16.61,13.25,21.45,30.44,25.38,10.94,2.53,13.59,4.38,13.59,7.7v.24c0,3.46-3.23,5.53-9.22,5.53-9.35,0-18.22-3.33-26.18-9.67L0,84.22c9.93,8.88,23.52,13.37,37.81,13.37,19.6,0,32.62-9.81,32.62-26.28v-.23c0-15.09-11.52-21.09-30.09-25.12"/>
  <path class="cls-1" d="M107.44,14.96l-34.36,81.25h23.51l5.75-14.4h31.13l5.88,14.4h23.98L128.99,14.96h-21.54ZM108.94,64.39l9.1-22.93,9,22.93h-18.09Z"/>
  <polygon class="cls-1" points="225.24 58.17 192.05 15.53 171.18 15.53 171.18 96.21 193.31 96.21 193.31 51.95 227.77 96.21 247.36 96.21 247.36 15.53 225.24 15.53 225.24 58.17"/>
  <rect class="cls-1" x="262.12" y="15.53" width="22.46" height="80.68"/>
  <path class="cls-1" d="M338.88,77.42c-11.3,0-19.27-9.45-19.27-21.54v-.25c0-11.76,7.96-21.31,19.27-21.31,7.74,0,13.02,3.68,17.65,9.46l16.83-13.03c-7.16-9.92-17.76-16.83-34.25-16.83-24.43,0-42.54,18.44-42.54,41.96v.22c0,24.09,18.56,41.74,41.62,41.74,17.86,0,28.13-7.73,35.73-18.22l-16.84-11.97c-4.83,5.86-9.79,9.78-18.21,9.78"/>
  <path class="cls-1" d="M531.96,68.09c10.01-4.28,16.59-12.46,16.59-24.78v-.23c0-7.96-2.43-14.19-7.14-18.79-5.42-5.53-13.95-8.75-26.29-8.75h-38.15v80.68h22.36v-24.43h9.79l16.26,24.43h25.82l-19.25-28.12ZM526.09,44.68c0,5.87-4.4,9.56-12,9.56h-14.76v-19.35h14.64c7.5,0,12.12,3.22,12.12,9.57v.22Z"/>
  <path class="cls-1" d="M465.24,56.42c0-8.44-2.48-16.25-6.8-22.8l-17.2,15.78c.75,2.31,1.16,4.75,1.16,7.27v.24c0,11.62-8.15,21.53-20.46,21.55h-.06c-12.15-.07-20.53-10.17-20.53-21.78v-.25c0-11.37,7.85-21.06,19.61-21.5v15.65l27.55-25.29L420.96,0v14.72c-24.36.52-42.55,19.09-42.55,41.94h-.07v.24c0,23.16,18.42,41.72,43.33,41.72h.22c24.84-.07,43.45-18.82,43.45-41.95h-.09v-.25Z"/>
</svg>